NotoSerifTamil-CondensedExtraBold.ufo
<glyph name="exclam" format="2">
  <advance width="354.3642857142857"/>
  <unicode hex="0021"/>
  <outline>
    <contour>
      <point x="150.84761904761908" y="231.11904761904762" type="line"/>
      <point x="203.68095238095236" y="231.11904761904762" type="line"/>
      <point x="265.0214285714286" y="714.0" type="line"/>
      <point x="89.50714285714287" y="714.0" type="line"/>
    </contour>
    <contour>
      <point x="178.53809523809522" y="-7.847619047619047" type="curve" smooth="yes"/>
      <point x="220.77142857142857" y="-7.847619047619047"/>
      <point x="257.32142857142867" y="11.53095238095238"/>
      <point x="257.32142857142867" y="72.18095238095239" type="curve" smooth="yes"/>
      <point x="257.32142857142867" y="132.81428571428575"/>
      <point x="220.77142857142857" y="152.2095238095238"/>
      <point x="178.53809523809522" y="152.2095238095238" type="curve" smooth="yes"/>
      <point x="134.1404761904762" y="152.2095238095238"/>
      <point x="99.7547619047619" y="132.81428571428575"/>
      <point x="99.7547619047619" y="72.18095238095239" type="curve" smooth="yes"/>
      <point x="99.7547619047619" y="11.53095238095238"/>
      <point x="134.1404761904762" y="-7.847619047619047"/>
    </contour>
  </outline>
</glyph>
<glyph name="quotedbl" format="2">
  <advance width="485.12380952380954"/>
  <unicode hex="0022"/>
  <outline>
    <contour>
      <point x="323.85476190476186" y="434.5190476190477" type="line"/>
      <point x="389.2190476190476" y="434.5190476190477" type="line"/>
      <point x="422.20952380952383" y="714.0" type="line"/>
      <point x="265.43095238095236" y="714.0" type="line"/>
    </contour>
    <contour>
      <point x="108.10714285714285" y="434.5190476190477" type="line"/>
      <point x="173.4714285714286" y="434.5190476190477" type="line"/>
      <point x="219.1452380952381" y="714.0" type="line"/>
      <point x="62.74999999999999" y="714.0" type="line"/>
    </contour>
  </outline>
</glyph>
<glyph name="numbersign" format="2">
  <advance width="490.73333333333335"/>
  <unicode hex="0023"/>
  <outline>
    <contour>
      <point x="62.12142857142858" y="0.0" type="line"/>
      <point x="136.55238095238096" y="0.0" type="line"/>
      <point x="174.86904761904765" y="199.53809523809525" type="line"/>
      <point x="255.79047619047623" y="199.53809523809525" type="line"/>
      <point x="219.3380952380952" y="0.0" type="line"/>
      <point x="293.7690476190476" y="0.0" type="line"/>
      <point x="330.5380952380952" y="199.53809523809525" type="line"/>
      <point x="441.53809523809525" y="199.53809523809525" type="line"/>
      <point x="441.53809523809525" y="271.4214285714285" type="line"/>
      <point x="345.31666666666666" y="271.4214285714285" type="line"/>
      <point x="378.53809523809525" y="447.0309523809524" type="line"/>
      <point x="473.53809523809525" y="447.0309523809524" type="line"/>
      <point x="473.53809523809525" y="520.4619047619047" type="line"/>
      <point x="391.7690476190476" y="520.4619047619047" type="line"/>
      <point x="428.7690476190476" y="714.0" type="line"/>
      <point x="354.33809523809526" y="714.0" type="line"/>
      <point x="317.0214285714286" y="520.4619047619047" type="line"/>
      <point x="236.1" y="520.4619047619047" type="line"/>
      <point x="271.552380952381" y="714.0" type="line"/>
      <point x="196.12142857142857" y="714.0" type="line"/>
      <point x="161.35238095238094" y="520.4619047619047" type="line"/>
      <point x="49.57857142857143" y="520.4619047619047" type="line"/>
      <point x="49.57857142857143" y="447.0309523809524" type="line"/>
      <point x="147.25714285714287" y="447.0309523809524" type="line"/>
      <point x="113.35238095238095" y="271.4214285714285" type="line"/>
      <point x="17.578571428571426" y="271.4214285714285" type="line"/>
      <point x="17.578571428571426" y="199.53809523809525" type="line"/>
      <point x="100.12142857142858" y="199.53809523809525" type="line"/>
    </contour>
    <contour>
      <point x="188.10000000000002" y="271.4214285714285" type="line"/>
      <point x="222.86904761904762" y="447.0309523809524" type="line"/>
      <point x="304.7904761904763" y="447.0309523809524" type="line"/>
      <point x="270.8857142857143" y="271.4214285714285" type="line"/>
    </contour>
  </outline>
</glyph>
<glyph name="percent" format="2">
  <advance width="798.6833333333334"/>
  <unicode hex="0025"/>
  <outline>
    <contour>
      <point x="213.2404761904762" y="0.0" type="line"/>
      <point x="285.9857142857143" y="0.0" type="line"/>
      <point x="583.007142857143" y="714.0" type="line"/>
      <point x="510.5619047619048" y="714.0" type="line"/>
    </contour>
    <contour>
      <point x="189.65714285714287" y="280.0" type="curve" smooth="yes"/>
      <point x="300.72142857142853" y="280.0"/>
      <point x="354.52857142857147" y="369.0"/>
      <point x="354.52857142857147" y="503.0" type="curve"/>
      <point x="354.52857142857147" y="637.0"/>
      <point x="300.72142857142853" y="724.0"/>
      <point x="190.34047619047618" y="724.0" type="curve" smooth="yes"/>
      <point x="73.51190476190474" y="724.0"/>
      <point x="25.169047619047618" y="637.0"/>
      <point x="25.169047619047618" y="503.0" type="curve" smooth="yes"/>
      <point x="25.169047619047618" y="369.0"/>
      <point x="73.51190476190474" y="280.0"/>
    </contour>
    <contour>
      <point x="190.0404761904762" y="330.3333333333333" type="curve" smooth="yes"/>
      <point x="148.13095238095238" y="330.3333333333333"/>
      <point x="132.77857142857144" y="393.07380952380953"/>
      <point x="132.77857142857144" y="503.0" type="curve"/>
      <point x="132.77857142857144" y="610.9261904761905"/>
      <point x="148.13095238095238" y="672.6666666666666"/>
      <point x="190.34047619047618" y="672.6666666666666" type="curve" smooth="yes"/>
      <point x="232.56666666666663" y="672.6666666666666"/>
      <point x="245.91904761904755" y="610.9261904761905"/>
      <point x="245.91904761904755" y="503.0" type="curve" smooth="yes"/>
      <point x="245.91904761904755" y="393.07380952380953"/>
      <point x="232.56666666666663" y="330.3333333333333"/>
    </contour>
    <contour>
      <point x="609.1904761904763" y="-10.0" type="curve" smooth="yes"/>
      <point x="720.1880952380952" y="-10.0"/>
      <point x="773.6785714285714" y="79.0"/>
      <point x="773.6785714285714" y="213.0" type="curve" smooth="yes"/>
      <point x="773.6785714285714" y="347.0"/>
      <point x="720.1880952380952" y="434.0"/>
      <point x="610.1904761904763" y="434.0" type="curve" smooth="yes"/>
      <point x="493.36190476190484" y="434.0"/>
      <point x="445.0190476190476" y="347.0"/>
      <point x="445.0190476190476" y="213.0" type="curve" smooth="yes"/>
      <point x="445.0190476190476" y="79.0"/>
      <point x="493.36190476190484" y="-10.0"/>
    </contour>
    <contour>
      <point x="609.1904761904763" y="40.333333333333336" type="curve" smooth="yes"/>
      <point x="567.9809523809524" y="40.333333333333336"/>
      <point x="552.6285714285715" y="103.07380952380953"/>
      <point x="552.6285714285715" y="213.0" type="curve" smooth="yes"/>
      <point x="552.6285714285715" y="320.92619047619047"/>
      <point x="567.9809523809524" y="382.6666666666667"/>
      <point x="610.1904761904764" y="382.6666666666667" type="curve" smooth="yes"/>
      <point x="651.7166666666667" y="382.6666666666667"/>
      <point x="665.7690476190477" y="320.92619047619047"/>
      <point x="665.7690476190477" y="213.0" type="curve" smooth="yes"/>
      <point x="665.7690476190477" y="103.07380952380953"/>
      <point x="651.7166666666667" y="40.333333333333336"/>
    </contour>
  </outline>
</glyph>
<glyph name="quotesingle" format="2">
  <advance width="282.4428571428572"/>
  <unicode hex="0027"/>
  <outline>
    <contour>
      <point x="108.10714285714285" y="434.5190476190477" type="line"/>
      <point x="173.4714285714286" y="434.5190476190477" type="line"/>
      <point x="219.1452380952381" y="714.0" type="line"/>
      <point x="62.74999999999999" y="714.0" type="line"/>
    </contour>
  </outline>
</glyph>
<glyph name="parenleft" format="2">
  <advance width="372.07142857142867"/>
  <unicode hex="0028"/>
  <outline>
    <contour>
      <point x="344.5880952380952" y="-140.19761904761907" type="curve"/>
      <point x="344.5880952380952" y="-74.04523809523809" type="line"/>
      <point x="240.39999999999998" y="7.407142857142859"/>
      <point x="213.43333333333334" y="158.84761904761908"/>
      <point x="213.43333333333334" y="317.84761904761905" type="curve" smooth="yes"/>
      <point x="213.43333333333334" y="476.0"/>
      <point x="240.39999999999998" y="625.8928571428571"/>
      <point x="344.5880952380952" y="708.5928571428573" type="curve"/>
      <point x="344.5880952380952" y="773.3619047619048" type="line"/>
      <point x="133.14047619047616" y="682.7571428571429"/>
      <point x="49.68333333333334" y="529.8928571428572"/>
      <point x="49.68333333333334" y="317.84761904761905" type="curve" smooth="yes"/>
      <point x="49.68333333333334" y="104.95476190476191"/>
      <point x="133.14047619047616" y="-48.892857142857146"/>
    </contour>
  </outline>
</glyph>
<glyph name="parenright" format="2">
  <advance width="372.07142857142867"/>
  <unicode hex="0029"/>
  <outline>
    <contour>
      <point x="27.483333333333334" y="-140.19761904761907" type="line"/>
      <point x="239.24761904761905" y="-48.892857142857146"/>
      <point x="322.3880952380952" y="104.95476190476191"/>
      <point x="322.3880952380952" y="317.84761904761905" type="curve" smooth="yes"/>
      <point x="322.3880952380952" y="529.8928571428572"/>
      <point x="239.24761904761905" y="682.7571428571429"/>
      <point x="27.483333333333334" y="773.3619047619048" type="curve"/>
      <point x="27.483333333333334" y="708.5928571428573" type="line"/>
      <point x="131.12380952380954" y="625.8928571428571"/>
      <point x="158.63809523809525" y="476.0"/>
      <point x="158.63809523809525" y="317.84761904761905" type="curve" smooth="yes"/>
      <point x="158.63809523809525" y="158.84761904761908"/>
      <point x="131.12380952380954" y="7.407142857142859"/>
      <point x="27.483333333333334" y="-74.04523809523809" type="curve"/>
    </contour>
  </outline>
</glyph>
<glyph name="asterisk" format="2">
  <advance width="438.04761904761904"/>
  <unicode hex="002A"/>
  <outline>
    <contour>
      <point x="168.32857142857142" y="364.46904761904756" type="line"/>
      <point x="274.5714285714286" y="364.46904761904756" type="line"/>
      <point x="241.0333333333333" y="529.0619047619048" type="line"/>
      <point x="369.5095238095238" y="423.54761904761904" type="line"/>
      <point x="413.2238095238095" y="523.5428571428573" type="line"/>
      <point x="282.502380952381" y="562.5761904761904" type="line"/>
      <point x="413.2238095238095" y="600.9261904761903" type="line"/>
      <point x="369.5095238095238" y="701.9214285714286" type="line"/>
      <point x="241.0333333333333" y="596.2547619047618" type="line"/>
      <point x="275.41904761904766" y="760.0" type="line"/>
      <point x="168.32857142857142" y="760.0" type="line"/>
      <point x="200.18333333333334" y="594.4071428571428" type="line"/>
      <point x="71.52619047619046" y="703.9214285714286" type="line"/>
      <point x="28.676190476190477" y="601.9261904761903" type="line"/>
      <point x="159.71428571428572" y="562.5761904761904" type="line"/>
      <point x="28.676190476190477" y="522.5428571428573" type="line"/>
      <point x="71.52619047619046" y="422.54761904761904" type="line"/>
      <point x="199.18333333333334" y="530.9261904761905" type="line"/>
    </contour>
  </outline>
</glyph>
<glyph name="plus" format="2">
  <advance width="465.2"/>
  <unicode hex="002B"/>
  <outline>
    <contour>
      <point x="194.99285714285713" y="143.0" type="line"/>
      <point x="269.59047619047624" y="143.0" type="line"/>
      <point x="269.59047619047624" y="321.5928571428571" type="line"/>
      <point x="420.6333333333333" y="321.5928571428571" type="line"/>
      <point x="420.6333333333333" y="393.4071428571429" type="line"/>
      <point x="269.59047619047624" y="393.4071428571429" type="line"/>
      <point x="269.59047619047624" y="572.0" type="line"/>
      <point x="194.99285714285713" y="572.0" type="line"/>
      <point x="194.99285714285713" y="393.4071428571429" type="line"/>
      <point x="44.56666666666666" y="393.4071428571429" type="line"/>
      <point x="44.56666666666666" y="321.5928571428571" type="line"/>
      <point x="194.99285714285713" y="321.5928571428571" type="line"/>
    </contour>
  </outline>
</glyph>
<glyph name="comma" format="2">
  <advance width="275.3738095238096"/>
  <unicode hex="002C"/>
  <outline>
    <contour>
      <point x="45.99047619047619" y="-154.0" type="line"/>
      <point x="163.63809523809525" y="-120.01666666666667"/>
      <point x="207.6642857142857" y="-45.349999999999994"/>
      <point x="207.6642857142857" y="37.61666666666667" type="curve" smooth="yes"/>
      <point x="207.6642857142857" y="107.99523809523811"/>
      <point x="180.35" y="152.2095238095238"/>
      <point x="125.77619047619045" y="152.2095238095238" type="curve" smooth="yes"/>
      <point x="87.96666666666667" y="152.2095238095238"/>
      <point x="56.53571428571429" y="127.81428571428573"/>
      <point x="56.53571428571429" y="83.57619047619048" type="curve" smooth="yes"/>
      <point x="56.53571428571429" y="2.5928571428571416"/>
      <point x="119.86904761904762" y="11.407142857142857"/>
      <point x="119.86904761904762" y="-24.864285714285714" type="curve" smooth="yes"/>
      <point x="119.86904761904762" y="-61.27142857142857"/>
      <point x="93.6857142857143" y="-81.36666666666667"/>
      <point x="45.99047619047619" y="-101.66666666666667" type="curve"/>
    </contour>
  </outline>
</glyph>
<glyph name="hyphen" format="2">
  <advance width="272.4"/>
  <unicode hex="002D"/>
  <outline>
    <contour>
      <point x="22.2" y="218.24285714285716" type="line"/>
      <point x="250.51666666666665" y="218.24285714285716" type="line"/>
      <point x="250.51666666666665" y="326.75714285714287" type="line"/>
      <point x="22.2" y="326.75714285714287" type="line"/>
    </contour>
  </outline>
</glyph>
<glyph name="period" format="2">
  <advance width="275.3738095238096"/>
  <unicode hex="002E"/>
  <outline>
    <contour>
      <point x="137.4952380952381" y="-7.847619047619047" type="curve" smooth="yes"/>
      <point x="179.72857142857143" y="-7.847619047619047"/>
      <point x="216.97857142857146" y="11.53095238095238"/>
      <point x="216.97857142857146" y="72.18095238095239" type="curve" smooth="yes"/>
      <point x="216.97857142857146" y="132.81428571428575"/>
      <point x="179.72857142857143" y="152.2095238095238"/>
      <point x="137.4952380952381" y="152.2095238095238" type="curve" smooth="yes"/>
      <point x="93.09761904761905" y="152.2095238095238"/>
      <point x="58.395238095238085" y="132.81428571428575"/>
      <point x="58.395238095238085" y="72.18095238095239" type="curve" smooth="yes"/>
      <point x="58.395238095238085" y="11.53095238095238"/>
      <point x="93.09761904761905" y="-7.847619047619047"/>
    </contour>
  </outline>
</glyph>
<glyph name="slash" format="2">
  <advance width="252.81666666666666"/>
  <unicode hex="002F"/>
  <outline>
    <contour>
      <point x="0.0" y="-121.0" type="line"/>
      <point x="69.00952380952381" y="-121.0" type="line"/>
      <point x="252.81666666666666" y="760.0" type="line"/>
      <point x="186.67142857142858" y="760.0" type="line"/>
    </contour>
  </outline>
</glyph>
<glyph name="zero" format="2">
  <advance width="490.73333333333335"/>
  <unicode hex="0030"/>
  <outline>
    <contour>
      <point x="245.51666666666665" y="-10.0" type="curve" smooth="yes"/>
      <point x="405.56904761904764" y="-10.0"/>
      <point x="464.5476190476191" y="133.63333333333333"/>
      <point x="464.5476190476191" y="358.0" type="curve" smooth="yes"/>
      <point x="464.5476190476191" y="584.0666666666666"/>
      <point x="405.88571428571436" y="724.0"/>
      <point x="246.51666666666665" y="724.0" type="curve" smooth="yes"/>
      <point x="77.54761904761905" y="724.0"/>
      <point x="25.169047619047618" y="582.35"/>
      <point x="25.169047619047618" y="359.0" type="curve" smooth="yes"/>
      <point x="25.169047619047618" y="132.61666666666665"/>
      <point x="77.86428571428571" y="-10.0"/>
    </contour>
    <contour>
      <point x="245.51666666666665" y="55.49761904761905" type="curve" smooth="yes"/>
      <point x="188.54523809523812" y="55.49761904761905"/>
      <point x="180.94761904761904" y="166.93809523809526"/>
      <point x="180.94761904761904" y="358.0" type="curve" smooth="yes"/>
      <point x="180.94761904761904" y="549.0619047619049"/>
      <point x="188.54523809523812" y="658.5023809523809"/>
      <point x="246.51666666666665" y="658.5023809523809" type="curve" smooth="yes"/>
      <point x="301.6238095238095" y="658.5023809523809"/>
      <point x="309.23809523809524" y="549.0619047619049"/>
      <point x="309.23809523809524" y="358.0" type="curve" smooth="yes"/>
      <point x="309.23809523809524" y="166.93809523809526"/>
      <point x="301.6238095238095" y="55.49761904761905"/>
    </contour>
  </outline>
</glyph>
<glyph name="one" format="2">
  <advance width="490.73333333333335"/>
  <unicode hex="0031"/>
  <outline>
    <contour>
      <point x="72.83095238095237" y="0.0" type="line"/>
      <point x="452.6500000000001" y="0.0" type="line"/>
      <point x="452.6500000000001" y="54.19761904761904" type="line"/>
      <point x="395.0857142857143" y="54.19761904761904" type="line" smooth="yes"/>
      <point x="359.31190476190477" y="54.19761904761904"/>
      <point x="343.44523809523815" y="77.64047619047619"/>
      <point x="343.44523809523815" y="118.24285714285713" type="curve" smooth="yes"/>
      <point x="343.44523809523815" y="718.0" type="line"/>
      <point x="226.7952380952381" y="718.0" type="line"/>
      <point x="165.51190476190473" y="668.4833333333333" type="line" smooth="yes"/>
      <point x="106.4452380952381" y="620.5666666666667"/>
      <point x="62.226190476190474" y="603.2666666666667"/>
      <point x="27.44285714285714" y="593.2666666666667" type="curve"/>
      <point x="27.44285714285714" y="546.3571428571429"/>
      <point x="51.75" y="517.1023809523809"/>
      <point x="81.02857142857142" y="517.1023809523809" type="curve" smooth="yes"/>
      <point x="116.51190476190474" y="517.1023809523809"/>
      <point x="151.39523809523808" y="552.9857142857144"/>
      <point x="194.69523809523807" y="612.1857142857144" type="curve"/>
      <point x="194.69523809523807" y="118.24285714285713" type="line" smooth="yes"/>
      <point x="194.69523809523807" y="68.36904761904763"/>
      <point x="173.32619047619048" y="54.19761904761904"/>
      <point x="143.35476190476194" y="54.19761904761904" type="curve" smooth="yes"/>
      <point x="72.83095238095237" y="54.19761904761904" type="line"/>
    </contour>
  </outline>
</glyph>
<glyph name="two" format="2">
  <advance width="490.73333333333335"/>
  <unicode hex="0032"/>
  <outline>
    <contour>
      <point x="26.802380952380954" y="0.0" type="line"/>
      <point x="457.352380952381" y="0.0" type="line"/>
      <point x="461.65238095238095" y="214.46904761904764" type="line"/>
      <point x="402.66666666666663" y="214.46904761904764" type="line"/>
      <point x="394.10714285714283" y="181.40714285714284" type="line" smooth="yes"/>
      <point x="381.9428571428571" y="134.4857142857143"/>
      <point x="350.3380952380952" y="113.51428571428572"/>
      <point x="322.08809523809526" y="113.51428571428572" type="curve" smooth="yes"/>
      <point x="129.37619047619046" y="113.51428571428572" type="line"/>
      <point x="230.41666666666663" y="218.3595238095238" type="line" smooth="yes"/>
      <point x="375.8642857142857" y="357.354761904762"/>
      <point x="440.46904761904767" y="441.43809523809523"/>
      <point x="440.46904761904767" y="551.5547619047618" type="curve" smooth="yes"/>
      <point x="440.46904761904767" y="655.1023809523809"/>
      <point x="368.47380952380956" y="724.0"/>
      <point x="228.11428571428567" y="724.0" type="curve" smooth="yes"/>
      <point x="92.9452380952381" y="724.0"/>
      <point x="28.295238095238098" y="653.4357142857142"/>
      <point x="28.295238095238098" y="584.0285714285715" type="curve" smooth="yes"/>
      <point x="28.295238095238098" y="511.60476190476186"/>
      <point x="86.39761904761905" y="491.50714285714287"/>
      <point x="152.09047619047624" y="491.50714285714287" type="curve"/>
      <point x="152.09047619047624" y="609.7452380952382"/>
      <point x="176.99047619047622" y="661.802380952381"/>
      <point x="228.11428571428567" y="661.802380952381" type="curve" smooth="yes"/>
      <point x="262.4214285714286" y="661.802380952381"/>
      <point x="288.3738095238095" y="630.1071428571429"/>
      <point x="288.3738095238095" y="549.0738095238095" type="curve" smooth="yes"/>
      <point x="288.3738095238095" y="447.3095238095238"/>
      <point x="257.0571428571428" y="373.32380952380953"/>
      <point x="147.64523809523808" y="243.78809523809522" type="curve" smooth="yes"/>
      <point x="26.802380952380954" y="99.90476190476191" type="line"/>
    </contour>
  </outline>
</glyph>
<glyph name="three" format="2">
  <advance width="490.73333333333335"/>
  <unicode hex="0033"/>
  <outline>
    <contour>
      <point x="213.66666666666666" y="-10.0" type="curve" smooth="yes"/>
      <point x="345.0595238095238" y="-10.0"/>
      <point x="461.4214285714286" y="43.0"/>
      <point x="461.4214285714286" y="203.8142857142857" type="curve" smooth="yes"/>
      <point x="461.4214285714286" y="314.8595238095238"/>
      <point x="382.5642857142857" y="363.71190476190475"/>
      <point x="308.6761904761904" y="379.9833333333333" type="curve"/>
      <point x="382.10238095238094" y="409.93809523809523"/>
      <point x="439.2214285714286" y="468.72380952380956"/>
      <point x="439.2214285714286" y="558.7238095238093" type="curve" smooth="yes"/>
      <point x="439.2214285714286" y="664.452380952381"/>
      <point x="359.5476190476191" y="724.0"/>
      <point x="229.1095238095238" y="724.0" type="curve" smooth="yes"/>
      <point x="94.48809523809524" y="724.0"/>
      <point x="30.249999999999986" y="659.1142857142856"/>
      <point x="30.249999999999986" y="590.2380952380953" type="curve" smooth="yes"/>
      <point x="30.249999999999986" y="529.9214285714286"/>
      <point x="76.99285714285713" y="506.8642857142857"/>
      <point x="148.03571428571428" y="506.8642857142857" type="curve"/>
      <point x="148.03571428571428" y="585.5642857142857"/>
      <point x="167.10000000000002" y="661.802380952381"/>
      <point x="221.90000000000003" y="661.802380952381" type="curve" smooth="yes"/>
      <point x="260.87380952380954" y="661.802380952381"/>
      <point x="286.1428571428571" y="617.65"/>
      <point x="286.1428571428571" y="546.604761904762" type="curve" smooth="yes"/>
      <point x="286.1428571428571" y="459.24285714285713"/>
      <point x="262.2261904761905" y="401.1071428571429"/>
      <point x="187.20714285714286" y="401.1071428571429" type="curve"/>
      <point x="121.84285714285714" y="401.1071428571429" type="line"/>
      <point x="121.84285714285714" y="338.6095238095238" type="line"/>
      <point x="182.3309523809524" y="338.6095238095238" type="line" smooth="yes"/>
      <point x="265.252380952381" y="338.6095238095238"/>
      <point x="307.3428571428571" y="282.90952380952376"/>
      <point x="307.3428571428571" y="204.8142857142857" type="curve" smooth="yes"/>
      <point x="307.3428571428571" y="92.9547619047619"/>
      <point x="260.82142857142856" y="61.6047619047619"/>
      <point x="208.86428571428576" y="61.6047619047619" type="curve" smooth="yes"/>
      <point x="148.5" y="61.6047619047619"/>
      <point x="103.15714285714286" y="110.41190476190476"/>
      <point x="103.15714285714286" y="197.1690476190476" type="curve"/>
      <point x="59.1547619047619" y="197.1690476190476"/>
      <point x="19.645238095238092" y="170.15714285714284"/>
      <point x="19.645238095238092" y="117.95952380952382" type="curve" smooth="yes"/>
      <point x="19.645238095238092" y="45.830952380952375"/>
      <point x="73.58333333333334" y="-10.0"/>
    </contour>
  </outline>
</glyph>
<glyph name="four" format="2">
  <advance width="490.73333333333335"/>
  <unicode hex="0034"/>
  <outline>
    <contour>
      <point x="144.39523809523808" y="0.0" type="line"/>
      <point x="472.12380952380965" y="0.0" type="line"/>
      <point x="472.12380952380965" y="54.19761904761904" type="line"/>
      <point x="460.5238095238095" y="54.19761904761904" type="line" smooth="yes"/>
      <point x="421.1238095238095" y="54.19761904761904"/>
      <point x="388.64047619047614" y="63.19761904761904"/>
      <point x="388.64047619047614" y="126.19761904761906" type="curve" smooth="yes"/>
      <point x="388.64047619047614" y="185.34999999999997" type="line"/>
      <point x="471.7095238095238" y="185.34999999999997" type="line"/>
      <point x="471.7095238095238" y="252.0" type="line"/>
      <point x="388.64047619047614" y="252.0" type="line"/>
      <point x="388.64047619047614" y="714.0" type="line"/>
      <point x="245.93333333333334" y="714.0" type="line"/>
      <point x="10.34047619047619" y="247.65000000000003" type="line"/>
      <point x="10.34047619047619" y="185.34999999999997" type="line"/>
      <point x="241.16190476190476" y="185.34999999999997" type="line"/>
      <point x="241.16190476190476" y="126.19761904761906" type="line" smooth="yes"/>
      <point x="241.16190476190476" y="63.19761904761904"/>
      <point x="208.67857142857142" y="54.19761904761904"/>
      <point x="169.2785714285714" y="54.19761904761904" type="curve" smooth="yes"/>
      <point x="144.39523809523808" y="54.19761904761904" type="line"/>
    </contour>
    <contour>
      <point x="80.19285714285716" y="252.0" type="line"/>
      <point x="182.69761904761904" y="460.10238095238094" type="line" smooth="yes"/>
      <point x="200.91190476190474" y="499.25476190476195"/>
      <point x="232.45952380952377" y="568.2833333333333"/>
      <point x="247.3095238095238" y="610.8595238095238" type="curve"/>
      <point x="242.62619047619046" y="548.8595238095238"/>
      <point x="241.32619047619048" y="490.4"/>
      <point x="241.32619047619048" y="432.4" type="curve" smooth="yes"/>
      <point x="241.32619047619048" y="252.0" type="line"/>
    </contour>
  </outline>
</glyph>
<glyph name="five" format="2">
  <advance width="490.73333333333335"/>
  <unicode hex="0035"/>
  <outline>
    <contour>
      <point x="215.58095238095243" y="-10.0" type="curve" smooth="yes"/>
      <point x="309.07142857142856" y="-10.0"/>
      <point x="451.73095238095226" y="42.378571428571426"/>
      <point x="451.73095238095226" y="219.84761904761905" type="curve" smooth="yes"/>
      <point x="451.73095238095226" y="363.24285714285713"/>
      <point x="361.852380952381" y="435.1071428571429"/>
      <point x="215.48095238095237" y="435.1071428571429" type="curve" smooth="yes"/>
      <point x="187.95000000000002" y="435.1071428571429"/>
      <point x="141.46666666666667" y="427.95476190476194"/>
      <point x="122.08571428571426" y="419.09047619047624" type="curve"/>
      <point x="137.37380952380954" y="601.0333333333334" type="line"/>
      <point x="322.84999999999997" y="601.0333333333334" type="line" smooth="yes"/>
      <point x="347.5833333333333" y="601.0333333333334"/>
      <point x="352.7952380952381" y="587.35"/>
      <point x="360.19523809523815" y="560.6952380952381" type="curve" smooth="yes"/>
      <point x="368.97380952380956" y="528.4857142857144" type="line"/>
      <point x="425.4119047619048" y="528.4857142857144" type="line"/>
      <point x="421.42857142857144" y="713.847619047619" type="line"/>
      <point x="84.31904761904764" y="713.847619047619" type="line"/>
      <point x="53.65238095238096" y="369.9833333333333" type="line"/>
      <point x="91.90238095238095" y="350.1523809523809" type="line"/>
      <point x="120.90952380952382" y="358.4404761904762"/>
      <point x="148.84047619047618" y="368.6095238095238"/>
      <point x="185.44047619047618" y="368.6095238095238" type="curve" smooth="yes"/>
      <point x="258.1833333333334" y="368.6095238095238"/>
      <point x="298.5" y="319.6047619047619"/>
      <point x="298.5" y="219.84761904761905" type="curve" smooth="yes"/>
      <point x="298.5" y="96.07380952380952"/>
      <point x="250.0761904761905" y="59.16428571428571"/>
      <point x="198.04999999999998" y="59.16428571428571" type="curve" smooth="yes"/>
      <point x="126.48333333333332" y="59.16428571428571"/>
      <point x="106.07857142857142" y="127.84761904761908"/>
      <point x="106.07857142857142" y="185.8642857142857" type="curve"/>
      <point x="62.18809523809524" y="185.8642857142857"/>
      <point x="29.20952380952381" y="161.68333333333334"/>
      <point x="29.20952380952381" y="115.19761904761903" type="curve" smooth="yes"/>
      <point x="29.20952380952381" y="50.72857142857143"/>
      <point x="82.61904761904762" y="-10.0"/>
    </contour>
  </outline>
</glyph>
<glyph name="six" format="2">
  <advance width="490.73333333333335"/>
  <unicode hex="0036"/>
  <outline>
    <contour>
      <point x="257.1166666666667" y="-10.0" type="curve" smooth="yes"/>
      <point x="396.7880952380952" y="-10.0"/>
      <point x="466.37142857142857" y="88.0"/>
      <point x="466.37142857142857" y="230.84761904761905" type="curve" smooth="yes"/>
      <point x="466.37142857142857" y="361.24285714285713"/>
      <point x="396.7880952380952" y="438.24285714285713"/>
      <point x="291.05476190476196" y="438.24285714285713" type="curve" smooth="yes"/>
      <point x="230.04285714285714" y="438.24285714285713"/>
      <point x="199.4404761904762" y="418.29285714285714"/>
      <point x="175.9952380952381" y="400.76666666666665" type="curve"/>
      <point x="183.2095238095238" y="567.0428571428571"/>
      <point x="214.91666666666666" y="663.802380952381"/>
      <point x="275.23809523809524" y="663.802380952381" type="curve" smooth="yes"/>
      <point x="317.62380952380954" y="663.802380952381"/>
      <point x="337.48333333333323" y="603.6595238095238"/>
      <point x="337.48333333333323" y="533.4404761904763" type="curve"/>
      <point x="419.1190476190476" y="533.4404761904763"/>
      <point x="448.87857142857143" y="568.0285714285714"/>
      <point x="448.87857142857143" y="612.8928571428571" type="curve" smooth="yes"/>
      <point x="448.87857142857143" y="671.152380952381"/>
      <point x="400.9642857142857" y="724.0"/>
      <point x="280.6285714285714" y="724.0" type="curve" smooth="yes"/>
      <point x="115.00238095238096" y="724.0"/>
      <point x="32.96190476190476" y="577.0976190476191"/>
      <point x="32.96190476190476" y="332.1857142857143" type="curve" smooth="yes"/>
      <point x="32.96190476190476" y="97.0"/>
      <point x="121.67619047619048" y="-10.0"/>
    </contour>
    <contour>
      <point x="259.8" y="56.18095238095238" type="curve" smooth="yes"/>
      <point x="213.65000000000003" y="56.18095238095238"/>
      <point x="177.37857142857143" y="146.44523809523807"/>
      <point x="176.54285714285714" y="335.2928571428571" type="curve"/>
      <point x="193.06190476190477" y="352.54761904761904"/>
      <point x="220.0880952380952" y="373.9214285714285"/>
      <point x="252.45000000000002" y="373.9214285714285" type="curve" smooth="yes"/>
      <point x="294.4357142857143" y="373.9214285714285"/>
      <point x="322.247619047619" y="328.75714285714287"/>
      <point x="322.247619047619" y="220.84761904761905" type="curve" smooth="yes"/>
      <point x="322.247619047619" y="106.4857142857143"/>
      <point x="297.1190476190476" y="56.18095238095238"/>
    </contour>
  </outline>
</glyph>
<glyph name="seven" format="2">
  <advance width="490.73333333333335"/>
  <unicode hex="0037"/>
  <outline>
    <contour>
      <point x="130.37380952380954" y="0.0" type="line"/>
      <point x="221.29285714285714" y="0.0" type="line"/>
      <point x="457.0452380952381" y="662.6833333333333" type="line"/>
      <point x="457.0452380952381" y="713.847619047619" type="line"/>
      <point x="42.457142857142856" y="713.847619047619" type="line"/>
      <point x="37.457142857142856" y="500.3333333333333" type="line"/>
      <point x="97.75952380952381" y="500.3333333333333" type="line"/>
      <point x="104.15476190476191" y="549.3166666666667" type="line" smooth="yes"/>
      <point x="108.70238095238096" y="584.0333333333334"/>
      <point x="123.03809523809525" y="601.3333333333334"/>
      <point x="154.83809523809526" y="601.3333333333334" type="curve" smooth="yes"/>
      <point x="370.3619047619048" y="601.3333333333334" type="line"/>
    </contour>
  </outline>
</glyph>
<glyph name="eight" format="2">
  <advance width="490.73333333333335"/>
  <unicode hex="0038"/>
  <outline>
    <contour>
      <point x="240.23333333333335" y="-10.0" type="curve" smooth="yes"/>
      <point x="386.9571428571428" y="-10.0"/>
      <point x="470.6714285714286" y="67.41190476190478"/>
      <point x="470.6714285714286" y="185.08571428571432" type="curve" smooth="yes"/>
      <point x="470.6714285714286" y="282.1"/>
      <point x="430.8119047619048" y="334.18571428571425"/>
      <point x="330.80238095238093" y="388.66666666666663" type="curve"/>
      <point x="403.5333333333334" y="425.6166666666667"/>
      <point x="447.34047619047624" y="470.97142857142853"/>
      <point x="447.34047619047624" y="558.354761904762" type="curve" smooth="yes"/>
      <point x="447.34047619047624" y="651.1690476190477"/>
      <point x="381.6166666666667" y="724.0"/>
      <point x="250.91190476190474" y="724.0" type="curve" smooth="yes"/>
      <point x="99.32380952380953" y="724.0"/>
      <point x="40.261904761904766" y="641.5190476190475"/>
      <point x="40.261904761904766" y="542.6214285714286" type="curve" smooth="yes"/>
      <point x="40.261904761904766" y="454.25000000000006"/>
      <point x="84.01190476190476" y="403.8476190476191"/>
      <point x="153.41428571428574" y="361.62142857142857" type="curve"/>
      <point x="77.41190476190475" y="328.3880952380953"/>
      <point x="20.37857142857143" y="276.4904761904762"/>
      <point x="20.37857142857143" y="174.76904761904765" type="curve" smooth="yes"/>
      <point x="20.37857142857143" y="74.83095238095237"/>
      <point x="86.09761904761905" y="-10.0"/>
    </contour>
    <contour>
      <point x="244.21666666666667" y="50.24285714285715" type="curve" smooth="yes"/>
      <point x="192.31428571428572" y="50.24285714285715"/>
      <point x="153.07857142857148" y="94.50952380952383"/>
      <point x="153.07857142857148" y="181.7" type="curve" smooth="yes"/>
      <point x="153.07857142857148" y="248.15238095238095"/>
      <point x="174.4619047619048" y="293.9428571428571"/>
      <point x="208.28809523809528" y="325.14047619047614" type="curve"/>
      <point x="283.997619047619" y="279.4904761904762"/>
      <point x="324.85476190476186" y="232.4357142857143"/>
      <point x="324.85476190476186" y="166.81428571428572" type="curve" smooth="yes"/>
      <point x="324.85476190476186" y="93.35714285714285"/>
      <point x="292.18095238095236" y="50.24285714285715"/>
    </contour>
    <contour>
      <point x="270.29761904761904" y="420.7119047619048" type="curve"/>
      <point x="216.54761904761904" y="451.3619047619048"/>
      <point x="182.3452380952381" y="489.57619047619045"/>
      <point x="182.3452380952381" y="559.8976190476191" type="curve" smooth="yes"/>
      <point x="182.3452380952381" y="623.4904761904763"/>
      <point x="204.91428571428574" y="663.7857142857142"/>
      <point x="247.82142857142856" y="663.7857142857142" type="curve" smooth="yes"/>
      <point x="293.2595238095237" y="663.7857142857142"/>
      <point x="318.6190476190476" y="615.0666666666667"/>
      <point x="318.6190476190476" y="555.3214285714286" type="curve" smooth="yes"/>
      <point x="318.6190476190476" y="485.54761904761904"/>
      <point x="299.5547619047619" y="446.497619047619"/>
    </contour>
  </outline>
</glyph>
<glyph name="nine" format="2">
  <advance width="490.73333333333335"/>
  <unicode hex="0039"/>
  <outline>
    <contour>
      <point x="199.13333333333333" y="-10.152380952380952" type="curve"/>
      <point x="383.3809523809524" y="-10.152380952380952"/>
      <point x="457.77142857142854" y="159.6"/>
      <point x="457.77142857142854" y="388.0" type="curve"/>
      <point x="457.77142857142854" y="629.05"/>
      <point x="361.7690476190476" y="724.0"/>
      <point x="230.75238095238097" y="724.0" type="curve" smooth="yes"/>
      <point x="101.41904761904763" y="724.0"/>
      <point x="24.361904761904768" y="627.2595238095239"/>
      <point x="24.361904761904768" y="484.5928571428571" type="curve" smooth="yes"/>
      <point x="24.361904761904768" y="350.6095238095238"/>
      <point x="95.62857142857142" y="277.0333333333333"/>
      <point x="195.44761904761904" y="277.0333333333333" type="curve" smooth="yes"/>
      <point x="256.43095238095236" y="277.0333333333333"/>
      <point x="292.03571428571433" y="302.5404761904763"/>
      <point x="319.6142857142857" y="338.98333333333335" type="curve"/>
      <point x="313.3142857142857" y="151.9666666666667"/>
      <point x="275.94761904761907" y="54.35"/>
      <point x="206.0261904761905" y="54.35" type="curve" smooth="yes"/>
      <point x="144.45000000000002" y="54.35"/>
      <point x="121.09523809523812" y="106.1690476190476"/>
      <point x="103.64761904761905" y="168.63809523809525" type="curve"/>
      <point x="63.17380952380953" y="160.7738095238095"/>
      <point x="48.150000000000006" y="130.4809523809524"/>
      <point x="48.150000000000006" y="100.92142857142858" type="curve" smooth="yes"/>
      <point x="48.150000000000006" y="42.16428571428572"/>
      <point x="90.18095238095238" y="-10.152380952380952"/>
    </contour>
    <contour>
      <point x="242.4928571428571" y="347.8928571428571" type="curve" smooth="yes"/>
      <point x="193.45000000000002" y="347.8928571428571"/>
      <point x="167.6214285714286" y="400.502380952381"/>
      <point x="167.6214285714286" y="488.0" type="curve" smooth="yes"/>
      <point x="167.6214285714286" y="599.592857142857"/>
      <point x="193.5857142857143" y="656.6547619047619"/>
      <point x="239.0404761904762" y="656.6547619047619" type="curve" smooth="yes"/>
      <point x="288.7666666666667" y="656.6547619047619"/>
      <point x="318.3142857142857" y="587.3666666666667"/>
      <point x="319.45" y="403.7190476190476" type="curve"/>
      <point x="301.4047619047619" y="370.98095238095243"/>
      <point x="272.78809523809525" y="347.8928571428571"/>
    </contour>
  </outline>
</glyph>
<glyph name="colon" format="2">
  <advance width="272.8190476190477"/>
  <unicode hex="003A"/>
  <outline>
    <contour>
      <point x="135.8190476190476" y="382.8357142857143" type="curve" smooth="yes"/>
      <point x="177.66904761904763" y="382.8357142857143"/>
      <point x="214.91904761904763" y="402.53095238095233"/>
      <point x="214.91904761904763" y="462.8642857142857" type="curve" smooth="yes"/>
      <point x="214.91904761904763" y="523.8142857142857"/>
      <point x="177.66904761904763" y="542.8928571428572"/>
      <point x="135.8190476190476" y="542.8928571428572" type="curve" smooth="yes"/>
      <point x="91.42142857142858" y="542.8928571428572"/>
      <point x="57.03571428571428" y="523.8142857142857"/>
      <point x="57.03571428571428" y="462.8642857142857" type="curve" smooth="yes"/>
      <point x="57.03571428571428" y="402.53095238095233"/>
      <point x="91.42142857142858" y="382.8357142857143"/>
    </contour>
    <contour>
      <point x="135.8190476190476" y="-7.847619047619047" type="curve" smooth="yes"/>
      <point x="177.66904761904763" y="-7.847619047619047"/>
      <point x="214.91904761904763" y="11.53095238095238"/>
      <point x="214.91904761904763" y="72.18095238095239" type="curve" smooth="yes"/>
      <point x="214.91904761904763" y="132.81428571428575"/>
      <point x="177.66904761904763" y="152.2095238095238"/>
      <point x="135.8190476190476" y="152.2095238095238" type="curve" smooth="yes"/>
      <point x="91.42142857142858" y="152.2095238095238"/>
      <point x="57.03571428571428" y="132.81428571428575"/>
      <point x="57.03571428571428" y="72.18095238095239" type="curve" smooth="yes"/>
      <point x="57.03571428571428" y="11.53095238095238"/>
      <point x="91.42142857142858" y="-7.847619047619047"/>
    </contour>
  </outline>
</glyph>
<glyph name="semicolon" format="2">
  <advance width="272.8190476190477"/>
  <unicode hex="003B"/>
  <outline>
    <contour>
      <point x="49.326190476190476" y="-154.0" type="line"/>
      <point x="167.35714285714283" y="-120.01666666666667"/>
      <point x="211.38333333333335" y="-45.349999999999994"/>
      <point x="211.38333333333335" y="37.61666666666667" type="curve" smooth="yes"/>
      <point x="211.38333333333335" y="107.99523809523811"/>
      <point x="184.3857142857143" y="152.2095238095238"/>
      <point x="129.11190476190475" y="152.2095238095238" type="curve" smooth="yes"/>
      <point x="92.00238095238096" y="152.2095238095238"/>
      <point x="60.57142857142857" y="127.81428571428573"/>
      <point x="60.57142857142857" y="83.57619047619048" type="curve" smooth="yes"/>
      <point x="60.57142857142857" y="2.5928571428571416"/>
      <point x="123.9047619047619" y="11.407142857142857"/>
      <point x="123.9047619047619" y="-24.864285714285714" type="curve" smooth="yes"/>
      <point x="123.9047619047619" y="-62.68333333333334"/>
      <point x="97.72142857142856" y="-81.36666666666667"/>
      <point x="49.326190476190476" y="-101.66666666666667" type="curve"/>
    </contour>
    <contour>
      <point x="135.8190476190476" y="382.8357142857143" type="curve" smooth="yes"/>
      <point x="178.36904761904762" y="382.8357142857143"/>
      <point x="214.91904761904763" y="402.53095238095233"/>
      <point x="214.91904761904763" y="462.8642857142857" type="curve" smooth="yes"/>
      <point x="214.91904761904763" y="523.8142857142857"/>
      <point x="178.36904761904762" y="542.8928571428572"/>
      <point x="135.8190476190476" y="542.8928571428572" type="curve" smooth="yes"/>
      <point x="91.42142857142858" y="542.8928571428572"/>
      <point x="57.03571428571428" y="523.8142857142857"/>
      <point x="57.03571428571428" y="462.8642857142857" type="curve" smooth="yes"/>
      <point x="57.03571428571428" y="402.53095238095233"/>
      <point x="91.42142857142858" y="382.8357142857143"/>
    </contour>
  </outline>
</glyph>
<glyph name="less" format="2">
  <advance width="465.2"/>
  <unicode hex="003C"/>
  <outline>
    <contour>
      <point x="420.6333333333333" y="103.59285714285714" type="line"/>
      <point x="420.6333333333333" y="184.49047619047622" type="line"/>
      <point x="143.3595238095238" y="357.0" type="line"/>
      <point x="420.6333333333333" y="531.5095238095239" type="line"/>
      <point x="420.6333333333333" y="612.4071428571427" type="line"/>
      <point x="44.56666666666666" y="378.3952380952381" type="line"/>
      <point x="44.56666666666666" y="336.6047619047619" type="line"/>
    </contour>
  </outline>
</glyph>
<glyph name="equal" format="2">
  <advance width="465.2"/>
  <unicode hex="003D"/>
  <outline>
    <contour>
      <point x="42.01904761904762" y="412.37857142857143" type="line"/>
      <point x="423.34523809523813" y="412.37857142857143" type="line"/>
      <point x="423.34523809523813" y="483.8928571428571" type="line"/>
      <point x="42.01904761904762" y="483.8928571428571" type="line"/>
    </contour>
    <contour>
      <point x="42.01904761904762" y="230.1071428571429" type="line"/>
      <point x="423.34523809523813" y="230.1071428571429" type="line"/>
      <point x="423.34523809523813" y="301.62142857142857" type="line"/>
      <point x="42.01904761904762" y="301.62142857142857" type="line"/>
    </contour>
  </outline>
</glyph>
<glyph name="greater" format="2">
  <advance width="465.2"/>
  <unicode hex="003E"/>
  <outline>
    <contour>
      <point x="44.56666666666666" y="103.59285714285714" type="line"/>
      <point x="420.6333333333333" y="336.6047619047619" type="line"/>
      <point x="420.6333333333333" y="378.3952380952381" type="line"/>
      <point x="44.56666666666666" y="612.4071428571427" type="line"/>
      <point x="44.56666666666666" y="531.5095238095239" type="line"/>
      <point x="321.1404761904762" y="357.0" type="line"/>
      <point x="44.56666666666666" y="184.49047619047622" type="line"/>
    </contour>
  </outline>
</glyph>
<glyph name="question" format="2">
  <advance width="503.3119047619047"/>
  <unicode hex="003F"/>
  <outline>
    <contour>
      <point x="198.7452380952381" y="228.57619047619048" type="line"/>
      <point x="250.5285714285714" y="228.57619047619048" type="line"/>
      <point x="277.3928571428571" y="322.4571428571429" type="line"/>
      <point x="397.26190476190476" y="377.70000000000005"/>
      <point x="453.0357142857143" y="434.0166666666667"/>
      <point x="453.0357142857143" y="540.6214285714285" type="curve" smooth="yes"/>
      <point x="453.0357142857143" y="656.4690476190476"/>
      <point x="364.4976190476191" y="724.0"/>
      <point x="228.04761904761904" y="724.0" type="curve" smooth="yes"/>
      <point x="92.44523809523808" y="724.0"/>
      <point x="30.992857142857144" y="665.8309523809522"/>
      <point x="30.992857142857144" y="604.4523809523808" type="curve" smooth="yes"/>
      <point x="30.992857142857144" y="547.4476190476191"/>
      <point x="81.00714285714285" y="529.0857142857143"/>
      <point x="165.99761904761905" y="529.0857142857143" type="curve"/>
      <point x="165.99761904761905" y="612.2642857142858"/>
      <point x="186.4904761904762" y="662.802380952381"/>
      <point x="229.99761904761903" y="662.802380952381" type="curve" smooth="yes"/>
      <point x="269.4357142857142" y="662.802380952381"/>
      <point x="290.90238095238095" y="615.9833333333333"/>
      <point x="290.90238095238095" y="552.0738095238095" type="curve" smooth="yes"/>
      <point x="290.90238095238095" y="471.20476190476194"/>
      <point x="271.7166666666667" y="394.95476190476194"/>
      <point x="172.1976190476191" y="349.1190476190476" type="curve"/>
    </contour>
    <contour>
      <point x="222.74761904761908" y="-7.847619047619047" type="curve" smooth="yes"/>
      <point x="264.9809523809524" y="-7.847619047619047"/>
      <point x="301.8476190476191" y="11.53095238095238"/>
      <point x="301.8476190476191" y="72.18095238095239" type="curve" smooth="yes"/>
      <point x="301.8476190476191" y="132.81428571428575"/>
      <point x="264.9809523809524" y="152.2095238095238"/>
      <point x="222.74761904761908" y="152.2095238095238" type="curve" smooth="yes"/>
      <point x="178.35000000000002" y="152.2095238095238"/>
      <point x="143.64761904761903" y="132.81428571428575"/>
      <point x="143.64761904761903" y="72.18095238095239" type="curve" smooth="yes"/>
      <point x="143.64761904761903" y="11.53095238095238"/>
      <point x="178.35000000000002" y="-7.847619047619047"/>
    </contour>
  </outline>
</glyph>
<glyph name="bracketleft" format="2">
  <advance width="384.67142857142863"/>
  <unicode hex="005B"/>
  <outline>
    <contour>
      <point x="87.46666666666667" y="-128.0" type="line"/>
      <point x="352.18809523809523" y="-128.0" type="line"/>
      <point x="352.18809523809523" y="-73.80238095238094" type="line"/>
      <point x="314.78809523809525" y="-73.80238095238094" type="line" smooth="yes"/>
      <point x="275.00476190476195" y="-73.80238095238094"/>
      <point x="242.5214285714286" y="-64.80238095238094"/>
      <point x="242.5214285714286" y="-1.80238095238095" type="curve" smooth="yes"/>
      <point x="242.5214285714286" y="633.802380952381" type="line" smooth="yes"/>
      <point x="242.5214285714286" y="696.802380952381"/>
      <point x="275.00476190476195" y="705.802380952381"/>
      <point x="314.78809523809525" y="705.802380952381" type="curve" smooth="yes"/>
      <point x="352.18809523809523" y="705.802380952381" type="line"/>
      <point x="352.18809523809523" y="760.0" type="line"/>
      <point x="87.46666666666667" y="760.0" type="line"/>
    </contour>
  </outline>
</glyph>
<glyph name="bracketright" format="2">
  <advance width="384.67142857142863"/>
  <unicode hex="005D"/>
  <outline>
    <contour>
      <point x="32.483333333333334" y="-128.0" type="line"/>
      <point x="297.2047619047619" y="-128.0" type="line"/>
      <point x="297.2047619047619" y="760.0" type="line"/>
      <point x="32.483333333333334" y="760.0" type="line"/>
      <point x="32.483333333333334" y="705.802380952381" type="line"/>
      <point x="70.26666666666667" y="705.802380952381" type="line" smooth="yes"/>
      <point x="110.05" y="705.802380952381"/>
      <point x="142.15" y="696.802380952381"/>
      <point x="142.15" y="633.802380952381" type="curve" smooth="yes"/>
      <point x="142.15" y="-1.80238095238095" type="line" smooth="yes"/>
      <point x="142.15" y="-64.80238095238094"/>
      <point x="110.05" y="-73.80238095238094"/>
      <point x="70.26666666666667" y="-73.80238095238094" type="curve" smooth="yes"/>
      <point x="32.483333333333334" y="-73.80238095238094" type="line"/>
    </contour>
  </outline>
</glyph>
<glyph name="asciicircum" format="2">
  <advance width="465.2"/>
  <unicode hex="005E"/>
  <outline>
    <contour>
      <point x="25.85952380952381" y="261.75714285714287" type="line"/>
      <point x="98.05714285714286" y="261.75714285714287" type="line"/>
      <point x="231.1" y="602.5309523809524" type="line"/>
      <point x="365.5952380952381" y="261.75714285714287" type="line"/>
      <point x="438.1761904761904" y="261.75714285714287" type="line"/>
      <point x="251.94285714285712" y="714.0" type="line"/>
      <point x="211.25714285714287" y="714.0" type="line"/>
    </contour>
  </outline>
</glyph>
<glyph name="underscore" format="2">
  <advance width="402.25000000000006"/>
  <unicode hex="005F"/>
  <outline>
    <contour>
      <point x="-5.0" y="-142.0" type="line"/>
      <point x="406.55" y="-142.0" type="line"/>
      <point x="406.55" y="-83.0" type="line"/>
      <point x="-5.0" y="-83.0" type="line"/>
    </contour>
  </outline>
</glyph>
<glyph name="braceleft" format="2">
  <advance width="392.6928571428571"/>
  <unicode hex="007B"/>
  <outline>
    <contour>
      <point x="279.9595238095238" y="-124.6047619047619" type="curve" smooth="yes"/>
      <point x="374.5904761904762" y="-124.6047619047619" type="line"/>
      <point x="374.5904761904762" y="-70.0904761904762" type="line"/>
      <point x="336.7238095238095" y="-70.0904761904762" type="line" smooth="yes"/>
      <point x="287.752380952381" y="-70.0904761904762"/>
      <point x="278.3714285714286" y="-35.80238095238096"/>
      <point x="278.3714285714286" y="26.407142857142862" type="curve" smooth="yes"/>
      <point x="278.3714285714286" y="197.24285714285716" type="line" smooth="yes"/>
      <point x="278.3714285714286" y="257.1523809523809"/>
      <point x="249.43571428571428" y="295.197619047619"/>
      <point x="182.852380952381" y="315.1523809523809" type="curve"/>
      <point x="182.852380952381" y="324.1071428571429" type="line"/>
      <point x="251.53095238095233" y="342.19761904761907"/>
      <point x="278.3714285714286" y="380.24285714285713"/>
      <point x="278.3714285714286" y="440.15238095238095" type="curve" smooth="yes"/>
      <point x="278.3714285714286" y="610.152380952381" type="line" smooth="yes"/>
      <point x="278.3714285714286" y="672.1976190476191"/>
      <point x="287.752380952381" y="706.35"/>
      <point x="336.7238095238095" y="706.35" type="curve" smooth="yes"/>
      <point x="374.5904761904762" y="706.35" type="line"/>
      <point x="374.5904761904762" y="760.0" type="line"/>
      <point x="279.9595238095238" y="760.0" type="line" smooth="yes"/>
      <point x="174.20714285714286" y="760.0"/>
      <point x="119.62142857142855" y="707.152380952381"/>
      <point x="119.62142857142855" y="613.604761904762" type="curve" smooth="yes"/>
      <point x="119.62142857142855" y="442.15238095238095" type="line" smooth="yes"/>
      <point x="119.62142857142855" y="368.1071428571429"/>
      <point x="75.23809523809524" y="352.19761904761907"/>
      <point x="18.10238095238095" y="350.19761904761907" type="curve"/>
      <point x="18.10238095238095" y="287.197619047619" type="line"/>
      <point x="75.23809523809524" y="284.197619047619"/>
      <point x="119.62142857142855" y="270.1523809523809"/>
      <point x="119.62142857142855" y="194.24285714285716" type="curve" smooth="yes"/>
      <point x="119.62142857142855" y="23.954761904761902" type="line" smooth="yes"/>
      <point x="119.62142857142855" y="-67.75714285714287"/>
      <point x="174.20714285714286" y="-124.6047619047619"/>
    </contour>
  </outline>
</glyph>
<glyph name="bar" format="2">
  <advance width="490.73333333333335"/>
  <unicode hex="007C"/>
  <outline>
    <contour>
      <point x="210.9095238095238" y="-240.0" type="line"/>
      <point x="279.37142857142857" y="-240.0" type="line"/>
      <point x="279.37142857142857" y="760.0" type="line"/>
      <point x="210.9095238095238" y="760.0" type="line"/>
    </contour>
  </outline>
</glyph>
<glyph name="braceright" format="2">
  <advance width="392.6928571428571"/>
  <unicode hex="007D"/>
  <outline>
    <contour>
      <point x="18.10238095238095" y="-124.6047619047619" type="line"/>
      <point x="112.56904761904761" y="-124.6047619047619" type="line" smooth="yes"/>
      <point x="218.86904761904765" y="-124.6047619047619"/>
      <point x="273.0714285714286" y="-67.75714285714287"/>
      <point x="273.0714285714286" y="23.954761904761902" type="curve" smooth="yes"/>
      <point x="273.0714285714286" y="194.24285714285716" type="line" smooth="yes"/>
      <point x="273.0714285714286" y="270.1523809523809"/>
      <point x="318.4714285714286" y="284.197619047619"/>
      <point x="374.5904761904762" y="287.197619047619" type="curve"/>
      <point x="374.5904761904762" y="350.19761904761907" type="line"/>
      <point x="318.4714285714286" y="352.19761904761907"/>
      <point x="273.0714285714286" y="368.1071428571429"/>
      <point x="273.0714285714286" y="442.15238095238095" type="curve" smooth="yes"/>
      <point x="273.0714285714286" y="613.604761904762" type="line" smooth="yes"/>
      <point x="273.0714285714286" y="707.152380952381"/>
      <point x="218.86904761904765" y="760.0"/>
      <point x="112.56904761904761" y="760.0" type="curve" smooth="yes"/>
      <point x="18.10238095238095" y="760.0" type="line"/>
      <point x="18.10238095238095" y="706.35" type="line"/>
      <point x="56.35238095238095" y="706.35" type="line" smooth="yes"/>
      <point x="104.94047619047619" y="706.35"/>
      <point x="114.32142857142856" y="672.1976190476191"/>
      <point x="114.32142857142856" y="610.152380952381" type="curve" smooth="yes"/>
      <point x="114.32142857142856" y="440.15238095238095" type="line" smooth="yes"/>
      <point x="114.32142857142856" y="380.24285714285713"/>
      <point x="141.54523809523812" y="342.19761904761907"/>
      <point x="210.54047619047617" y="324.1071428571429" type="curve"/>
      <point x="210.54047619047617" y="315.1523809523809" type="line"/>
      <point x="143.25714285714287" y="295.197619047619"/>
      <point x="114.32142857142856" y="257.1523809523809"/>
      <point x="114.32142857142856" y="197.24285714285716" type="curve" smooth="yes"/>
      <point x="114.32142857142856" y="26.407142857142862" type="line" smooth="yes"/>
      <point x="114.32142857142856" y="-35.80238095238096"/>
      <point x="104.94047619047619" y="-70.0904761904762"/>
      <point x="56.35238095238095" y="-70.0904761904762" type="curve" smooth="yes"/>
      <point x="18.10238095238095" y="-70.0904761904762" type="line"/>
    </contour>
  </outline>
</glyph>
<glyph name="asciitilde" format="2">
  <advance width="465.2"/>
  <unicode hex="007E"/>
  <outline>
    <contour>
      <point x="22.66428571428571" y="261.04523809523806" type="curve"/>
      <point x="94.45714285714286" y="261.04523809523806" type="line"/>
      <point x="95.54285714285714" y="344.65000000000003"/>
      <point x="112.59047619047621" y="377.67857142857144"/>
      <point x="144.44047619047615" y="377.67857142857144" type="curve" smooth="yes"/>
      <point x="164.0142857142857" y="377.67857142857144"/>
      <point x="175.6761904761905" y="364.8619047619048"/>
      <point x="212.0285714285714" y="326.20952380952383" type="curve" smooth="yes"/>
      <point x="262.1047619047619" y="272.8285714285714"/>
      <point x="288.60238095238094" y="261.04523809523806"/>
      <point x="324.5285714285715" y="261.04523809523806" type="curve" smooth="yes"/>
      <point x="414.67380952380955" y="261.04523809523806"/>
      <point x="441.58333333333337" y="344.68571428571425"/>
      <point x="443.2523809523809" y="451.95476190476194" type="curve"/>
      <point x="370.6785714285714" y="451.95476190476194" type="line"/>
      <point x="369.6380952380953" y="367.8380952380952"/>
      <point x="354.1928571428571" y="335.6380952380952"/>
      <point x="323.56904761904764" y="335.6380952380952" type="curve" smooth="yes"/>
      <point x="302.92380952380955" y="335.6380952380952"/>
      <point x="291.1333333333333" y="351.13571428571436"/>
      <point x="257.9428571428572" y="384.4071428571429" type="curve" smooth="yes"/>
      <point x="207.41190476190476" y="434.6380952380952"/>
      <point x="182.4785714285714" y="451.95476190476194"/>
      <point x="142.83571428571426" y="451.95476190476194" type="curve" smooth="yes"/>
      <point x="52.09761904761905" y="451.95476190476194"/>
      <point x="23.29761904761904" y="365.60238095238094"/>
    </contour>
  </outline>
</glyph>
<glyph name="twosuperior" format="2">
  <advance width="350.8833333333333"/>
  <unicode hex="00B2"/>
  <outline>
    <contour>
      <point x="23.366666666666667" y="387.0" type="line"/>
      <point x="320.67857142857144" y="387.0" type="line"/>
      <point x="324.5261904761905" y="533.7619047619048" type="line"/>
      <point x="292.28095238095244" y="533.7619047619048" type="line"/>
      <point x="287.11666666666673" y="505.5571428571429" type="line"/>
      <point x="283.66428571428577" y="486.56904761904764"/>
      <point x="273.9690476190476" y="473.6095238095238"/>
      <point x="251.0452380952381" y="473.6095238095238" type="curve"/>
      <point x="96.42857142857143" y="473.6095238095238" type="line"/>
      <point x="153.3595238095238" y="518.6357142857142" type="line"/>
      <point x="281.2952380952381" y="604.5833333333334"/>
      <point x="316.96428571428567" y="641.0023809523809"/>
      <point x="316.96428571428567" y="708.0976190476191" type="curve" smooth="yes"/>
      <point x="316.96428571428567" y="775.6785714285713"/>
      <point x="276.247619047619" y="825.0"/>
      <point x="171.50714285714284" y="825.0" type="curve" smooth="yes"/>
      <point x="73.18571428571428" y="825.0"/>
      <point x="26.97857142857143" y="784.8309523809523"/>
      <point x="26.97857142857143" y="736.1190476190476" type="curve" smooth="yes"/>
      <point x="26.97857142857143" y="699.9428571428573"/>
      <point x="52.25952380952381" y="684.1238095238095"/>
      <point x="113.29285714285713" y="684.1238095238095" type="curve"/>
      <point x="113.29285714285713" y="734.1904761904763"/>
      <point x="119.62857142857143" y="775.1809523809522"/>
      <point x="160.89285714285714" y="775.1809523809522" type="curve" smooth="yes"/>
      <point x="189.51904761904763" y="775.1809523809522"/>
      <point x="204.19285714285712" y="750.4238095238096"/>
      <point x="204.19285714285712" y="710.9833333333333" type="curve" smooth="yes"/>
      <point x="204.19285714285712" y="652.7690476190477"/>
      <point x="174.93333333333334" y="614.3428571428572"/>
      <point x="112.81904761904761" y="554.1642857142857" type="curve" smooth="yes"/>
      <point x="23.366666666666667" y="466.28809523809525" type="line"/>
    </contour>
  </outline>
</glyph>
<glyph name="threesuperior" format="2">
  <advance width="350.8833333333333"/>
  <unicode hex="00B3"/>
  <outline>
    <contour>
      <point x="153.57380952380953" y="380.0" type="curve" smooth="yes"/>
      <point x="263.4404761904762" y="380.0"/>
      <point x="327.3" y="427.93571428571425"/>
      <point x="327.3" y="509.9833333333333" type="curve" smooth="yes"/>
      <point x="327.3" y="576.247619047619"/>
      <point x="278.0428571428572" y="602.8642857142858"/>
      <point x="224.77142857142857" y="612.0" type="curve"/>
      <point x="224.77142857142857" y="615.9833333333333" type="line"/>
      <point x="272.8952380952381" y="630.4071428571428"/>
      <point x="312.40000000000003" y="663.8595238095238"/>
      <point x="312.40000000000003" y="722.5595238095239" type="curve" smooth="yes"/>
      <point x="312.40000000000003" y="784.5595238095239"/>
      <point x="269.2357142857143" y="824.0"/>
      <point x="170.05000000000004" y="824.0" type="curve" smooth="yes"/>
      <point x="72.29285714285714" y="824.0"/>
      <point x="29.938095238095237" y="784.395238095238"/>
      <point x="29.938095238095237" y="736.8809523809524" type="curve" smooth="yes"/>
      <point x="29.938095238095237" y="702.8976190476191"/>
      <point x="58.335714285714275" y="690.8928571428571"/>
      <point x="110.81190476190476" y="690.8928571428571" type="curve"/>
      <point x="110.81190476190476" y="738.9261904761904"/>
      <point x="116.46428571428572" y="776.6214285714285"/>
      <point x="156.0119047619048" y="776.6214285714285" type="curve" smooth="yes"/>
      <point x="183.77380952380952" y="776.6214285714285"/>
      <point x="199.08095238095234" y="754.4857142857143"/>
      <point x="199.08095238095234" y="715.1523809523809" type="curve" smooth="yes"/>
      <point x="199.08095238095234" y="664.8642857142858"/>
      <point x="177.6642857142857" y="634.107142857143"/>
      <point x="132.31428571428572" y="634.107142857143" type="curve" smooth="yes"/>
      <point x="100.37380952380951" y="634.107142857143" type="line"/>
      <point x="100.37380952380951" y="583.3166666666666" type="line"/>
      <point x="131.99761904761908" y="583.3166666666666" type="line" smooth="yes"/>
      <point x="190.62142857142854" y="583.3166666666666"/>
      <point x="210.76666666666668" y="555.1642857142856"/>
      <point x="210.76666666666668" y="512.5309523809524" type="curve" smooth="yes"/>
      <point x="210.76666666666668" y="454.07380952380953"/>
      <point x="181.81904761904758" y="433.7738095238095"/>
      <point x="144.82380952380956" y="433.7738095238095" type="curve" smooth="yes"/>
      <point x="102.82857142857144" y="433.7738095238095"/>
      <point x="82.85952380952382" y="467.9714285714286"/>
      <point x="82.85952380952382" y="517.8523809523809" type="curve"/>
      <point x="38.892857142857146" y="517.8523809523809"/>
      <point x="16.807142857142857" y="499.6428571428572"/>
      <point x="16.807142857142857" y="467.42857142857144" type="curve" smooth="yes"/>
      <point x="16.807142857142857" y="418.42857142857144"/>
      <point x="58.60238095238095" y="380.0"/>
    </contour>
  </outline>
</glyph>
<glyph name="multiply" format="2">
  <advance width="465.2"/>
  <unicode hex="00D7"/>
  <outline>
    <contour>
      <point x="104.96666666666665" y="161.66666666666669" type="line"/>
      <point x="232.03333333333333" y="305.48095238095243" type="line"/>
      <point x="358.0" y="163.45" type="line"/>
      <point x="410.202380952381" y="210.4357142857143" type="line"/>
      <point x="279.3357142857143" y="359.0833333333333" type="line"/>
      <point x="410.202380952381" y="507.0309523809524" type="line"/>
      <point x="357.00000000000006" y="553.9333333333333" type="line"/>
      <point x="232.03333333333333" y="412.76666666666665" type="line"/>
      <point x="105.66666666666666" y="555.4166666666665" type="line"/>
      <point x="52.300000000000004" y="508.8142857142857" type="line"/>
      <point x="184.26666666666665" y="359.3833333333333" type="line"/>
      <point x="52.300000000000004" y="208.95238095238093" type="line"/>
    </contour>
  </outline>
</glyph>
<glyph name="divide" format="2">
  <advance width="465.2"/>
  <unicode hex="00F7"/>
  <outline>
    <contour>
      <point x="44.56666666666666" y="321.5928571428571" type="line"/>
      <point x="420.6333333333333" y="321.5928571428571" type="line"/>
      <point x="420.6333333333333" y="393.4071428571429" type="line"/>
      <point x="44.56666666666666" y="393.4071428571429" type="line"/>
    </contour>
    <contour>
      <point x="233.1" y="106.59285714285714" type="curve" smooth="yes"/>
      <point x="261.6952380952381" y="106.59285714285714"/>
      <point x="285.14285714285717" y="122.75714285714287"/>
      <point x="285.14285714285717" y="168.0" type="curve" smooth="yes"/>
      <point x="285.14285714285717" y="214.24285714285716"/>
      <point x="261.6952380952381" y="229.40714285714287"/>
      <point x="233.1" y="229.40714285714287" type="curve" smooth="yes"/>
      <point x="202.25714285714287" y="229.40714285714287"/>
      <point x="180.19285714285715" y="214.24285714285716"/>
      <point x="180.19285714285715" y="168.0" type="curve" smooth="yes"/>
      <point x="180.19285714285715" y="122.75714285714287"/>
      <point x="202.25714285714287" y="106.59285714285714"/>
    </contour>
    <contour>
      <point x="233.1" y="485.5928571428571" type="curve" smooth="yes"/>
      <point x="261.6952380952381" y="485.5928571428571"/>
      <point x="285.14285714285717" y="501.75714285714287"/>
      <point x="285.14285714285717" y="547.0" type="curve" smooth="yes"/>
      <point x="285.14285714285717" y="593.2428571428571"/>
      <point x="261.6952380952381" y="608.4071428571427"/>
      <point x="233.1" y="608.4071428571427" type="curve" smooth="yes"/>
      <point x="202.25714285714287" y="608.4071428571427"/>
      <point x="180.19285714285715" y="593.2428571428571"/>
      <point x="180.19285714285715" y="547.0" type="curve" smooth="yes"/>
      <point x="180.19285714285715" y="501.75714285714287"/>
      <point x="202.25714285714287" y="485.5928571428571"/>
    </contour>
  </outline>
</glyph>
<glyph name="udatta-deva" format="2">
  <unicode hex="0951"/>
  <anchor x="0.0" y="572.0666666666666" name="_vedic"/>
  <outline>
    <contour>
      <point x="-35.519047619047626" y="948.754761904762" type="line"/>
      <point x="35.519047619047626" y="948.754761904762" type="line"/>
      <point x="35.519047619047626" y="1153.7476190476189" type="line"/>
      <point x="-35.519047619047626" y="1153.7476190476189" type="line"/>
    </contour>
  </outline>
</glyph>
<glyph name="anudatta-deva" format="2">
  <unicode hex="0952"/>
  <anchor x="0.0" y="0.0" name="_bottom"/>
  <outline>
    <contour>
      <point x="-198.1833333333333" y="-569.2761904761905" type="line"/>
      <point x="198.1833333333333" y="-569.2761904761905" type="line"/>
      <point x="198.1833333333333" y="-477.1952380952381" type="line"/>
      <point x="-198.1833333333333" y="-477.1952380952381" type="line"/>
    </contour>
  </outline>
</glyph>
<glyph name="danda-deva" format="2">
  <advance width="311.15000000000003"/>
  <unicode hex="0964"/>
  <outline>
    <contour>
      <point x="69.77380952380952" y="0.0" type="line"/>
      <point x="241.4428571428572" y="0.0" type="line"/>
      <point x="241.4428571428572" y="572.0666666666666" type="line"/>
      <point x="69.77380952380952" y="572.0666666666666" type="line"/>
    </contour>
  </outline>
</glyph>
<glyph name="dbldanda-deva" format="2">
  <advance width="577.2619047619049"/>
  <unicode hex="0965"/>
  <outline>
    <contour>
      <point x="336.20238095238096" y="0.0" type="line"/>
      <point x="507.87142857142857" y="0.0" type="line"/>
      <point x="507.87142857142857" y="572.0666666666666" type="line"/>
      <point x="336.20238095238096" y="572.0666666666666" type="line"/>
    </contour>
    <contour>
      <point x="69.77380952380952" y="0.0" type="line"/>
      <point x="241.4428571428572" y="0.0" type="line"/>
      <point x="241.4428571428572" y="572.0666666666666" type="line"/>
      <point x="69.77380952380952" y="572.0666666666666" type="line"/>
    </contour>
  </outline>
</glyph>
<glyph name="anusvara-tamil" format="2">
  <unicode hex="0B82"/>
  <note>
uni0B82
</note>
  <anchor x="0.0" y="572.0666666666666" name="_top"/>
  <outline>
    <contour>
      <point x="0.0" y="625.3809523809524" type="curve" smooth="yes"/>
      <point x="77.45238095238096" y="625.3809523809524"/>
      <point x="139.74047619047622" y="684.9"/>
      <point x="139.74047619047622" y="764.402380952381" type="curve" smooth="yes"/>
      <point x="139.74047619047622" y="843.6857142857143"/>
      <point x="77.45238095238096" y="902.3404761904762"/>
      <point x="0.0" y="902.3404761904762" type="curve" smooth="yes"/>
      <point x="-77.45238095238096" y="902.3404761904762"/>
      <point x="-139.74047619047622" y="843.6857142857143"/>
      <point x="-139.74047619047622" y="764.402380952381" type="curve" smooth="yes"/>
      <point x="-139.74047619047622" y="684.9"/>
      <point x="-77.45238095238096" y="625.3809523809524"/>
    </contour>
    <contour>
      <point x="0.0" y="705.202380952381" type="curve" smooth="yes"/>
      <point x="-30.883333333333333" y="705.202380952381"/>
      <point x="-57.69761904761905" y="731.152380952381"/>
      <point x="-57.69761904761905" y="764.0190476190477" type="curve" smooth="yes"/>
      <point x="-57.69761904761905" y="796.5857142857143"/>
      <point x="-30.883333333333333" y="822.5357142857143"/>
      <point x="0.0" y="822.5357142857143" type="curve" smooth="yes"/>
      <point x="30.883333333333333" y="822.5357142857143"/>
      <point x="57.69761904761905" y="796.5857142857143"/>
      <point x="57.69761904761905" y="764.0190476190477" type="curve" smooth="yes"/>
      <point x="57.69761904761905" y="731.152380952381"/>
      <point x="30.883333333333333" y="705.202380952381"/>
    </contour>
  </outline>
</glyph>
<glyph name="visarga-tamil" format="2">
  <advance width="796.0952380952382"/>
  <unicode hex="0B83"/>
  <note>
uni0B83
</note>
  <outline>
    <contour>
      <point x="590.1166666666667" y="-4.050000000000001" type="curve" smooth="yes"/>
      <point x="689.1333333333333" y="-4.050000000000001"/>
      <point x="753.4690476190476" y="65.05238095238094"/>
      <point x="753.4690476190476" y="186.05714285714282" type="curve" smooth="yes"/>
      <point x="753.4690476190476" y="307.12857142857143"/>
      <point x="688.5857142857144" y="375.54761904761904"/>
      <point x="592.8857142857144" y="375.54761904761904" type="curve" smooth="yes"/>
      <point x="492.8666666666666" y="375.54761904761904"/>
      <point x="435.2738095238095" y="297.5190476190476"/>
      <point x="435.2738095238095" y="182.4238095238095" type="curve" smooth="yes"/>
      <point x="435.2738095238095" y="72.05714285714286"/>
      <point x="489.3976190476191" y="-4.050000000000001"/>
    </contour>
    <contour>
      <point x="198.20952380952377" y="-4.050000000000001" type="curve" smooth="yes"/>
      <point x="297.0071428571429" y="-4.050000000000001"/>
      <point x="360.72619047619054" y="65.05238095238094"/>
      <point x="360.72619047619054" y="186.05714285714282" type="curve" smooth="yes"/>
      <point x="360.72619047619054" y="307.12857142857143"/>
      <point x="295.97857142857146" y="375.54761904761904"/>
      <point x="200.82619047619048" y="375.54761904761904" type="curve" smooth="yes"/>
      <point x="100.28809523809524" y="375.54761904761904"/>
      <point x="43.078571428571436" y="297.5190476190476"/>
      <point x="43.078571428571436" y="182.4238095238095" type="curve" smooth="yes"/>
      <point x="43.078571428571436" y="72.05714285714286"/>
      <point x="96.65476190476191" y="-4.050000000000001"/>
    </contour>
    <contour>
      <point x="398.18809523809523" y="434.91190476190474" type="curve" smooth="yes"/>
      <point x="496.82142857142867" y="434.91190476190474"/>
      <point x="561.0214285714285" y="504.55714285714294"/>
      <point x="561.0214285714285" y="624.8833333333334" type="curve" smooth="yes"/>
      <point x="561.0214285714285" y="746.3380952380952"/>
      <point x="496.2738095238097" y="814.3738095238095"/>
      <point x="400.5738095238095" y="814.3738095238095" type="curve" smooth="yes"/>
      <point x="300.55476190476196" y="814.3738095238095"/>
      <point x="243.2095238095238" y="736.5095238095238"/>
      <point x="243.2095238095238" y="621.5666666666667" type="curve" smooth="yes"/>
      <point x="243.2095238095238" y="511.5833333333333"/>
      <point x="297.08571428571435" y="434.91190476190474"/>
    </contour>
    <contour>
      <point x="174.9738095238095" y="67.6142857142857" type="curve" smooth="yes"/>
      <point x="129.52142857142857" y="67.6142857142857"/>
      <point x="108.75476190476189" y="113.96190476190476"/>
      <point x="108.75476190476189" y="186.05714285714282" type="curve" smooth="yes"/>
      <point x="108.75476190476189" y="258.04047619047617"/>
      <point x="130.7142857142857" y="303.8833333333333"/>
      <point x="176.37380952380954" y="303.8833333333333" type="curve" smooth="yes"/>
      <point x="218.39761904761906" y="303.8833333333333"/>
      <point x="239.56190476190477" y="264.5285714285714"/>
      <point x="239.56190476190477" y="186.05714285714282" type="curve" smooth="yes"/>
      <point x="239.56190476190477" y="107.25476190476189"/>
      <point x="217.02857142857147" y="67.6142857142857"/>
    </contour>
    <contour>
      <point x="374.85714285714283" y="506.9595238095238" type="curve" smooth="yes"/>
      <point x="329.81666666666666" y="506.9595238095238"/>
      <point x="309.0214285714286" y="553.2690476190477"/>
      <point x="309.0214285714286" y="624.8833333333334" type="curve" smooth="yes"/>
      <point x="309.0214285714286" y="696.8666666666666"/>
      <point x="330.52857142857147" y="743.0928571428572"/>
      <point x="375.94047619047615" y="743.0928571428572" type="curve" smooth="yes"/>
      <point x="418.2809523809524" y="743.0928571428572"/>
      <point x="439.6928571428571" y="703.354761904762"/>
      <point x="439.6928571428571" y="624.8833333333334" type="curve" smooth="yes"/>
      <point x="439.6928571428571" y="546.0809523809523"/>
      <point x="416.5952380952381" y="506.9595238095238"/>
    </contour>
    <contour>
      <point x="567.1690476190477" y="67.6142857142857" type="curve" smooth="yes"/>
      <point x="521.8809523809524" y="67.6142857142857"/>
      <point x="501.01666666666677" y="113.96190476190476"/>
      <point x="501.01666666666677" y="186.05714285714282" type="curve" smooth="yes"/>
      <point x="501.01666666666677" y="258.04047619047617"/>
      <point x="522.5928571428572" y="303.8833333333333"/>
      <point x="568.252380952381" y="303.8833333333333" type="curve" smooth="yes"/>
      <point x="610.5928571428572" y="303.8833333333333"/>
      <point x="631.6214285714285" y="264.5285714285714"/>
      <point x="631.6214285714285" y="186.05714285714282" type="curve" smooth="yes"/>
      <point x="631.6214285714285" y="107.25476190476189"/>
      <point x="608.9071428571427" y="67.6142857142857"/>
    </contour>
  </outline>
</glyph>
<glyph name="a-tamil" format="2">
  <advance width="1223.7714285714287"/>
  <unicode hex="0B85"/>
  <note>
uni0B85
</note>
  <anchor x="589.8595238095238" y="0.0" name="bottom"/>
  <anchor x="400.2690476190476" y="-156.00476190476195" name="nukta"/>
  <anchor x="590.6214285714286" y="572.0666666666666" name="top"/>
  <anchor x="590.9380952380953" y="572.0666666666666" name="vedic"/>
  <outline>
    <contour>
      <point x="987.1309523809523" y="-223.64285714285717" type="line"/>
      <point x="1157.6285714285716" y="-223.64285714285717" type="line"/>
      <point x="1157.6285714285716" y="572.0666666666666" type="line"/>
      <point x="987.1309523809523" y="572.0666666666666" type="line"/>
      <point x="987.1309523809523" y="158.8238095238095" type="line"/>
      <point x="111.41904761904762" y="158.8238095238095" type="line" smooth="yes"/>
      <point x="58.911904761904765" y="158.8238095238095"/>
      <point x="24.53333333333334" y="126.10476190476189"/>
      <point x="24.53333333333334" y="76.69999999999999" type="curve" smooth="yes"/>
      <point x="24.53333333333334" y="-50.326190476190476"/>
      <point x="187.54285714285714" y="-156.00476190476195"/>
      <point x="400.2690476190476" y="-156.00476190476195" type="curve" smooth="yes"/>
      <point x="686.9047619047618" y="-156.00476190476195"/>
      <point x="892.109523809524" y="-15.983333333333338"/>
      <point x="892.109523809524" y="234.51666666666668" type="curve" smooth="yes"/>
      <point x="892.109523809524" y="445.94047619047615"/>
      <point x="754.3285714285714" y="577.0666666666666"/>
      <point x="557.5047619047618" y="577.0666666666666" type="curve" smooth="yes"/>
      <point x="400.48571428571427" y="577.0666666666666"/>
      <point x="325.01904761904757" y="483.3904761904762"/>
      <point x="325.01904761904757" y="377.1404761904762" type="curve" smooth="yes"/>
      <point x="325.01904761904757" y="282.8714285714286"/>
      <point x="391.26666666666665" y="217.12857142857143"/>
      <point x="480.58333333333337" y="217.12857142857143" type="curve" smooth="yes"/>
      <point x="569.1809523809524" y="217.12857142857143"/>
      <point x="636.4714285714286" y="271.39761904761906"/>
      <point x="636.4714285714286" y="366.9952380952381" type="curve" smooth="yes"/>
      <point x="636.4714285714286" y="448.85"/>
      <point x="583.4666666666667" y="510.45714285714286"/>
      <point x="517.7119047619047" y="536.0119047619047" type="curve"/>
      <point x="449.9142857142857" y="524.5428571428571" type="line"/>
      <point x="505.38095238095235" y="496.3404761904762"/>
      <point x="538.1047619047619" y="444.1738095238095"/>
      <point x="538.1047619047619" y="384.3261904761905" type="curve" smooth="yes"/>
      <point x="538.1047619047619" y="339.4047619047619"/>
      <point x="514.0214285714286" y="298.51190476190476"/>
      <point x="466.8285714285714" y="298.51190476190476" type="curve" smooth="yes"/>
      <point x="430.2476190476191" y="298.51190476190476"/>
      <point x="398.1928571428571" y="325.0214285714286"/>
      <point x="398.1928571428571" y="385.5404761904762" type="curve" smooth="yes"/>
      <point x="398.1928571428571" y="447.7642857142857"/>
      <point x="441.12142857142857" y="509.4809523809524"/>
      <point x="537.6142857142858" y="509.4809523809524" type="curve" smooth="yes"/>
      <point x="652.2857142857142" y="509.4809523809524"/>
      <point x="731.6761904761905" y="424.6880952380952"/>
      <point x="731.6761904761905" y="252.40476190476193" type="curve" smooth="yes"/>
      <point x="731.6761904761905" y="9.573809523809516"/>
      <point x="569.3785714285715" y="-88.80238095238096"/>
      <point x="375.31190476190477" y="-88.80238095238096" type="curve" smooth="yes"/>
      <point x="221.23095238095243" y="-88.80238095238096"/>
      <point x="102.20238095238096" y="-7.852380952380958"/>
      <point x="102.20238095238096" y="64.15714285714286" type="curve" smooth="yes"/>
      <point x="102.20238095238096" y="82.38809523809525"/>
      <point x="112.29761904761905" y="92.12857142857142"/>
      <point x="133.69761904761907" y="92.12857142857142" type="curve" smooth="yes"/>
      <point x="987.1309523809523" y="92.12857142857142" type="line"/>
    </contour>
  </outline>
</glyph>
<glyph name="aa-tamil" format="2">
  <advance width="1453.6142857142856"/>
  <unicode hex="0B86"/>
  <note>
uni0B86
</note>
  <anchor x="721.5904761904762" y="0.0" name="bottom"/>
  <anchor x="400.2690476190476" y="-156.00476190476195" name="nukta"/>
  <anchor x="721.9976190476191" y="572.0666666666666" name="top"/>
  <anchor x="722.6690476190477" y="572.0666666666666" name="vedic"/>
  <outline>
    <contour>
      <point x="973.95" y="-428.4738095238095" type="curve" smooth="yes"/>
      <point x="1215.747619047619" y="-428.4738095238095"/>
      <point x="1436.1095238095238" y="-310.7785714285714"/>
      <point x="1436.1095238095238" y="-72.88809523809525" type="curve" smooth="yes"/>
      <point x="1436.1095238095238" y="40.04047619047619"/>
      <point x="1377.8785714285716" y="102.7404761904762"/>
      <point x="1290.4047619047622" y="102.7404761904762" type="curve" smooth="yes"/>
      <point x="1194.604761904762" y="102.7404761904762"/>
      <point x="1135.0666666666668" y="32.959523809523816"/>
      <point x="1124.0666666666666" y="-97.19999999999999" type="curve"/>
      <point x="1155.7476190476193" y="-104.51666666666668" type="line"/>
      <point x="1154.3357142857144" y="-46.39047619047619"/>
      <point x="1182.5166666666669" y="-16.91190476190476"/>
      <point x="1217.1833333333334" y="-16.91190476190476" type="curve" smooth="yes"/>
      <point x="1252.1" y="-16.91190476190476"/>
      <point x="1272.435714285714" y="-44.147619047619045"/>
      <point x="1272.435714285714" y="-90.57380952380952" type="curve" smooth="yes"/>
      <point x="1272.1190476190477" y="-266.9714285714286"/>
      <point x="1140.05" y="-362.53333333333336"/>
      <point x="964.3833333333331" y="-362.53333333333336" type="curve" smooth="yes"/>
      <point x="874.4880952380953" y="-362.53333333333336"/>
      <point x="789.85" y="-335.5999999999999"/>
      <point x="789.85" y="-274.0309523809524" type="curve" smooth="yes"/>
      <point x="789.85" y="-229.29285714285714"/>
      <point x="821.2666666666667" y="-206.0452380952381"/>
      <point x="879.1857142857144" y="-194.05" type="curve"/>
      <point x="865.3380952380953" y="-131.72619047619045" type="line"/>
      <point x="770.2404761904762" y="-152.86904761904762"/>
      <point x="719.3714285714287" y="-196.57857142857142"/>
      <point x="719.3714285714287" y="-271.22380952380956" type="curve" smooth="yes"/>
      <point x="719.3714285714287" y="-372.61904761904765"/>
      <point x="825.8690476190477" y="-428.4738095238095"/>
    </contour>
    <component base="a-tamil"/>
  </outline>
</glyph>
<glyph name="i-tamil" format="2">
  <advance width="948.1047619047617"/>
  <unicode hex="0B87"/>
  <note>
uni0B87
</note>
  <anchor x="450.66428571428577" y="0.0" name="bottom"/>
  <anchor x="449.4309523809524" y="-287.86666666666673" name="nukta"/>
  <anchor x="467.1261904761905" y="848.3214285714286" name="top"/>
  <anchor x="456.66428571428577" y="572.0666666666666" name="vedic"/>
  <outline>
    <contour>
      <point x="213.4142857142857" y="-326.00714285714287" type="curve" smooth="yes"/>
      <point x="518.8595238095238" y="-326.00714285714287"/>
      <point x="753.7928571428572" y="-59.63333333333333"/>
      <point x="753.7928571428572" y="226.29761904761904" type="curve" smooth="yes"/>
      <point x="753.7928571428572" y="433.96904761904767"/>
      <point x="643.4666666666667" y="577.0666666666666"/>
      <point x="451.93571428571437" y="577.0666666666666" type="curve" smooth="yes"/>
      <point x="298.4976190476191" y="577.0666666666666"/>
      <point x="224.53571428571428" y="484.2952380952381"/>
      <point x="224.53571428571428" y="377.3214285714286" type="curve" smooth="yes"/>
      <point x="224.53571428571428" y="283.00714285714287"/>
      <point x="289.93095238095236" y="218.48571428571427"/>
      <point x="375.74285714285713" y="218.48571428571427" type="curve" smooth="yes"/>
      <point x="462.95476190476194" y="218.48571428571427"/>
      <point x="529.7095238095237" y="271.2190476190476"/>
      <point x="529.7095238095237" y="366.6357142857143" type="curve" smooth="yes"/>
      <point x="529.7095238095237" y="447.5404761904762"/>
      <point x="474.6404761904763" y="509.59761904761905"/>
      <point x="408.43333333333334" y="537.052380952381" type="curve"/>
      <point x="343.71190476190486" y="525.4476190476189" type="line"/>
      <point x="400.4452380952381" y="497.1095238095238"/>
      <point x="430.7261904761904" y="443.81428571428575"/>
      <point x="430.7261904761904" y="383.4690476190476" type="curve" smooth="yes"/>
      <point x="430.7261904761904" y="338.1857142857143"/>
      <point x="408.47857142857146" y="299.5976190476191"/>
      <point x="362.00476190476195" y="299.5976190476191" type="curve" smooth="yes"/>
      <point x="325.67857142857144" y="299.5976190476191"/>
      <point x="296.65238095238095" y="327.0571428571428"/>
      <point x="296.65238095238095" y="385.2238095238095" type="curve" smooth="yes"/>
      <point x="296.65238095238095" y="447.76428571428573"/>
      <point x="336.1928571428571" y="509.6166666666667"/>
      <point x="432.0071428571429" y="509.6166666666667" type="curve" smooth="yes"/>
      <point x="555.5214285714285" y="509.6166666666667"/>
      <point x="596.8285714285715" y="402.32142857142856"/>
      <point x="596.8285714285715" y="241.56428571428575" type="curve" smooth="yes"/>
      <point x="596.8285714285715" y="4.754761904761911"/>
      <point x="495.6" y="-255.6952380952381"/>
      <point x="214.52857142857144" y="-255.6952380952381" type="curve" smooth="yes"/>
      <point x="144.1190476190476" y="-255.6952380952381"/>
      <point x="105.99999999999999" y="-222.65238095238095"/>
      <point x="105.99999999999999" y="-161.04285714285714" type="curve" smooth="yes"/>
      <point x="105.99999999999999" y="-41.292857142857144"/>
      <point x="280.7833333333333" y="43.77380952380952"/>
      <point x="447.81666666666666" y="43.77380952380952" type="curve" smooth="yes"/>
      <point x="624.6261904761906" y="43.77380952380952"/>
      <point x="812.459523809524" y="-32.22857142857143"/>
      <point x="812.459523809524" y="-163.12857142857143" type="curve" smooth="yes"/>
      <point x="812.459523809524" y="-225.89761904761906"/>
      <point x="769.2976190476189" y="-255.6952380952381"/>
      <point x="701.4476190476191" y="-255.6952380952381" type="curve" smooth="yes"/>
      <point x="443.7595238095238" y="-255.6952380952381"/>
      <point x="120.54761904761905" y="52.445238095238096"/>
      <point x="120.54761904761905" y="357.10714285714283" type="curve" smooth="yes"/>
      <point x="120.54761904761905" y="599.1952380952381"/>
      <point x="264.52857142857147" y="715.1880952380952"/>
      <point x="467.01904761904757" y="715.1880952380952" type="curve" smooth="yes"/>
      <point x="679.3976190476191" y="715.1880952380952"/>
      <point x="835.7309523809523" y="591.7428571428571"/>
      <point x="835.7309523809523" y="336.2452380952381" type="curve" smooth="yes"/>
      <point x="835.7309523809523" y="100.82142857142857" type="line"/>
      <point x="907.1595238095239" y="100.82142857142857" type="line"/>
      <point x="907.1595238095239" y="343.9619047619048" type="line" smooth="yes"/>
      <point x="907.1595238095239" y="693.3190476190475"/>
      <point x="728.4119047619047" y="848.3214285714286"/>
      <point x="467.1261904761905" y="848.3214285714286" type="curve" smooth="yes"/>
      <point x="209.71428571428575" y="848.3214285714286"/>
      <point x="40.80952380952382" y="669.8500000000001"/>
      <point x="40.80952380952382" y="402.74285714285713" type="curve" smooth="yes"/>
      <point x="40.80952380952382" y="17.952380952380942"/>
      <point x="427.27142857142854" y="-325.87142857142857"/>
      <point x="712.1190476190476" y="-325.87142857142857" type="curve" smooth="yes"/>
      <point x="825.3285714285715" y="-325.87142857142857"/>
      <point x="893.2261904761905" y="-267.9857142857143"/>
      <point x="893.2261904761905" y="-177.7642857142857" type="curve" smooth="yes"/>
      <point x="893.2261904761905" y="16.85952380952381"/>
      <point x="671.5619047619049" y="105.52142857142856"/>
      <point x="447.08809523809526" y="105.52142857142856" type="curve" smooth="yes"/>
      <point x="238.3309523809524" y="105.52142857142856"/>
      <point x="29.073809523809526" y="0.15238095238095184"/>
      <point x="29.073809523809526" y="-164.00476190476192" type="curve" smooth="yes"/>
      <point x="29.073809523809526" y="-269.56666666666666"/>
      <point x="100.90238095238095" y="-326.00714285714287"/>
    </contour>
  </outline>
</glyph>
<glyph name="ii-tamil" format="2">
  <advance width="776.7952380952382"/>
  <unicode hex="0B88"/>
  <note>
uni0B88
</note>
  <anchor x="392.3809523809524" y="0.0" name="bottom"/>
  <anchor x="392.9285714285715" y="0.0" name="nukta"/>
  <anchor x="395.0261904761905" y="572.0666666666666" name="top"/>
  <anchor x="395.38095238095246" y="572.0666666666666" name="vedic"/>
  <outline>
    <contour>
      <point x="66.32380952380953" y="0.0" type="line"/>
      <point x="137.80714285714288" y="0.0" type="line"/>
      <point x="137.80714285714288" y="506.78333333333336" type="line"/>
      <point x="361.72380952380956" y="506.78333333333336" type="line"/>
      <point x="361.72380952380956" y="0.0" type="line"/>
      <point x="535.1190476190477" y="0.0" type="line"/>
      <point x="535.1190476190477" y="506.78333333333336" type="line"/>
      <point x="728.3404761904762" y="506.78333333333336" type="line"/>
      <point x="728.3404761904762" y="572.0666666666666" type="line"/>
      <point x="66.32380952380953" y="572.0666666666666" type="line"/>
    </contour>
    <contour>
      <point x="249.42142857142858" y="201.41666666666669" type="curve" smooth="yes"/>
      <point x="289.41904761904766" y="201.41666666666669"/>
      <point x="322.46190476190475" y="233.7595238095238"/>
      <point x="322.46190476190475" y="271.6047619047619" type="curve" smooth="yes"/>
      <point x="322.46190476190475" y="309.8619047619047"/>
      <point x="289.90000000000003" y="342.04047619047617"/>
      <point x="250.12142857142857" y="342.04047619047617" type="curve" smooth="yes"/>
      <point x="209.64285714285717" y="342.04047619047617"/>
      <point x="177.0809523809524" y="309.8619047619047"/>
      <point x="177.0809523809524" y="271.6047619047619" type="curve" smooth="yes"/>
      <point x="177.0809523809524" y="233.7595238095238"/>
      <point x="209.64285714285717" y="201.41666666666669"/>
    </contour>
    <contour>
      <point x="645.995238095238" y="201.41666666666669" type="curve" smooth="yes"/>
      <point x="685.9095238095238" y="201.41666666666669"/>
      <point x="719.2000000000002" y="233.7595238095238"/>
      <point x="719.2000000000002" y="271.6047619047619" type="curve" smooth="yes"/>
      <point x="719.2000000000002" y="309.8619047619047"/>
      <point x="686.6095238095238" y="342.04047619047617"/>
      <point x="646.8595238095239" y="342.04047619047617" type="curve" smooth="yes"/>
      <point x="605.997619047619" y="342.04047619047617"/>
      <point x="573.2714285714287" y="309.8619047619047"/>
      <point x="573.2714285714287" y="271.6047619047619" type="curve" smooth="yes"/>
      <point x="573.2714285714287" y="233.7595238095238"/>
      <point x="605.997619047619" y="201.41666666666669"/>
    </contour>
  </outline>
</glyph>
<glyph name="u-tamil" format="2">
  <advance width="861.4309523809524"/>
  <unicode hex="0B89"/>
  <note>
uni0B89
</note>
  <anchor x="427.9642857142857" y="0.0" name="bottom"/>
  <anchor x="427.9642857142857" y="0.0" name="nukta"/>
  <anchor x="431.5809523809524" y="572.0666666666666" name="top"/>
  <anchor x="430.9642857142857" y="572.0666666666666" name="vedic"/>
  <outline>
    <contour>
      <point x="131.36190476190478" y="0.0" type="curve" smooth="yes"/>
      <point x="851.4380952380952" y="0.0" type="line"/>
      <point x="851.4380952380952" y="65.60000000000001" type="line"/>
      <point x="127.71190476190475" y="65.60000000000001" type="line" smooth="yes"/>
      <point x="110.08571428571427" y="65.60000000000001"/>
      <point x="96.3547619047619" y="78.23095238095237"/>
      <point x="96.3547619047619" y="98.7" type="curve" smooth="yes"/>
      <point x="96.3547619047619" y="118.92142857142858"/>
      <point x="109.7690476190476" y="131.19761904761904"/>
      <point x="127.71190476190475" y="131.19761904761904" type="curve" smooth="yes"/>
      <point x="350.85" y="131.19761904761904" type="line" smooth="yes"/>
      <point x="514.8690476190476" y="131.19761904761904"/>
      <point x="629.7047619047619" y="192.00238095238097"/>
      <point x="629.7047619047619" y="337.647619047619" type="curve" smooth="yes"/>
      <point x="629.7047619047619" y="486.11428571428576"/>
      <point x="515.4928571428572" y="577.0666666666666"/>
      <point x="332.3642857142857" y="577.0666666666666" type="curve" smooth="yes"/>
      <point x="181.49761904761905" y="577.0666666666666"/>
      <point x="95.70238095238093" y="492.64285714285717"/>
      <point x="95.70238095238093" y="387.3071428571428" type="curve" smooth="yes"/>
      <point x="95.70238095238093" y="293.7214285714286"/>
      <point x="157.82857142857145" y="241.59999999999997"/>
      <point x="239.40476190476193" y="241.59999999999997" type="curve" smooth="yes"/>
      <point x="324.4095238095238" y="241.59999999999997"/>
      <point x="385.8166666666666" y="291.402380952381"/>
      <point x="385.8166666666666" y="372.1619047619048" type="curve" smooth="yes"/>
      <point x="385.8166666666666" y="451.6595238095238"/>
      <point x="333.5952380952381" y="510.5166666666667"/>
      <point x="263.31666666666666" y="533.9547619047619" type="curve"/>
      <point x="196.9952380952381" y="528.7238095238095" type="line"/>
      <point x="259.46666666666664" y="496.37619047619046"/>
      <point x="288.7285714285714" y="451.0380952380952"/>
      <point x="288.7285714285714" y="392.76904761904757" type="curve" smooth="yes"/>
      <point x="288.7285714285714" y="346.43333333333334"/>
      <point x="264.46904761904756" y="317.07380952380953"/>
      <point x="225.7642857142857" y="317.07380952380953" type="curve" smooth="yes"/>
      <point x="191.64761904761906" y="317.07380952380953"/>
      <point x="168.16428571428568" y="345.1380952380952"/>
      <point x="168.16428571428568" y="392.18571428571425" type="curve" smooth="yes"/>
      <point x="168.16428571428568" y="458.5928571428571"/>
      <point x="222.85" y="511.81190476190477"/>
      <point x="304.2761904761905" y="511.81190476190477" type="curve" smooth="yes"/>
      <point x="406.3261904761905" y="511.81190476190477"/>
      <point x="470.1357142857143" y="454.95952380952383"/>
      <point x="470.1357142857143" y="347.89285714285717" type="curve" smooth="yes"/>
      <point x="470.1357142857143" y="246.36666666666667"/>
      <point x="416.0190476190476" y="193.22142857142856"/>
      <point x="326.99523809523805" y="193.22142857142856" type="curve" smooth="yes"/>
      <point x="131.36190476190478" y="193.22142857142856" type="line" smooth="yes"/>
      <point x="70.10238095238094" y="193.22142857142856"/>
      <point x="31.173809523809524" y="158.97142857142856"/>
      <point x="31.173809523809524" y="98.15238095238095" type="curve" smooth="yes"/>
      <point x="31.173809523809524" y="36.60476190476191"/>
      <point x="70.80238095238093" y="0.0"/>
    </contour>
  </outline>
</glyph>
<glyph name="uu-tamil" format="2">
  <advance width="1644.0238095238096"/>
  <unicode hex="0B8A"/>
  <note>
uni0B8A
</note>
  <anchor x="824.8809523809525" y="0.0" name="bottom"/>
  <anchor x="824.8809523809523" y="0.0" name="nukta"/>
  <anchor x="826.7666666666667" y="572.0666666666666" name="top"/>
  <anchor x="827.8809523809525" y="572.0666666666666" name="vedic"/>
  <outline>
    <contour>
      <point x="130.72857142857143" y="0.0" type="curve" smooth="yes"/>
      <point x="1587.9785714285713" y="0.0" type="line"/>
      <point x="1587.9785714285713" y="65.60000000000001" type="line"/>
      <point x="127.0785714285714" y="65.60000000000001" type="line" smooth="yes"/>
      <point x="109.13571428571429" y="65.60000000000001"/>
      <point x="96.3547619047619" y="78.23095238095237"/>
      <point x="96.3547619047619" y="98.7" type="curve" smooth="yes"/>
      <point x="96.3547619047619" y="118.92142857142858"/>
      <point x="109.13571428571429" y="131.19761904761904"/>
      <point x="127.0785714285714" y="131.19761904761904" type="curve" smooth="yes"/>
      <point x="350.85" y="131.19761904761904" type="line" smooth="yes"/>
      <point x="514.8690476190476" y="131.19761904761904"/>
      <point x="629.7047619047619" y="192.00238095238097"/>
      <point x="629.7047619047619" y="337.647619047619" type="curve" smooth="yes"/>
      <point x="629.7047619047619" y="486.11428571428576"/>
      <point x="515.4928571428572" y="577.0666666666666"/>
      <point x="332.3642857142857" y="577.0666666666666" type="curve" smooth="yes"/>
      <point x="181.49761904761905" y="577.0666666666666"/>
      <point x="95.70238095238093" y="492.64285714285717"/>
      <point x="95.70238095238093" y="387.3071428571428" type="curve" smooth="yes"/>
      <point x="95.70238095238093" y="293.7214285714286"/>
      <point x="157.82857142857145" y="241.59999999999997"/>
      <point x="239.40476190476193" y="241.59999999999997" type="curve" smooth="yes"/>
      <point x="324.4095238095238" y="241.59999999999997"/>
      <point x="385.8166666666666" y="291.402380952381"/>
      <point x="385.8166666666666" y="372.1619047619048" type="curve" smooth="yes"/>
      <point x="385.8166666666666" y="451.6595238095238"/>
      <point x="333.5952380952381" y="510.5166666666667"/>
      <point x="263.31666666666666" y="533.9547619047619" type="curve"/>
      <point x="196.9952380952381" y="528.7238095238095" type="line"/>
      <point x="259.46666666666664" y="496.37619047619046"/>
      <point x="288.7285714285714" y="451.0380952380952"/>
      <point x="288.7285714285714" y="392.76904761904757" type="curve" smooth="yes"/>
      <point x="288.7285714285714" y="346.43333333333334"/>
      <point x="264.46904761904756" y="317.07380952380953"/>
      <point x="225.7642857142857" y="317.07380952380953" type="curve" smooth="yes"/>
      <point x="191.64761904761906" y="317.07380952380953"/>
      <point x="168.16428571428568" y="345.1380952380952"/>
      <point x="168.16428571428568" y="392.18571428571425" type="curve" smooth="yes"/>
      <point x="168.16428571428568" y="458.5928571428571"/>
      <point x="222.85" y="511.81190476190477"/>
      <point x="304.2761904761905" y="511.81190476190477" type="curve" smooth="yes"/>
      <point x="406.3261904761905" y="511.81190476190477"/>
      <point x="470.1357142857143" y="454.95952380952383"/>
      <point x="470.1357142857143" y="347.89285714285717" type="curve" smooth="yes"/>
      <point x="470.1357142857143" y="246.36666666666667"/>
      <point x="416.0190476190476" y="193.22142857142856"/>
      <point x="326.99523809523805" y="193.22142857142856" type="curve" smooth="yes"/>
      <point x="130.72857142857143" y="193.22142857142856" type="line" smooth="yes"/>
      <point x="69.15238095238095" y="193.22142857142856"/>
      <point x="31.173809523809524" y="158.97142857142856"/>
      <point x="31.173809523809524" y="98.15238095238095" type="curve" smooth="yes"/>
      <point x="31.173809523809524" y="36.60476190476191"/>
      <point x="69.85238095238094" y="0.0"/>
    </contour>
    <contour>
      <point x="875.0809523809525" y="120.35238095238097" type="curve" smooth="yes"/>
      <point x="962.45" y="120.35238095238097"/>
      <point x="1032.457142857143" y="167.79047619047617"/>
      <point x="1032.457142857143" y="263.6190476190476" type="curve" smooth="yes"/>
      <point x="1032.457142857143" y="355.51428571428573"/>
      <point x="972.3714285714287" y="403.62142857142857"/>
      <point x="898.1833333333334" y="403.62142857142857" type="curve" smooth="yes"/>
      <point x="803.6666666666669" y="403.62142857142857"/>
      <point x="755.1166666666667" y="321.0880952380952"/>
      <point x="754.4190476190475" y="228.5809523809524" type="curve"/>
      <point x="790.2380952380953" y="204.31190476190474" type="line"/>
      <point x="791.4666666666667" y="274.52619047619044"/>
      <point x="821.9928571428571" y="333.0"/>
      <point x="866.8738095238095" y="333.0" type="curve" smooth="yes"/>
      <point x="901.5619047619048" y="333.0"/>
      <point x="924.9095238095238" y="307.1809523809524"/>
      <point x="924.9095238095238" y="264.09285714285716" type="curve" smooth="yes"/>
      <point x="924.9095238095238" y="216.5333333333333"/>
      <point x="898.2928571428571" y="187.25238095238095"/>
      <point x="857.3142857142858" y="187.25238095238095" type="curve" smooth="yes"/>
      <point x="806.5452380952381" y="187.25238095238095"/>
      <point x="751.2857142857143" y="233.8309523809524"/>
      <point x="751.2857142857143" y="338.33095238095245" type="curve" smooth="yes"/>
      <point x="751.2857142857143" y="445.4357142857143"/>
      <point x="816.4428571428572" y="512.3309523809525"/>
      <point x="916.6357142857142" y="512.3309523809525" type="curve" smooth="yes"/>
      <point x="1026.6095238095238" y="512.3309523809525"/>
      <point x="1094.1619047619047" y="434.76428571428573"/>
      <point x="1094.4333333333332" y="328.15" type="curve"/>
      <point x="1159.1809523809525" y="328.15" type="line"/>
      <point x="1152.2785714285715" y="495.21904761904767"/>
      <point x="1041.8333333333333" y="577.0666666666666"/>
      <point x="918.4095238095239" y="577.0666666666666" type="curve" smooth="yes"/>
      <point x="779.9619047619049" y="577.0666666666666"/>
      <point x="684.1761904761906" y="478.25"/>
      <point x="684.1761904761906" y="336.98571428571427" type="curve" smooth="yes"/>
      <point x="684.1761904761906" y="202.14761904761903"/>
      <point x="770.6999999999999" y="120.35238095238097"/>
    </contour>
    <contour>
      <point x="1094.4333333333332" y="122.15" type="line"/>
      <point x="1237.8738095238093" y="122.15" type="line"/>
      <point x="1237.8738095238093" y="511.8285714285714" type="line"/>
      <point x="1358.3357142857144" y="511.8285714285714" type="line"/>
      <point x="1358.3357142857144" y="122.15" type="line"/>
      <point x="1501.9785714285715" y="122.15" type="line"/>
      <point x="1501.9785714285715" y="511.8285714285714" type="line"/>
      <point x="1587.65" y="511.8285714285714" type="line"/>
      <point x="1587.65" y="572.0666666666666" type="line"/>
      <point x="1127.2" y="572.0666666666666" type="line"/>
      <point x="1130.45" y="388.6476190476191" type="line"/>
      <point x="1094.4333333333332" y="387.69761904761907" type="line"/>
    </contour>
  </outline>
</glyph>
<glyph name="e-tamil" format="2">
  <advance width="869.5380952380953"/>
  <unicode hex="0B8E"/>
  <note>
uni0B8E
</note>
  <anchor x="455.37857142857143" y="0.0" name="bottom"/>
  <anchor x="455.51428571428573" y="0.0" name="nukta"/>
  <anchor x="458.35238095238094" y="572.0666666666666" name="top"/>
  <anchor x="458.37857142857143" y="572.0666666666666" name="vedic"/>
  <outline>
    <contour>
      <point x="258.0833333333333" y="-5.0" type="curve" smooth="yes"/>
      <point x="372.1261904761905" y="-5.0"/>
      <point x="445.49047619047616" y="62.345238095238095"/>
      <point x="445.49047619047616" y="170.9595238095238" type="curve" smooth="yes"/>
      <point x="445.49047619047616" y="262.7738095238095"/>
      <point x="389.98571428571427" y="335.37619047619046"/>
      <point x="292.3547619047619" y="335.37619047619046" type="curve" smooth="yes"/>
      <point x="180.0642857142857" y="335.37619047619046"/>
      <point x="120.42142857142855" y="237.36190476190478"/>
      <point x="116.66666666666666" y="116.49285714285713" type="curve"/>
      <point x="159.19047619047618" y="90.23809523809524" type="line"/>
      <point x="162.7214285714286" y="177.8095238095238"/>
      <point x="190.56904761904764" y="235.4"/>
      <point x="238.35476190476194" y="235.4" type="curve" smooth="yes"/>
      <point x="273.4071428571429" y="235.4"/>
      <point x="296.09285714285716" y="203.0619047619048"/>
      <point x="296.09285714285716" y="158.22619047619048" type="curve" smooth="yes"/>
      <point x="296.09285714285716" y="106.16190476190476"/>
      <point x="273.4571428571428" y="72.20238095238096"/>
      <point x="225.9857142857143" y="72.20238095238096" type="curve" smooth="yes"/>
      <point x="166.36904761904762" y="72.20238095238096"/>
      <point x="114.98333333333335" y="144.93809523809523"/>
      <point x="114.98333333333335" y="259.2857142857143" type="curve" smooth="yes"/>
      <point x="114.98333333333335" y="417.3095238095238"/>
      <point x="204.7095238095238" y="506.78333333333336"/>
      <point x="395.55952380952385" y="506.78333333333336" type="curve" smooth="yes"/>
      <point x="567.5880952380952" y="506.78333333333336" type="line"/>
      <point x="567.5880952380952" y="0.0" type="line"/>
      <point x="740.3452380952381" y="0.0" type="line"/>
      <point x="740.3452380952381" y="506.78333333333336" type="line"/>
      <point x="853.8095238095239" y="506.78333333333336" type="line"/>
      <point x="853.8095238095239" y="572.0666666666666" type="line"/>
      <point x="382.5" y="572.0666666666666" type="line" smooth="yes"/>
      <point x="162.74047619047622" y="572.0666666666666"/>
      <point x="45.095238095238095" y="452.42857142857144"/>
      <point x="45.095238095238095" y="260.73809523809524" type="curve" smooth="yes"/>
      <point x="45.095238095238095" y="107.25476190476189"/>
      <point x="127.80952380952381" y="-5.0"/>
    </contour>
  </outline>
</glyph>
<glyph name="ee-tamil" format="2">
  <advance width="869.5380952380953"/>
  <unicode hex="0B8F"/>
  <note>
uni0B8F
</note>
  <anchor x="455.37857142857143" y="0.0" name="bottom"/>
  <anchor x="455.51428571428573" y="-193.75952380952384" name="nukta"/>
  <anchor x="458.5976190476191" y="572.0666666666666" name="top"/>
  <anchor x="458.37857142857143" y="572.0666666666666" name="vedic"/>
  <outline>
    <contour>
      <point x="445.10952380952386" y="-246.37857142857143" type="line"/>
      <point x="740.3452380952381" y="43.17857142857143" type="line"/>
      <point x="740.3452380952381" y="506.78333333333336" type="line"/>
      <point x="853.8095238095239" y="506.78333333333336" type="line"/>
      <point x="853.8095238095239" y="572.0666666666666" type="line"/>
      <point x="382.5" y="572.0666666666666" type="line" smooth="yes"/>
      <point x="162.7404761904762" y="572.0666666666666"/>
      <point x="45.095238095238095" y="452.42857142857144"/>
      <point x="45.095238095238095" y="260.73809523809524" type="curve" smooth="yes"/>
      <point x="45.095238095238095" y="107.25476190476189"/>
      <point x="127.80952380952381" y="-5.0"/>
      <point x="258.0833333333333" y="-5.0" type="curve" smooth="yes"/>
      <point x="372.1261904761905" y="-5.0"/>
      <point x="445.49047619047616" y="62.34523809523809"/>
      <point x="445.49047619047616" y="170.9595238095238" type="curve" smooth="yes"/>
      <point x="445.49047619047616" y="262.7738095238095"/>
      <point x="389.98571428571427" y="335.3761904761905"/>
      <point x="292.3547619047619" y="335.3761904761905" type="curve" smooth="yes"/>
      <point x="180.0642857142857" y="335.3761904761905"/>
      <point x="120.42142857142855" y="237.36190476190478"/>
      <point x="116.66666666666666" y="116.49285714285713" type="curve"/>
      <point x="159.19047619047618" y="90.23809523809524" type="line"/>
      <point x="162.7214285714286" y="177.80952380952382"/>
      <point x="191.96904761904761" y="235.4"/>
      <point x="239.4380952380953" y="235.4" type="curve" smooth="yes"/>
      <point x="274.4904761904763" y="235.4"/>
      <point x="296.09285714285716" y="203.06190476190477"/>
      <point x="296.09285714285716" y="158.22619047619048" type="curve" smooth="yes"/>
      <point x="296.09285714285716" y="106.16190476190476"/>
      <point x="273.8404761904761" y="72.20238095238096"/>
      <point x="226.68571428571428" y="72.20238095238096" type="curve" smooth="yes"/>
      <point x="168.5357142857143" y="72.20238095238096"/>
      <point x="115.68333333333334" y="144.2595238095238"/>
      <point x="115.68333333333334" y="259.2857142857143" type="curve" smooth="yes"/>
      <point x="115.68333333333334" y="417.3095238095238"/>
      <point x="204.7095238095238" y="506.78333333333336"/>
      <point x="395.55952380952385" y="506.78333333333336" type="curve" smooth="yes"/>
      <point x="567.5880952380952" y="506.78333333333336" type="line"/>
      <point x="567.5880952380952" y="-24.564285714285717" type="line"/>
      <point x="395.2261904761905" y="-196.82142857142858" type="line"/>
    </contour>
  </outline>
</glyph>
<glyph name="ai-tamil" format="2">
  <advance width="919.8380952380952"/>
  <unicode hex="0B90"/>
  <note>
uni0B90
</note>
  <anchor x="460.53333333333336" y="0.0" name="bottom"/>
  <anchor x="457.5999999999999" y="-325.32380952380953" name="nukta"/>
  <anchor x="472.43095238095225" y="572.0666666666666" name="top"/>
  <anchor x="470.4547619047619" y="572.0666666666666" name="vedic"/>
  <outline>
    <contour>
      <point x="267.354761904762" y="-325.32380952380953" type="curve" smooth="yes"/>
      <point x="376.252380952381" y="-325.32380952380953"/>
      <point x="449.4547619047619" y="-278.05476190476196"/>
      <point x="473.8190476190477" y="-190.57380952380953" type="curve"/>
      <point x="494.2666666666667" y="-270.147619047619"/>
      <point x="562.5809523809525" y="-325.32380952380953"/>
      <point x="665.3380952380953" y="-325.32380952380953" type="curve" smooth="yes"/>
      <point x="786.4571428571428" y="-325.32380952380953"/>
      <point x="874.8785714285714" y="-258.39761904761906"/>
      <point x="874.8785714285714" y="-116.94285714285714" type="curve" smooth="yes"/>
      <point x="874.8785714285714" y="-47.60952380952381"/>
      <point x="850.2785714285715" y="10.235714285714286"/>
      <point x="813.2595238095239" y="67.81904761904762" type="curve"/>
      <point x="753.7452380952382" y="32.657142857142865" type="line"/>
      <point x="785.8476190476191" y="-18.38809523809524"/>
      <point x="803.2690476190476" y="-61.840476190476195"/>
      <point x="803.2690476190476" y="-110.77142857142859" type="curve" smooth="yes"/>
      <point x="803.2690476190476" y="-209.1404761904762"/>
      <point x="748.1619047619047" y="-254.70238095238093"/>
      <point x="668.9833333333333" y="-254.70238095238093" type="curve" smooth="yes"/>
      <point x="589.4714285714284" y="-254.70238095238093"/>
      <point x="540.6785714285714" y="-197.77142857142857"/>
      <point x="540.6785714285714" y="-98.27619047619048" type="curve" smooth="yes"/>
      <point x="540.6785714285714" y="-25.978571428571428" type="line"/>
      <point x="405.16190476190485" y="-25.978571428571428" type="line"/>
      <point x="405.16190476190485" y="-110.57142857142858" type="line" smooth="yes"/>
      <point x="405.16190476190485" y="-203.07380952380956"/>
      <point x="368.2952380952381" y="-254.6238095238095"/>
      <point x="301.7309523809524" y="-254.6238095238095" type="curve" smooth="yes"/>
      <point x="235.41666666666663" y="-254.6238095238095"/>
      <point x="202.68333333333334" y="-207.40238095238095"/>
      <point x="202.68333333333334" y="-123.76190476190476" type="curve" smooth="yes"/>
      <point x="202.68333333333334" y="11.119047619047613"/>
      <point x="264.26428571428573" y="51.528571428571425"/>
      <point x="490.4857142857143" y="75.87380952380953" type="curve" smooth="yes"/>
      <point x="726.5214285714287" y="101.57380952380952"/>
      <point x="874.561904761905" y="157.0142857142857"/>
      <point x="874.561904761905" y="353.3095238095238" type="curve" smooth="yes"/>
      <point x="874.561904761905" y="500.2785714285714"/>
      <point x="789.5309523809523" y="577.5857142857144"/>
      <point x="658.6380952380954" y="577.5857142857144" type="curve" smooth="yes"/>
      <point x="574.5999999999999" y="577.5857142857144"/>
      <point x="500.1309523809524" y="542.4119047619048"/>
      <point x="474.8452380952381" y="458.9119047619048" type="curve"/>
      <point x="444.802380952381" y="539.3166666666667"/>
      <point x="373.8" y="577.5857142857144"/>
      <point x="275.9071428571429" y="577.5857142857144" type="curve" smooth="yes"/>
      <point x="141.0404761904762" y="577.5857142857144"/>
      <point x="50.47857142857143" y="485.4214285714286"/>
      <point x="50.47857142857143" y="346.9547619047619" type="curve" smooth="yes"/>
      <point x="50.47857142857143" y="233.3785714285714"/>
      <point x="118.1404761904762" y="153.4738095238095"/>
      <point x="213.73095238095237" y="153.4738095238095" type="curve" smooth="yes"/>
      <point x="291.3333333333333" y="153.4738095238095"/>
      <point x="350.79047619047617" y="198.42857142857142"/>
      <point x="350.79047619047617" y="284.3880952380953" type="curve" smooth="yes"/>
      <point x="350.79047619047617" y="362.68333333333334"/>
      <point x="304.2238095238095" y="410.1523809523809"/>
      <point x="237.03809523809525" y="410.1523809523809" type="curve" smooth="yes"/>
      <point x="167.12619047619046" y="410.1523809523809"/>
      <point x="111.5642857142857" y="362.70238095238096"/>
      <point x="104.54047619047617" y="234.38809523809522" type="curve"/>
      <point x="138.81190476190477" y="216.53095238095236" type="line"/>
      <point x="143.9333333333333" y="312.0357142857143"/>
      <point x="173.0761904761905" y="339.0047619047619"/>
      <point x="202.35476190476192" y="339.0047619047619" type="curve" smooth="yes"/>
      <point x="229.13095238095235" y="339.0047619047619"/>
      <point x="244.82619047619045" y="316.8142857142858"/>
      <point x="244.82619047619045" y="282.58095238095234" type="curve" smooth="yes"/>
      <point x="244.82619047619045" y="244.9738095238095"/>
      <point x="225.85000000000002" y="223.28095238095239"/>
      <point x="194.80476190476188" y="223.28095238095239" type="curve" smooth="yes"/>
      <point x="152.0047619047619" y="223.28095238095239"/>
      <point x="119.22857142857143" y="266.18809523809523"/>
      <point x="119.22857142857143" y="346.0047619047619" type="curve" smooth="yes"/>
      <point x="119.22857142857143" y="449.34285714285716"/>
      <point x="186.62142857142854" y="508.25952380952384"/>
      <point x="271.4595238095238" y="508.25952380952384" type="curve" smooth="yes"/>
      <point x="355.5666666666667" y="508.25952380952384"/>
      <point x="405.16190476190485" y="467.18333333333334"/>
      <point x="405.16190476190485" y="375.01666666666665" type="curve" smooth="yes"/>
      <point x="405.16190476190485" y="209.34999999999997" type="line"/>
      <point x="540.6785714285714" y="209.34999999999997" type="line"/>
      <point x="540.6785714285714" y="389.23333333333335" type="line" smooth="yes"/>
      <point x="540.6785714285714" y="465.3333333333333"/>
      <point x="572.3238095238096" y="506.68333333333334"/>
      <point x="627.9809523809523" y="506.68333333333334" type="curve" smooth="yes"/>
      <point x="685.7809523809525" y="506.68333333333334"/>
      <point x="716.8095238095239" y="458.28095238095244"/>
      <point x="716.8095238095239" y="366.2571428571428" type="curve" smooth="yes"/>
      <point x="716.8095238095239" y="205.82857142857142"/>
      <point x="649.8595238095238" y="148.98571428571432"/>
      <point x="394.70714285714286" y="120.74523809523811" type="curve" smooth="yes"/>
      <point x="222.10714285714286" y="102.43095238095238"/>
      <point x="45.095238095238095" y="58.37142857142857"/>
      <point x="45.095238095238095" y="-119.67142857142856" type="curve" smooth="yes"/>
      <point x="45.095238095238095" y="-253.4309523809524"/>
      <point x="132.6142857142857" y="-325.32380952380953"/>
    </contour>
  </outline>
</glyph>
<glyph name="o-tamil" format="2">
  <advance width="971.9452380952382"/>
  <unicode hex="0B92"/>
  <note>
uni0B92
</note>
  <anchor x="484.7523809523809" y="0.0" name="bottom"/>
  <anchor x="482.7523809523809" y="-335.0" name="nukta"/>
  <anchor x="477.7523809523809" y="572.0666666666666" name="top"/>
  <anchor x="477.7523809523809" y="572.0666666666666" name="vedic"/>
  <outline>
    <contour>
      <point x="350.11904761904765" y="-338.72142857142853" type="curve" smooth="yes"/>
      <point x="563.7928571428573" y="-338.72142857142853"/>
      <point x="594.3380952380953" y="-139.85000000000002"/>
      <point x="743.2190476190477" y="-139.85000000000002" type="curve" smooth="yes"/>
      <point x="802.2071428571428" y="-139.85000000000002" type="line"/>
      <point x="802.2071428571428" y="-73.77857142857144" type="line"/>
      <point x="720.4023809523811" y="-73.77857142857144" type="line" smooth="yes"/>
      <point x="563.2047619047619" y="-73.77857142857144"/>
      <point x="491.6571428571429" y="55.25476190476192"/>
      <point x="579.4857142857142" y="220.64523809523808" type="curve"/>
      <point x="585.4857142857142" y="217.48095238095237" type="line"/>
      <point x="559.6619047619048" y="100.90476190476191"/>
      <point x="595.7119047619049" y="-3.4238095238095236"/>
      <point x="737.4666666666666" y="-3.4238095238095236" type="curve" smooth="yes"/>
      <point x="845.5952380952382" y="-3.4238095238095236"/>
      <point x="926.9857142857144" y="68.20476190476191"/>
      <point x="926.9857142857144" y="201.79761904761907" type="curve" smooth="yes"/>
      <point x="926.9857142857144" y="445.94047619047615"/>
      <point x="715.4214285714287" y="577.7785714285714"/>
      <point x="454.96904761904767" y="577.7785714285714" type="curve" smooth="yes"/>
      <point x="212.0619047619047" y="577.7785714285714"/>
      <point x="45.095238095238095" y="428.9333333333334"/>
      <point x="45.095238095238095" y="245.7261904761905" type="curve" smooth="yes"/>
      <point x="45.095238095238095" y="99.27857142857144"/>
      <point x="126.98809523809526" y="-4.507142857142857"/>
      <point x="257.89761904761906" y="-4.507142857142857" type="curve" smooth="yes"/>
      <point x="372.21904761904767" y="-4.507142857142857"/>
      <point x="443.8047619047619" y="65.46666666666668"/>
      <point x="443.8047619047619" y="171.61666666666667" type="curve" smooth="yes"/>
      <point x="443.8047619047619" y="264.58095238095234"/>
      <point x="387.8071428571429" y="335.8690476190476"/>
      <point x="291.5119047619048" y="335.8690476190476" type="curve" smooth="yes"/>
      <point x="180.04285714285714" y="335.8690476190476"/>
      <point x="119.88571428571429" y="236.8190476190476"/>
      <point x="114.78809523809522" y="115.62857142857143" type="curve"/>
      <point x="157.17619047619047" y="89.53809523809524" type="line"/>
      <point x="160.70714285714286" y="177.29523809523806"/>
      <point x="190.05476190476196" y="235.72857142857143"/>
      <point x="237.8404761904762" y="235.72857142857143" type="curve" smooth="yes"/>
      <point x="272.84285714285716" y="235.72857142857143"/>
      <point x="295.0642857142857" y="202.89761904761906"/>
      <point x="295.0642857142857" y="158.22619047619048" type="curve" smooth="yes"/>
      <point x="295.0642857142857" y="106.16190476190476"/>
      <point x="272.9214285714286" y="72.5309523809524"/>
      <point x="226.29285714285712" y="72.5309523809524" type="curve" smooth="yes"/>
      <point x="166.86190476190478" y="72.5309523809524"/>
      <point x="114.81904761904762" y="138.0666666666667"/>
      <point x="114.81904761904762" y="244.53333333333333" type="curve" smooth="yes"/>
      <point x="114.81904761904762" y="402.2309523809524"/>
      <point x="270.0928571428572" y="511.1142857142857"/>
      <point x="442.80238095238093" y="511.1142857142857" type="curve" smooth="yes"/>
      <point x="627.702380952381" y="511.1142857142857"/>
      <point x="766.9690476190476" y="410.4214285714286"/>
      <point x="766.9690476190476" y="221.05238095238093" type="curve" smooth="yes"/>
      <point x="766.9690476190476" y="124.62142857142858"/>
      <point x="735.9928571428572" y="78.87857142857143"/>
      <point x="688.6428571428571" y="78.87857142857143" type="curve" smooth="yes"/>
      <point x="631.6285714285715" y="78.87857142857143"/>
      <point x="612.7714285714285" y="163.7904761904762"/>
      <point x="655.1619047619048" y="271.8642857142857" type="curve"/>
      <point x="575.8047619047619" y="313.7357142857143" type="line"/>
      <point x="432.61666666666673" y="116.03571428571429"/>
      <point x="465.2833333333334" y="-35.900000000000006"/>
      <point x="599.4690476190477" y="-97.70238095238095" type="curve"/>
      <point x="599.4690476190477" y="-102.70238095238095" type="line"/>
      <point x="465.49285714285713" y="-128.53333333333336"/>
      <point x="428.81190476190477" y="-263.747619047619"/>
      <point x="315.76666666666665" y="-263.747619047619" type="curve" smooth="yes"/>
      <point x="264.72857142857146" y="-263.747619047619"/>
      <point x="230.84285714285716" y="-235.00238095238095"/>
      <point x="230.84285714285716" y="-186.78809523809528" type="curve" smooth="yes"/>
      <point x="230.84285714285716" y="-152.6047619047619"/>
      <point x="248.42619047619047" y="-127.05952380952381"/>
      <point x="281.0023809523809" y="-99.52142857142857" type="curve"/>
      <point x="240.34999999999997" y="-54.86190476190475" type="line"/>
      <point x="194.43571428571428" y="-94.41190476190478"/>
      <point x="167.00476190476192" y="-133.82857142857142"/>
      <point x="167.00476190476192" y="-184.8095238095238" type="curve" smooth="yes"/>
      <point x="167.00476190476192" y="-274.7380952380953"/>
      <point x="233.91904761904763" y="-338.72142857142853"/>
    </contour>
  </outline>
</glyph>
<glyph name="oo-tamil" format="2">
  <advance width="971.9452380952382"/>
  <unicode hex="0B93"/>
  <note>
uni0B93
</note>
  <anchor x="483.64285714285717" y="0.0" name="bottom"/>
  <anchor x="481.64285714285717" y="-321.32380952380953" name="nukta"/>
  <anchor x="476.64285714285717" y="572.0666666666666" name="top"/>
  <anchor x="476.64285714285717" y="572.0666666666666" name="vedic"/>
  <outline>
    <contour>
      <point x="326.27857142857147" y="-357.72142857142853" type="curve" smooth="yes"/>
      <point x="565.1285714285715" y="-357.72142857142853"/>
      <point x="598.702380952381" y="-141.00000000000003"/>
      <point x="745.547619047619" y="-140.5071428571429" type="curve" smooth="yes"/>
      <point x="801.257142857143" y="-140.34285714285716" type="line"/>
      <point x="801.257142857143" y="-74.27142857142857" type="line"/>
      <point x="721.6238095238095" y="-74.27142857142857" type="line" smooth="yes"/>
      <point x="563.7476190476191" y="-74.27142857142857"/>
      <point x="492.0642857142858" y="56.254761904761914"/>
      <point x="577.5857142857142" y="220.15238095238095" type="curve"/>
      <point x="583.7214285714285" y="216.85238095238094" type="line"/>
      <point x="558.4404761904763" y="100.27619047619048"/>
      <point x="595.7119047619049" y="-3.916666666666667"/>
      <point x="737.4666666666666" y="-3.916666666666667" type="curve" smooth="yes"/>
      <point x="845.5952380952382" y="-3.916666666666667"/>
      <point x="926.9857142857144" y="67.71190476190478"/>
      <point x="926.9857142857144" y="201.3047619047619" type="curve" smooth="yes"/>
      <point x="926.9857142857144" y="445.44761904761907"/>
      <point x="715.4214285714287" y="577.45"/>
      <point x="454.96904761904767" y="577.45" type="curve" smooth="yes"/>
      <point x="212.0619047619047" y="577.45"/>
      <point x="45.095238095238095" y="428.44047619047626"/>
      <point x="45.095238095238095" y="245.39761904761906" type="curve" smooth="yes"/>
      <point x="45.095238095238095" y="98.95"/>
      <point x="126.98809523809526" y="-5.0"/>
      <point x="257.89761904761906" y="-5.0" type="curve" smooth="yes"/>
      <point x="372.21904761904767" y="-5.0"/>
      <point x="443.8047619047619" y="65.13809523809526"/>
      <point x="443.8047619047619" y="171.12380952380954" type="curve" smooth="yes"/>
      <point x="443.8047619047619" y="264.08809523809526"/>
      <point x="387.8071428571429" y="335.3761904761905"/>
      <point x="291.5119047619048" y="335.3761904761905" type="curve" smooth="yes"/>
      <point x="180.04285714285714" y="335.3761904761905"/>
      <point x="119.88571428571429" y="236.4904761904762"/>
      <point x="114.78809523809522" y="115.3" type="curve"/>
      <point x="157.17619047619047" y="89.0452380952381" type="line"/>
      <point x="160.70714285714286" y="176.80238095238093"/>
      <point x="190.05476190476196" y="235.4"/>
      <point x="237.8404761904762" y="235.4" type="curve" smooth="yes"/>
      <point x="272.84285714285716" y="235.4"/>
      <point x="295.0642857142857" y="202.56904761904764"/>
      <point x="295.0642857142857" y="157.73333333333335" type="curve" smooth="yes"/>
      <point x="295.0642857142857" y="105.83333333333334"/>
      <point x="272.9214285714286" y="72.20238095238096"/>
      <point x="226.29285714285712" y="72.20238095238096" type="curve" smooth="yes"/>
      <point x="166.86190476190478" y="72.20238095238096"/>
      <point x="114.81904761904762" y="137.73809523809527"/>
      <point x="114.81904761904762" y="244.04047619047617" type="curve" smooth="yes"/>
      <point x="114.81904761904762" y="401.73809523809524"/>
      <point x="270.0928571428572" y="510.78571428571433"/>
      <point x="442.80238095238093" y="510.78571428571433" type="curve" smooth="yes"/>
      <point x="627.702380952381" y="510.78571428571433"/>
      <point x="766.9690476190476" y="410.09285714285716"/>
      <point x="766.9690476190476" y="220.5595238095238" type="curve" smooth="yes"/>
      <point x="766.9690476190476" y="124.29285714285716"/>
      <point x="735.9928571428572" y="78.55000000000001"/>
      <point x="688.6428571428571" y="78.55000000000001" type="curve" smooth="yes"/>
      <point x="631.6285714285715" y="78.55000000000001"/>
      <point x="610.7357142857143" y="163.46190476190478"/>
      <point x="653.2619047619047" y="271.3714285714286" type="curve"/>
      <point x="573.904761904762" y="313.4071428571429" type="line"/>
      <point x="429.99285714285713" y="115.16428571428573"/>
      <point x="466.4761904761905" y="-36.828571428571436"/>
      <point x="602.1619047619048" y="-98.6309523809524" type="curve"/>
      <point x="602.1619047619048" y="-103.6309523809524" type="line"/>
      <point x="473.8071428571429" y="-127.19761904761907"/>
      <point x="416.9857142857143" y="-284.87142857142857"/>
      <point x="290.9404761904762" y="-284.87142857142857" type="curve" smooth="yes"/>
      <point x="226.98333333333332" y="-284.87142857142857"/>
      <point x="191.53333333333333" y="-251.43809523809523"/>
      <point x="191.53333333333333" y="-203.58333333333331" type="curve" smooth="yes"/>
      <point x="191.53333333333333" y="-164.36666666666667"/>
      <point x="219.87142857142857" y="-135.39285714285717"/>
      <point x="254.53809523809522" y="-135.39285714285717" type="curve" smooth="yes"/>
      <point x="293.1619047619048" y="-135.39285714285717"/>
      <point x="319.58809523809526" y="-157.98333333333335"/>
      <point x="332.07380952380953" y="-206.5547619047619" type="curve"/>
      <point x="367.71190476190475" y="-191.29761904761904"/>
      <point x="393.74999999999994" y="-166.1452380952381"/>
      <point x="393.74999999999994" y="-129.10714285714286" type="curve" smooth="yes"/>
      <point x="393.74999999999994" y="-80.85000000000002"/>
      <point x="343.5023809523809" y="-50.79047619047619"/>
      <point x="283.8476190476191" y="-50.79047619047619" type="curve" smooth="yes"/>
      <point x="190.6047619047619" y="-50.79047619047619"/>
      <point x="129.2357142857143" y="-117.72857142857143"/>
      <point x="129.2357142857143" y="-198.60000000000002" type="curve" smooth="yes"/>
      <point x="129.2357142857143" y="-296.8785714285715"/>
      <point x="211.99523809523808" y="-357.72142857142853"/>
    </contour>
  </outline>
</glyph>
<glyph name="au-tamil" format="2">
  <advance width="2141.0309523809524"/>
  <unicode hex="0B94"/>
  <note>
uni0B94
</note>
  <anchor x="1110.6690476190477" y="0.0" name="bottom"/>
  <anchor x="1215.3690476190475" y="0.0" name="nukta"/>
  <anchor x="1104.3690476190475" y="572.0666666666666" name="top"/>
  <anchor x="1104.3690476190475" y="572.0666666666666" name="vedic"/>
  <outline>
    <contour>
      <point x="1207.4690476190476" y="-5.0" type="curve" smooth="yes"/>
      <point x="1320.8119047619048" y="-5.0"/>
      <point x="1394.904761904762" y="62.34523809523809"/>
      <point x="1394.904761904762" y="170.9595238095238" type="curve" smooth="yes"/>
      <point x="1394.904761904762" y="262.7738095238095"/>
      <point x="1339.2357142857145" y="335.3761904761905"/>
      <point x="1241.7404761904766" y="335.3761904761905" type="curve" smooth="yes"/>
      <point x="1129.6142857142859" y="335.3761904761905"/>
      <point x="1069.9714285714285" y="237.36190476190478"/>
      <point x="1066.2166666666665" y="116.49285714285713" type="curve"/>
      <point x="1108.4238095238095" y="90.23809523809524" type="line"/>
      <point x="1111.9547619047619" y="177.80952380952382"/>
      <point x="1139.954761904762" y="235.4"/>
      <point x="1187.7404761904763" y="235.4" type="curve" smooth="yes"/>
      <point x="1222.257142857143" y="235.4"/>
      <point x="1245.161904761905" y="203.06190476190477"/>
      <point x="1245.161904761905" y="158.22619047619048" type="curve" smooth="yes"/>
      <point x="1245.161904761905" y="106.16190476190476"/>
      <point x="1222.307142857143" y="72.20238095238096"/>
      <point x="1175.3714285714289" y="72.20238095238096" type="curve" smooth="yes"/>
      <point x="1115.5357142857142" y="72.20238095238096"/>
      <point x="1064.3690476190477" y="144.93809523809523"/>
      <point x="1064.3690476190477" y="259.2857142857143" type="curve" smooth="yes"/>
      <point x="1064.3690476190477" y="411.54999999999995"/>
      <point x="1157.7214285714288" y="503.1047619047619"/>
      <point x="1292.6142857142856" y="503.1047619047619" type="curve" smooth="yes"/>
      <point x="1425.240476190476" y="503.1047619047619"/>
      <point x="1514.807142857143" y="420.3071428571428"/>
      <point x="1514.807142857143" y="287.31904761904764" type="curve"/>
      <point x="1583.0238095238096" y="301.3404761904762" type="line"/>
      <point x="1569.7095238095237" y="496.1619047619048"/>
      <point x="1431.1904761904761" y="576.902380952381"/>
      <point x="1290.911904761905" y="576.902380952381" type="curve" smooth="yes"/>
      <point x="1106.7214285714283" y="576.902380952381"/>
      <point x="994.4809523809524" y="445.7809523809524"/>
      <point x="994.4809523809524" y="260.73809523809524" type="curve" smooth="yes"/>
      <point x="994.4809523809524" y="107.25476190476189"/>
      <point x="1077.0428571428572" y="-5.0"/>
    </contour>
    <contour>
      <point x="1514.8071428571432" y="0.0" type="line"/>
      <point x="1687.0714285714287" y="0.0" type="line"/>
      <point x="1687.0714285714287" y="506.78333333333336" type="line"/>
      <point x="1839.5880952380953" y="506.78333333333336" type="line"/>
      <point x="1839.5880952380953" y="0.0" type="line"/>
      <point x="2011.5357142857144" y="0.0" type="line"/>
      <point x="2011.5357142857144" y="506.78333333333336" type="line"/>
      <point x="2125.3023809523806" y="506.78333333333336" type="line"/>
      <point x="2125.3023809523806" y="572.0666666666666" type="line"/>
      <point x="1556.4190476190477" y="572.0666666666666" type="line"/>
      <point x="1556.4190476190477" y="341.947619047619" type="line"/>
      <point x="1514.8071428571432" y="357.96190476190475" type="line"/>
    </contour>
    <component base="o-tamil"/>
  </outline>
</glyph>
<glyph name="nga-tamil" format="2">
  <advance width="942.9857142857142"/>
  <unicode hex="0B99"/>
  <note>
uni0B99
</note>
  <anchor x="465.09047619047624" y="0.0" name="bottom"/>
  <anchor x="514.1166666666667" y="572.0666666666666" name="imatra"/>
  <anchor x="466.302380952381" y="0.0" name="nukta"/>
  <anchor x="490.1952380952381" y="572.0666666666666" name="top"/>
  <anchor x="469.6500000000001" y="572.0666666666666" name="vedic"/>
  <outline>
    <contour>
      <point x="66.32380952380953" y="0.0" type="line"/>
      <point x="138.31190476190474" y="0.0" type="line"/>
      <point x="138.31190476190474" y="506.78333333333336" type="line"/>
      <point x="242.8" y="506.78333333333336" type="line"/>
      <point x="242.8" y="178.16666666666666" type="line"/>
      <point x="399.43571428571425" y="178.16666666666666" type="line"/>
      <point x="399.43571428571425" y="240.76190476190476" type="line" smooth="yes"/>
      <point x="399.43571428571425" y="269.7809523809524"/>
      <point x="413.4714285714286" y="289.69999999999993"/>
      <point x="437.7047619047618" y="289.69999999999993" type="curve" smooth="yes"/>
      <point x="464.81428571428575" y="289.69999999999993"/>
      <point x="480.33333333333337" y="265.8809523809524"/>
      <point x="480.33333333333337" y="213.4452380952381" type="curve" smooth="yes"/>
      <point x="480.33333333333337" y="127.19761904761907"/>
      <point x="432.7095238095239" y="65.60000000000001"/>
      <point x="352.2095238095238" y="65.60000000000001" type="curve" smooth="yes"/>
      <point x="242.8" y="65.60000000000001" type="line"/>
      <point x="242.8" y="0.0" type="line"/>
      <point x="876.842857142857" y="0.0" type="line"/>
      <point x="876.842857142857" y="572.0666666666666" type="line"/>
      <point x="704.6380952380953" y="572.0666666666666" type="line"/>
      <point x="704.6380952380953" y="65.60000000000001" type="line"/>
      <point x="503.39285714285717" y="65.60000000000001" type="line"/>
      <point x="580.209523809524" y="88.96904761904763"/>
      <point x="638.7214285714285" y="151.01904761904765"/>
      <point x="638.7214285714285" y="244.76190476190476" type="curve" smooth="yes"/>
      <point x="638.7214285714285" y="337.34047619047624"/>
      <point x="591.1071428571429" y="393.60714285714283"/>
      <point x="511.01428571428573" y="393.60714285714283" type="curve" smooth="yes"/>
      <point x="456.8999999999999" y="393.60714285714283"/>
      <point x="424.53809523809525" y="364.38095238095235"/>
      <point x="404.95476190476194" y="334.27142857142854" type="curve"/>
      <point x="404.95476190476194" y="506.78333333333336" type="line"/>
      <point x="541.1666666666666" y="506.78333333333336" type="line"/>
      <point x="541.1666666666666" y="572.0666666666666" type="line"/>
      <point x="66.32380952380953" y="572.0666666666666" type="line"/>
    </contour>
  </outline>
</glyph>
<glyph name="ca-tamil" format="2">
  <advance width="677.4047619047618"/>
  <unicode hex="0B9A"/>
  <note>
uni0B9A
</note>
  <anchor x="338.9428571428572" y="0.0" name="bottom"/>
  <anchor x="513.9690476190476" y="572.0666666666666" name="imatra"/>
  <anchor x="334.20000000000005" y="0.0" name="nukta"/>
  <anchor x="402.6452380952381" y="572.0666666666666" name="top"/>
  <anchor x="384.4309523809524" y="572.0666666666666" name="vedic"/>
  <outline>
    <contour>
      <point x="255.16904761904766" y="-4.0" type="curve" smooth="yes"/>
      <point x="411.64047619047625" y="-4.0"/>
      <point x="501.7238095238095" y="76.26666666666667"/>
      <point x="501.7238095238095" y="213.33333333333334" type="curve" smooth="yes"/>
      <point x="501.7238095238095" y="270.84523809523813" type="line"/>
      <point x="634.252380952381" y="270.84523809523813" type="line"/>
      <point x="634.252380952381" y="336.6095238095238" type="line"/>
      <point x="501.7238095238095" y="336.6095238095238" type="line"/>
      <point x="501.7238095238095" y="506.302380952381" type="line"/>
      <point x="634.252380952381" y="506.302380952381" type="line"/>
      <point x="634.252380952381" y="572.0666666666666" type="line"/>
      <point x="146.96666666666667" y="572.0666666666666" type="line"/>
      <point x="146.96666666666667" y="300.8214285714286" type="line"/>
      <point x="217.57619047619045" y="300.8214285714286" type="line"/>
      <point x="217.57619047619045" y="506.302380952381" type="line"/>
      <point x="329.7904761904762" y="506.302380952381" type="line"/>
      <point x="329.7904761904762" y="336.6095238095238" type="line"/>
      <point x="209.38571428571427" y="336.6095238095238" type="line" smooth="yes"/>
      <point x="120.95" y="336.6095238095238"/>
      <point x="46.211904761904755" y="271.7023809523809"/>
      <point x="46.211904761904755" y="175.36666666666667" type="curve" smooth="yes"/>
      <point x="46.211904761904755" y="70.63333333333334"/>
      <point x="114.2904761904762" y="-4.0"/>
    </contour>
    <contour>
      <point x="216.4047619047619" y="72.08095238095238" type="curve" smooth="yes"/>
      <point x="157.7880952380952" y="72.08095238095238"/>
      <point x="116.6952380952381" y="109.04285714285714"/>
      <point x="116.6952380952381" y="173.17380952380955" type="curve" smooth="yes"/>
      <point x="116.6952380952381" y="229.89285714285714"/>
      <point x="146.93571428571428" y="270.84523809523813"/>
      <point x="213.01904761904763" y="270.84523809523813" type="curve" smooth="yes"/>
      <point x="329.7904761904762" y="270.84523809523813" type="line"/>
      <point x="329.7904761904762" y="200.45476190476188" type="line" smooth="yes"/>
      <point x="329.7904761904762" y="111.10714285714285"/>
      <point x="284.1714285714285" y="72.08095238095238"/>
    </contour>
  </outline>
</glyph>
<glyph name="tta-tamil" format="2">
  <advance width="833.1309523809523"/>
  <unicode hex="0B9F"/>
  <note>
uni0B9F
</note>
  <anchor x="422.8595238095238" y="0.0" name="bottom"/>
  <anchor x="422.8595238095238" y="0.0" name="nukta"/>
  <anchor x="448.8190476190477" y="572.0666666666666" name="top"/>
  <anchor x="444.15476190476187" y="572.0666666666666" name="vedic"/>
  <outline>
    <contour>
      <point x="66.32380952380953" y="0.0" type="line"/>
      <point x="822.6190476190477" y="0.0" type="line"/>
      <point x="822.6190476190477" y="65.60000000000001" type="line"/>
      <point x="237.98095238095237" y="65.60000000000001" type="line"/>
      <point x="237.98095238095237" y="572.0666666666666" type="line"/>
      <point x="66.32380952380953" y="572.0666666666666" type="line"/>
    </contour>
  </outline>
</glyph>
<glyph name="ta-tamil" format="2">
  <advance width="814.9119047619049"/>
  <unicode hex="0BA4"/>
  <note>
uni0BA4
</note>
  <anchor x="393.7095238095239" y="0.0" name="bottom"/>
  <anchor x="526.2904761904762" y="572.0666666666666" name="imatra"/>
  <anchor x="468.5928571428571" y="-134.84285714285716" name="nukta"/>
  <anchor x="414.78809523809525" y="572.0666666666666" name="top"/>
  <anchor x="419.53333333333336" y="572.0666666666666" name="vedic"/>
  <outline>
    <contour>
      <point x="183.58809523809524" y="-284.6499999999999" type="curve"/>
      <point x="183.58809523809524" y="-187.69761904761904"/>
      <point x="206.85238095238097" y="-129.10238095238097"/>
      <point x="315.69523809523815" y="-129.10238095238097" type="curve" smooth="yes"/>
      <point x="464.84761904761905" y="-129.10238095238097" type="line" smooth="yes"/>
      <point x="628.7809523809523" y="-129.10238095238097"/>
      <point x="770.3357142857143" y="-69.1047619047619"/>
      <point x="770.3357142857143" y="110.6309523809524" type="curve" smooth="yes"/>
      <point x="770.3357142857143" y="276.0571428571429"/>
      <point x="659.3619047619047" y="336.4738095238095"/>
      <point x="522.1428571428571" y="336.4738095238095" type="curve" smooth="yes"/>
      <point x="502.4238095238095" y="336.4738095238095" type="line"/>
      <point x="502.4238095238095" y="506.302380952381" type="line"/>
      <point x="635.5880952380953" y="506.302380952381" type="line"/>
      <point x="635.5880952380953" y="572.0666666666666" type="line"/>
      <point x="147.13095238095238" y="572.0666666666666" type="line"/>
      <point x="147.13095238095238" y="301.31428571428575" type="line"/>
      <point x="217.7404761904762" y="301.31428571428575" type="line"/>
      <point x="217.7404761904762" y="506.302380952381" type="line"/>
      <point x="328.7071428571429" y="506.302380952381" type="line"/>
      <point x="328.7071428571429" y="336.6095238095238" type="line"/>
      <point x="210.04285714285714" y="336.6095238095238" type="line" smooth="yes"/>
      <point x="121.44285714285714" y="336.6095238095238"/>
      <point x="46.211904761904755" y="272.5238095238095"/>
      <point x="46.211904761904755" y="176.02380952380952" type="curve" smooth="yes"/>
      <point x="46.211904761904755" y="71.4547619047619"/>
      <point x="114.78333333333335" y="-4.0"/>
      <point x="255.66190476190482" y="-4.0" type="curve" smooth="yes"/>
      <point x="410.4904761904762" y="-4.0"/>
      <point x="502.4238095238095" y="75.4452380952381"/>
      <point x="502.4238095238095" y="212.5119047619048" type="curve" smooth="yes"/>
      <point x="502.4238095238095" y="270.79523809523806" type="line"/>
      <point x="511.6261904761905" y="270.79523809523806" type="line" smooth="yes"/>
      <point x="561.8238095238096" y="270.79523809523806"/>
      <point x="611.6619047619048" y="225.4119047619048"/>
      <point x="611.6619047619048" y="111.97857142857144" type="curve" smooth="yes"/>
      <point x="611.6619047619048" y="-24.96666666666667"/>
      <point x="519.9119047619049" y="-72.05"/>
      <point x="398.23809523809524" y="-72.05" type="curve" smooth="yes"/>
      <point x="257.48571428571427" y="-72.05" type="line" smooth="yes"/>
      <point x="149.00714285714287" y="-72.05"/>
      <point x="52.707142857142856" y="-92.26428571428572"/>
      <point x="52.707142857142856" y="-186.72619047619048" type="curve" smooth="yes"/>
      <point x="52.707142857142856" y="-253.73571428571427"/>
      <point x="105.62142857142857" y="-284.6499999999999"/>
    </contour>
    <contour>
      <point x="216.4047619047619" y="72.08095238095238" type="curve" smooth="yes"/>
      <point x="156.14523809523806" y="72.08095238095238"/>
      <point x="116.6952380952381" y="109.86428571428571"/>
      <point x="116.6952380952381" y="173.99523809523814" type="curve" smooth="yes"/>
      <point x="116.6952380952381" y="232.0285714285714"/>
      <point x="147.59285714285716" y="270.84523809523813"/>
      <point x="213.51190476190473" y="270.84523809523813" type="curve" smooth="yes"/>
      <point x="328.7071428571429" y="270.84523809523813" type="line"/>
      <point x="328.7071428571429" y="200.45476190476188" type="line" smooth="yes"/>
      <point x="328.54285714285714" y="111.10714285714285"/>
      <point x="284.33571428571435" y="72.08095238095238"/>
    </contour>
  </outline>
</glyph>
<glyph name="na-tamil" format="2">
  <advance width="766.7714285714285"/>
  <unicode hex="0BA8"/>
  <note>
uni0BA8
</note>
  <anchor x="360.1666666666667" y="0.0" name="bottom"/>
  <anchor x="491.7619047619047" y="572.0666666666666" name="imatra"/>
  <anchor x="392.56666666666666" y="-223.00952380952384" name="nukta"/>
  <anchor x="361.95" y="572.0666666666666" name="top"/>
  <anchor x="387.88571428571424" y="572.0666666666666" name="vedic"/>
  <outline>
    <contour>
      <point x="187.64285714285717" y="-286.8666666666666" type="curve"/>
      <point x="187.64285714285717" y="-189.9142857142857"/>
      <point x="210.90714285714287" y="-130.5261904761905"/>
      <point x="319.5857142857143" y="-130.5261904761905" type="curve" smooth="yes"/>
      <point x="444.73571428571427" y="-130.5261904761905" type="line" smooth="yes"/>
      <point x="602.5833333333334" y="-130.5261904761905"/>
      <point x="721.8785714285715" y="-52.13095238095238"/>
      <point x="721.8785714285715" y="139.4857142857143" type="curve" smooth="yes"/>
      <point x="721.8785714285715" y="280.94761904761907"/>
      <point x="648.3880952380952" y="352.99523809523816"/>
      <point x="555.2071428571428" y="352.99523809523816" type="curve" smooth="yes"/>
      <point x="488.9452380952382" y="352.99523809523816"/>
      <point x="451.4904761904762" y="317.0833333333333"/>
      <point x="426.36190476190484" y="276.80952380952385" type="curve"/>
      <point x="426.36190476190484" y="506.78333333333336" type="line"/>
      <point x="569.0976190476191" y="506.78333333333336" type="line"/>
      <point x="569.0976190476191" y="572.0666666666666" type="line"/>
      <point x="67.8952380952381" y="572.0666666666666" type="line"/>
      <point x="67.8952380952381" y="0.0" type="line"/>
      <point x="138.9952380952381" y="0.0" type="line"/>
      <point x="138.9952380952381" y="506.78333333333336" type="line"/>
      <point x="254.1285714285715" y="506.78333333333336" type="line"/>
      <point x="254.1285714285715" y="0.0" type="line"/>
      <point x="426.36190476190484" y="0.0" type="line"/>
      <point x="426.36190476190484" y="172.48809523809527" type="line" smooth="yes"/>
      <point x="426.36190476190484" y="221.59047619047618"/>
      <point x="449.4309523809524" y="249.53809523809528"/>
      <point x="487.8047619047619" y="249.53809523809528" type="curve" smooth="yes"/>
      <point x="535.4714285714286" y="249.53809523809528"/>
      <point x="562.7261904761904" y="207.7619047619048"/>
      <point x="562.7261904761904" y="126.72142857142856" type="curve" smooth="yes"/>
      <point x="562.7261904761904" y="-14.919047619047623"/>
      <point x="501.27857142857147" y="-73.95476190476191"/>
      <point x="379.9166666666667" y="-73.95476190476191" type="curve" smooth="yes"/>
      <point x="261.8571428571429" y="-73.95476190476191" type="line" smooth="yes"/>
      <point x="153.06190476190477" y="-73.95476190476191"/>
      <point x="56.92619047619047" y="-94.79761904761905"/>
      <point x="56.92619047619047" y="-188.94285714285715" type="curve" smooth="yes"/>
      <point x="56.92619047619047" y="-255.63571428571427"/>
      <point x="109.67619047619048" y="-286.8666666666666"/>
    </contour>
  </outline>
</glyph>
<glyph name="pa-tamil" format="2">
  <advance width="829.8809523809523"/>
  <unicode hex="0BAA"/>
  <note>
uni0BAA
</note>
  <anchor x="419.0761904761905" y="0.0" name="bottom"/>
  <anchor x="755.2738095238096" y="572.0666666666666" name="imatra"/>
  <anchor x="419.0761904761905" y="0.0" name="nukta"/>
  <anchor x="420.3285714285714" y="572.0666666666666" name="top"/>
  <anchor x="415.18095238095236" y="572.0666666666666" name="vedic"/>
  <outline>
    <contour>
      <point x="66.32380952380953" y="0.0" type="line"/>
      <point x="763.7380952380953" y="0.0" type="line"/>
      <point x="763.7380952380953" y="572.0666666666666" type="line"/>
      <point x="593.1642857142857" y="572.0666666666666" type="line"/>
      <point x="593.1642857142857" y="65.60000000000001" type="line"/>
      <point x="237.76666666666665" y="65.60000000000001" type="line"/>
      <point x="237.76666666666665" y="572.0666666666666" type="line"/>
      <point x="66.32380952380953" y="572.0666666666666" type="line"/>
    </contour>
  </outline>
</glyph>
<glyph name="ma-tamil" format="2">
  <advance width="831.2619047619049"/>
  <unicode hex="0BAE"/>
  <note>
uni0BAE
</note>
  <anchor x="408.3666666666667" y="0.0" name="bottom"/>
  <anchor x="771.2809523809525" y="572.0666666666666" name="imatra"/>
  <anchor x="409.2309523809524" y="0.0" name="nukta"/>
  <anchor x="416.25714285714287" y="572.0666666666666" name="top"/>
  <anchor x="428.3952380952381" y="572.0666666666666" name="vedic"/>
  <outline>
    <contour>
      <point x="66.32380952380953" y="0.0" type="line"/>
      <point x="632.407142857143" y="0.0" type="line" smooth="yes"/>
      <point x="729.1095238095238" y="0.0"/>
      <point x="782.7309523809524" y="70.55000000000001"/>
      <point x="782.7309523809524" y="233.31666666666666" type="curve" smooth="yes"/>
      <point x="782.7309523809524" y="449.7333333333334"/>
      <point x="698.302380952381" y="577.5857142857144"/>
      <point x="552.0880952380952" y="577.5857142857144" type="curve" smooth="yes"/>
      <point x="430.93095238095236" y="577.5857142857144"/>
      <point x="383.5142857142857" y="503.4904761904762"/>
      <point x="383.5142857142857" y="391.5" type="curve" smooth="yes"/>
      <point x="383.5142857142857" y="65.60000000000001" type="line"/>
      <point x="238.1452380952381" y="65.60000000000001" type="line"/>
      <point x="238.1452380952381" y="572.0666666666666" type="line"/>
      <point x="66.32380952380953" y="572.0666666666666" type="line"/>
    </contour>
    <contour>
      <point x="555.6119047619047" y="65.60000000000001" type="line"/>
      <point x="555.6119047619047" y="398.3666666666667" type="line" smooth="yes"/>
      <point x="555.6119047619047" y="465.25"/>
      <point x="568.5809523809525" y="491.03333333333336"/>
      <point x="602.8261904761905" y="491.03333333333336" type="curve" smooth="yes"/>
      <point x="652.7095238095238" y="491.03333333333336"/>
      <point x="711.8880952380952" y="408.85"/>
      <point x="711.8880952380952" y="235.36666666666667" type="curve" smooth="yes"/>
      <point x="711.8880952380952" y="113.55000000000001"/>
      <point x="686.0095238095238" y="65.60000000000001"/>
      <point x="628.1738095238095" y="65.60000000000001" type="curve" smooth="yes"/>
    </contour>
  </outline>
</glyph>
<glyph name="ya-tamil" format="2">
  <advance width="934.4476190476191"/>
  <unicode hex="0BAF"/>
  <note>
uni0BAF
</note>
  <anchor x="470.58571428571423" y="0.0" name="bottom"/>
  <anchor x="862.1880952380952" y="572.0666666666666" name="imatra"/>
  <anchor x="467.69523809523804" y="0.0" name="nukta"/>
  <anchor x="470.4928571428572" y="572.0666666666666" name="top"/>
  <anchor x="467.3666666666667" y="572.0666666666666" name="vedic"/>
  <outline>
    <contour>
      <point x="217.80476190476185" y="-10.626190476190477" type="curve" smooth="yes"/>
      <point x="285.1666666666667" y="-10.626190476190477"/>
      <point x="325.02142857142866" y="18.957142857142856"/>
      <point x="354.5904761904761" y="61.11904761904761" type="curve"/>
      <point x="354.5904761904761" y="0.0" type="line"/>
      <point x="868.3047619047619" y="0.0" type="line"/>
      <point x="868.3047619047619" y="572.0666666666666" type="line"/>
      <point x="696.2357142857143" y="572.0666666666666" type="line"/>
      <point x="696.2357142857143" y="65.60000000000001" type="line"/>
      <point x="503.13571428571424" y="65.60000000000001" type="line"/>
      <point x="503.13571428571424" y="572.0666666666666" type="line"/>
      <point x="337.302380952381" y="572.0666666666666" type="line"/>
      <point x="337.302380952381" y="141.46428571428572" type="line" smooth="yes"/>
      <point x="337.302380952381" y="97.78809523809524"/>
      <point x="312.397619047619" y="73.82380952380953"/>
      <point x="282.9142857142857" y="73.82380952380953" type="curve" smooth="yes"/>
      <point x="251.27380952380952" y="73.82380952380953"/>
      <point x="233.0333333333333" y="90.38809523809523"/>
      <point x="233.0333333333333" y="144.0904761904762" type="curve" smooth="yes"/>
      <point x="233.0333333333333" y="572.0666666666666" type="line"/>
      <point x="62.04761904761905" y="572.0666666666666" type="line"/>
      <point x="62.04761904761905" y="161.00714285714287" type="line" smooth="yes"/>
      <point x="62.04761904761905" y="47.60714285714286"/>
      <point x="126.4952380952381" y="-10.626190476190477"/>
    </contour>
  </outline>
</glyph>
<glyph name="ra-tamil" format="2">
  <advance width="587.6761904761904"/>
  <unicode hex="0BB0"/>
  <note>
uni0BB0
</note>
  <anchor x="286.1380952380953" y="0.0" name="bottom"/>
  <anchor x="503.2880952380952" y="572.0666666666666" name="imatra"/>
  <anchor x="286.1380952380953" y="-242.4261904761905" name="nukta"/>
  <anchor x="303.7476190476191" y="572.0666666666666" name="top"/>
  <anchor x="317.3857142857143" y="572.0666666666666" name="vedic"/>
  <outline>
    <contour>
      <point x="162.96904761904767" y="-246.21428571428572" type="line"/>
      <point x="458.45476190476194" y="43.07380952380952" type="line"/>
      <point x="458.45476190476194" y="506.78333333333336" type="line"/>
      <point x="571.9476190476191" y="506.78333333333336" type="line"/>
      <point x="571.9476190476191" y="572.0666666666666" type="line"/>
      <point x="67.14523809523808" y="572.0666666666666" type="line"/>
      <point x="67.14523809523808" y="0.0" type="line"/>
      <point x="138.9452380952381" y="0.0" type="line"/>
      <point x="138.9452380952381" y="506.78333333333336" type="line"/>
      <point x="286.6904761904762" y="506.78333333333336" type="line"/>
      <point x="286.6904761904762" y="-25.197619047619046" type="line"/>
      <point x="113.25" y="-196.65714285714287" type="line"/>
    </contour>
  </outline>
</glyph>
<glyph name="rra-tamil" format="2">
  <advance width="853.552380952381"/>
  <unicode hex="0BB1"/>
  <note>
uni0BB1
</note>
  <anchor x="446.7809523809524" y="0.0" name="bottom"/>
  <anchor x="494.8428571428572" y="-136.4642857142857" name="nukta"/>
  <anchor x="446.7738095238097" y="573.2166666666667" name="top"/>
  <anchor x="446.37857142857143" y="572.0666666666666" name="vedic"/>
  <outline>
    <contour>
      <point x="204.02857142857144" y="-286.41190476190474" type="curve"/>
      <point x="204.02857142857144" y="-197.14761904761903"/>
      <point x="223.87857142857143" y="-131.72857142857146"/>
      <point x="336.1071428571428" y="-131.72857142857146" type="curve" smooth="yes"/>
      <point x="455.7738095238095" y="-131.72857142857146" type="line" smooth="yes"/>
      <point x="644.0023809523809" y="-131.72857142857146"/>
      <point x="819.8404761904762" y="-34.016666666666666"/>
      <point x="819.8404761904762" y="245.31190476190477" type="curve" smooth="yes"/>
      <point x="819.8404761904762" y="463.8761904761905"/>
      <point x="716.604761904762" y="577.7785714285714"/>
      <point x="561.2285714285714" y="577.7785714285714" type="curve" smooth="yes"/>
      <point x="467.652380952381" y="577.7785714285714"/>
      <point x="401.34761904761905" y="536.2523809523809"/>
      <point x="378.32380952380953" y="466.18095238095236" type="curve"/>
      <point x="358.0642857142857" y="536.6142857142858"/>
      <point x="307.4333333333333" y="577.0952380952381"/>
      <point x="229.33333333333331" y="577.0952380952381" type="curve" smooth="yes"/>
      <point x="140.66666666666666" y="577.0952380952381"/>
      <point x="81.50714285714287" y="517.7928571428571"/>
      <point x="81.50714285714287" y="415.77619047619044" type="curve" smooth="yes"/>
      <point x="81.50714285714287" y="0.0" type="line"/>
      <point x="153.48333333333335" y="0.0" type="line"/>
      <point x="153.48333333333335" y="408.04285714285714" type="line" smooth="yes"/>
      <point x="153.48333333333335" y="474.37619047619046"/>
      <point x="175.06428571428572" y="504.95000000000005"/>
      <point x="219.86666666666667" y="504.95000000000005" type="curve" smooth="yes"/>
      <point x="268.1357142857143" y="504.95000000000005"/>
      <point x="288.2309523809524" y="469.3761904761905"/>
      <point x="288.2309523809524" y="406.0928571428571" type="curve" smooth="yes"/>
      <point x="288.2309523809524" y="0.0" type="line"/>
      <point x="464.3880952380953" y="0.0" type="line"/>
      <point x="464.3880952380953" y="395.6761904761904" type="line" smooth="yes"/>
      <point x="464.3880952380953" y="470.10238095238094"/>
      <point x="491.0690476190476" y="505.46904761904767"/>
      <point x="541.5357142857143" y="505.46904761904767" type="curve" smooth="yes"/>
      <point x="608.2738095238095" y="505.46904761904767"/>
      <point x="642.302380952381" y="435.8309523809524"/>
      <point x="642.302380952381" y="260.60476190476186" type="curve" smooth="yes"/>
      <point x="642.302380952381" y="14.314285714285713"/>
      <point x="590.2404761904761" y="-74.20714285714286"/>
      <point x="416.7761904761905" y="-74.20714285714286" type="curve" smooth="yes"/>
      <point x="278.0785714285714" y="-74.20714285714286" type="line" smooth="yes"/>
      <point x="169.20000000000002" y="-74.20714285714286"/>
      <point x="72.89999999999999" y="-96.17380952380952"/>
      <point x="72.89999999999999" y="-191.4547619047619" type="curve" smooth="yes"/>
      <point x="72.89999999999999" y="-257.1738095238095"/>
      <point x="125.58333333333331" y="-286.41190476190474"/>
    </contour>
  </outline>
</glyph>
<glyph name="la-tamil" format="2">
  <advance width="994.7952380952382"/>
  <unicode hex="0BB2"/>
  <note>
uni0BB2
</note>
  <anchor x="491.57619047619045" y="0.0" name="bottom"/>
  <anchor x="489.6166666666667" y="0.0" name="nukta"/>
  <anchor x="500.23809523809524" y="572.0666666666666" name="top"/>
  <anchor x="493.2809523809524" y="572.0666666666666" name="vedic"/>
  <outline>
    <contour>
      <point x="258.08333333333337" y="-5.0" type="curve" smooth="yes"/>
      <point x="372.1261904761905" y="-5.0"/>
      <point x="445.49047619047616" y="63.16666666666668"/>
      <point x="445.49047619047616" y="171.78095238095239" type="curve" smooth="yes"/>
      <point x="445.49047619047616" y="263.5952380952381"/>
      <point x="389.98571428571427" y="335.3761904761905"/>
      <point x="292.3547619047619" y="335.3761904761905" type="curve" smooth="yes"/>
      <point x="180.06428571428575" y="335.3761904761905"/>
      <point x="120.42142857142858" y="237.36190476190478"/>
      <point x="116.66666666666667" y="116.49285714285713" type="curve"/>
      <point x="159.1904761904762" y="90.23809523809524" type="line"/>
      <point x="162.72142857142856" y="177.80952380952382"/>
      <point x="190.5690476190476" y="235.4"/>
      <point x="238.35476190476194" y="235.4" type="curve" smooth="yes"/>
      <point x="273.40714285714284" y="235.4"/>
      <point x="296.0928571428571" y="203.06190476190477"/>
      <point x="296.0928571428571" y="158.22619047619048" type="curve" smooth="yes"/>
      <point x="296.0928571428571" y="106.16190476190476"/>
      <point x="273.45714285714286" y="72.20238095238096"/>
      <point x="225.98571428571435" y="72.20238095238096" type="curve" smooth="yes"/>
      <point x="166.36904761904762" y="72.20238095238096"/>
      <point x="114.98333333333335" y="144.93809523809526"/>
      <point x="114.98333333333335" y="259.2857142857143" type="curve" smooth="yes"/>
      <point x="114.98333333333335" y="412.13809523809516"/>
      <point x="200.8190476190476" y="504.0785714285714"/>
      <point x="329.3666666666666" y="504.0785714285714" type="curve" smooth="yes"/>
      <point x="469.8261904761904" y="504.0785714285714"/>
      <point x="524.2452380952382" y="412.7261904761904"/>
      <point x="524.5619047619049" y="284.24523809523805" type="curve" smooth="yes"/>
      <point x="524.5619047619049" y="180.5404761904762" type="line" smooth="yes"/>
      <point x="524.5619047619049" y="64.96190476190478"/>
      <point x="581.854761904762" y="-4.050000000000001"/>
      <point x="709.7166666666667" y="-4.050000000000001" type="curve" smooth="yes"/>
      <point x="850.202380952381" y="-4.050000000000001"/>
      <point x="945.3333333333333" y="108.10714285714286"/>
      <point x="945.3333333333333" y="301.5714285714286" type="curve" smooth="yes"/>
      <point x="945.3333333333333" y="402.22142857142853"/>
      <point x="914.8690476190475" y="483.58571428571423"/>
      <point x="853.4690476190476" y="576.602380952381" type="curve"/>
      <point x="794.0119047619048" y="540.3785714285715" type="line"/>
      <point x="847.7952380952381" y="457.6952380952381"/>
      <point x="875.6761904761905" y="386.9380952380953"/>
      <point x="875.6761904761905" y="294.5214285714286" type="curve" smooth="yes"/>
      <point x="875.6761904761905" y="156.60238095238094"/>
      <point x="815.0500000000001" y="76.35714285714286"/>
      <point x="754.157142857143" y="76.35714285714286" type="curve" smooth="yes"/>
      <point x="714.2523809523809" y="76.35714285714286"/>
      <point x="697.8809523809524" y="104.94047619047619"/>
      <point x="697.8809523809524" y="171.12380952380954" type="curve" smooth="yes"/>
      <point x="697.8809523809524" y="294.93809523809523" type="line" smooth="yes"/>
      <point x="697.8809523809524" y="474.2428571428572"/>
      <point x="578.3047619047619" y="577.0666666666666"/>
      <point x="373.21666666666664" y="577.0666666666666" type="curve" smooth="yes"/>
      <point x="159.74999999999994" y="577.0666666666666"/>
      <point x="45.095238095238095" y="447.152380952381"/>
      <point x="45.095238095238095" y="260.7380952380952" type="curve" smooth="yes"/>
      <point x="45.095238095238095" y="107.2547619047619"/>
      <point x="127.8095238095238" y="-5.0"/>
    </contour>
  </outline>
</glyph>
<glyph name="va-tamil" format="2">
  <advance width="1052.2809523809526"/>
  <unicode hex="0BB5"/>
  <note>
uni0BB5
</note>
  <anchor x="551.9857142857143" y="0.0" name="bottom"/>
  <anchor x="823.7380952380953" y="572.0666666666666" name="imatra"/>
  <anchor x="544.3904761904762" y="0.0" name="nukta"/>
  <anchor x="532.35" y="572.0666666666666" name="top"/>
  <anchor x="527.2309523809524" y="572.0666666666666" name="vedic"/>
  <outline>
    <contour>
      <point x="258.08333333333337" y="-5.0" type="curve" smooth="yes"/>
      <point x="372.1261904761905" y="-5.0"/>
      <point x="445.49047619047616" y="63.16666666666668"/>
      <point x="445.49047619047616" y="171.78095238095239" type="curve" smooth="yes"/>
      <point x="445.49047619047616" y="263.5952380952381"/>
      <point x="389.98571428571427" y="335.3761904761905"/>
      <point x="292.3547619047619" y="335.3761904761905" type="curve" smooth="yes"/>
      <point x="180.06428571428575" y="335.3761904761905"/>
      <point x="120.42142857142858" y="237.36190476190478"/>
      <point x="116.66666666666667" y="116.49285714285713" type="curve"/>
      <point x="159.1904761904762" y="90.23809523809524" type="line"/>
      <point x="162.72142857142856" y="177.80952380952382"/>
      <point x="190.5690476190476" y="235.4"/>
      <point x="238.35476190476194" y="235.4" type="curve" smooth="yes"/>
      <point x="273.40714285714284" y="235.4"/>
      <point x="296.0928571428571" y="203.06190476190477"/>
      <point x="296.0928571428571" y="158.22619047619048" type="curve" smooth="yes"/>
      <point x="296.0928571428571" y="106.16190476190476"/>
      <point x="273.45714285714286" y="72.20238095238096"/>
      <point x="225.98571428571435" y="72.20238095238096" type="curve" smooth="yes"/>
      <point x="166.36904761904762" y="72.20238095238096"/>
      <point x="114.98333333333335" y="144.93809523809526"/>
      <point x="114.98333333333335" y="259.2857142857143" type="curve" smooth="yes"/>
      <point x="114.98333333333335" y="410.01666666666665"/>
      <point x="203.96904761904764" y="504.4071428571429"/>
      <point x="333.552380952381" y="504.4071428571429" type="curve" smooth="yes"/>
      <point x="468.94047619047626" y="504.4071428571429"/>
      <point x="552.0142857142858" y="412.13571428571424"/>
      <point x="552.0142857142858" y="261.99523809523816" type="curve" smooth="yes"/>
      <point x="552.0142857142858" y="172.42619047619047"/>
      <point x="530.9166666666667" y="102.80714285714285"/>
      <point x="498.8809523809524" y="46.51904761904762" type="curve"/>
      <point x="521.0166666666667" y="0.0" type="line"/>
      <point x="986.1380952380952" y="0.0" type="line"/>
      <point x="986.1380952380952" y="572.0666666666666" type="line"/>
      <point x="814.2333333333335" y="572.0666666666666" type="line"/>
      <point x="814.2333333333335" y="65.60000000000001" type="line"/>
      <point x="617.4809523809524" y="65.60000000000001" type="line"/>
      <point x="677.4047619047619" y="125.49047619047619"/>
      <point x="716.5738095238096" y="194.03571428571428"/>
      <point x="716.5738095238096" y="286.51190476190476" type="curve" smooth="yes"/>
      <point x="716.5738095238096" y="477.78333333333336"/>
      <point x="567.2142857142859" y="577.0666666666666"/>
      <point x="378.997619047619" y="577.0666666666666" type="curve" smooth="yes"/>
      <point x="164.15238095238092" y="577.0666666666666"/>
      <point x="45.095238095238095" y="445.20714285714286"/>
      <point x="45.095238095238095" y="260.7380952380952" type="curve" smooth="yes"/>
      <point x="45.095238095238095" y="107.2547619047619"/>
      <point x="127.8095238095238" y="-5.0"/>
    </contour>
  </outline>
</glyph>
<glyph name="sha-tamil" format="2">
  <advance width="1039.9904761904763"/>
  <unicode hex="0BB6"/>
  <note>
uni0BB6
</note>
  <anchor x="518.5452380952381" y="0.0" name="bottom"/>
  <anchor x="827.5404761904762" y="572.0666666666666" name="imatra"/>
  <anchor x="518.5452380952381" y="0.0" name="nukta"/>
  <anchor x="518.5452380952381" y="572.0666666666666" name="top"/>
  <anchor x="526.9452380952381" y="572.0666666666666" name="vedic"/>
  <outline>
    <contour>
      <point x="267.0261904761905" y="-5.0" type="curve" smooth="yes"/>
      <point x="385.6309523809524" y="-5.0"/>
      <point x="472.5523809523809" y="44.61428571428571"/>
      <point x="472.5523809523809" y="202.45000000000002" type="curve" smooth="yes"/>
      <point x="472.5523809523809" y="506.78333333333336" type="line"/>
      <point x="590.5928571428573" y="506.78333333333336" type="line"/>
      <point x="590.5928571428573" y="176.0880952380952" type="line" smooth="yes"/>
      <point x="590.5928571428573" y="61.41190476190477"/>
      <point x="636.2333333333333" y="-5.164285714285714"/>
      <point x="755.3571428571429" y="-5.164285714285714" type="curve" smooth="yes"/>
      <point x="899.2904761904762" y="-5.164285714285714"/>
      <point x="991.4595238095238" y="123.25476190476192"/>
      <point x="991.4595238095238" y="339.3833333333333" type="curve" smooth="yes"/>
      <point x="991.4595238095238" y="492.1690476190476"/>
      <point x="941.247619047619" y="572.0666666666666"/>
      <point x="844.0785714285714" y="572.0666666666666" type="curve" smooth="yes"/>
      <point x="401.5142857142857" y="572.0666666666666" type="line"/>
      <point x="401.5142857142857" y="202.45" type="line" smooth="yes"/>
      <point x="401.5142857142857" y="104.06190476190478"/>
      <point x="366.0809523809524" y="74.45476190476191"/>
      <point x="313.29523809523806" y="74.45476190476191" type="curve" smooth="yes"/>
      <point x="259.02619047619055" y="74.45476190476191"/>
      <point x="233.70476190476188" y="108.89999999999999"/>
      <point x="233.70476190476188" y="183.18333333333334" type="curve" smooth="yes"/>
      <point x="233.70476190476188" y="572.0666666666666" type="line"/>
      <point x="62.04761904761905" y="572.0666666666666" type="line"/>
      <point x="62.04761904761905" y="195.08809523809524" type="line" smooth="yes"/>
      <point x="62.04761904761905" y="57.33809523809525"/>
      <point x="142.3666666666667" y="-5.0"/>
    </contour>
    <contour>
      <point x="809.402380952381" y="80.57142857142857" type="curve" smooth="yes"/>
      <point x="771.7261904761905" y="80.57142857142857"/>
      <point x="762.3904761904761" y="105.96190476190476"/>
      <point x="762.3904761904761" y="166.2452380952381" type="curve" smooth="yes"/>
      <point x="762.3904761904761" y="507.3309523809524" type="line"/>
      <point x="838.6095238095237" y="507.3309523809524" type="line" smooth="yes"/>
      <point x="899.4928571428575" y="507.3309523809524"/>
      <point x="920.6571428571427" y="448.98571428571427"/>
      <point x="920.6571428571427" y="337.3333333333333" type="curve" smooth="yes"/>
      <point x="920.6571428571427" y="161.6761904761905"/>
      <point x="859.35" y="80.57142857142857"/>
    </contour>
  </outline>
</glyph>
<glyph name="sa-tamil" format="2">
  <advance width="1302.292857142857"/>
  <unicode hex="0BB8"/>
  <note>
uni0BB8
</note>
  <anchor x="674.7785714285715" y="0.0" name="bottom"/>
  <anchor x="671.9119047619048" y="0.0" name="nukta"/>
  <anchor x="666.1738095238096" y="572.0666666666666" name="top"/>
  <anchor x="669.295238095238" y="572.0666666666666" name="vedic"/>
  <outline>
    <contour>
      <point x="537.0619047619048" y="0.0" type="line"/>
      <point x="708.0904761904762" y="0.0" type="line"/>
      <point x="708.0904761904762" y="427.67142857142863" type="line" smooth="yes"/>
      <point x="708.0904761904762" y="484.6380952380953"/>
      <point x="732.5857142857143" y="507.9142857142857"/>
      <point x="771.7571428571429" y="507.9142857142857" type="curve" smooth="yes"/>
      <point x="809.8880952380953" y="507.9142857142857"/>
      <point x="832.4880952380952" y="481.73809523809524"/>
      <point x="832.4880952380952" y="436.00952380952384" type="curve" smooth="yes"/>
      <point x="832.4880952380952" y="180.5404761904762" type="line" smooth="yes"/>
      <point x="832.4880952380952" y="64.96190476190476"/>
      <point x="889.0809523809525" y="-4.214285714285714"/>
      <point x="1016.9428571428573" y="-4.214285714285714" type="curve" smooth="yes"/>
      <point x="1157.1119047619047" y="-4.214285714285714"/>
      <point x="1252.8309523809526" y="108.13571428571429"/>
      <point x="1252.8309523809526" y="301.5714285714286" type="curve" smooth="yes"/>
      <point x="1252.8309523809526" y="402.22142857142853"/>
      <point x="1222.6380952380953" y="483.5857142857143"/>
      <point x="1161.2380952380952" y="576.602380952381" type="curve"/>
      <point x="1101.509523809524" y="540.2428571428571" type="line"/>
      <point x="1155.2928571428574" y="457.55952380952385"/>
      <point x="1182.9023809523812" y="386.802380952381"/>
      <point x="1182.9023809523812" y="294.3857142857143" type="curve" smooth="yes"/>
      <point x="1182.9023809523812" y="156.3309523809524"/>
      <point x="1122.2761904761905" y="76.19285714285715"/>
      <point x="1061.5190476190476" y="76.19285714285715" type="curve" smooth="yes"/>
      <point x="1021.4785714285715" y="76.19285714285715"/>
      <point x="1005.2428571428571" y="104.77619047619048"/>
      <point x="1005.2428571428571" y="170.9595238095238" type="curve" smooth="yes"/>
      <point x="1005.2428571428571" y="390.94523809523804" type="line" smooth="yes"/>
      <point x="1005.2428571428571" y="515.7476190476191"/>
      <point x="907.8095238095239" y="576.0380952380954"/>
      <point x="785.4404761904761" y="576.0380952380954" type="curve" smooth="yes"/>
      <point x="672.7714285714286" y="576.0380952380954"/>
      <point x="580.5571428571428" y="521.1285714285715"/>
      <point x="580.5571428571428" y="422.7214285714286" type="curve" smooth="yes"/>
      <point x="580.5571428571428" y="351.8904761904762" type="line"/>
      <point x="537.0619047619048" y="351.8904761904762" type="line"/>
    </contour>
    <contour>
      <point x="259.4428571428572" y="-5.0" type="curve" smooth="yes"/>
      <point x="372.94999999999993" y="-5.0"/>
      <point x="446.08809523809515" y="62.34523809523809"/>
      <point x="446.08809523809515" y="170.9595238095238" type="curve" smooth="yes"/>
      <point x="446.08809523809515" y="262.7738095238095"/>
      <point x="391.20952380952383" y="335.3761904761905"/>
      <point x="293.0428571428572" y="335.3761904761905" type="curve" smooth="yes"/>
      <point x="177.947619047619" y="335.3761904761905"/>
      <point x="120.96904761904761" y="234.89761904761906"/>
      <point x="117.53571428571429" y="116.35714285714286" type="curve"/>
      <point x="159.92380952380955" y="90.23809523809524" type="line"/>
      <point x="163.45476190476188" y="175.90952380952382"/>
      <point x="189.78571428571425" y="235.4"/>
      <point x="239.4952380952381" y="235.4" type="curve" smooth="yes"/>
      <point x="274.54761904761904" y="235.4"/>
      <point x="297.20952380952383" y="203.06190476190477"/>
      <point x="297.20952380952383" y="158.22619047619048" type="curve" smooth="yes"/>
      <point x="297.20952380952383" y="106.16190476190476"/>
      <point x="274.14523809523814" y="72.20238095238096"/>
      <point x="226.99047619047622" y="72.20238095238096" type="curve" smooth="yes"/>
      <point x="167.37380952380954" y="72.20238095238096"/>
      <point x="115.71666666666665" y="145.07380952380953"/>
      <point x="115.71666666666665" y="259.4214285714286" type="curve" smooth="yes"/>
      <point x="115.71666666666665" y="411.5047619047619"/>
      <point x="204.97380952380954" y="502.5619047619047"/>
      <point x="333.4880952380952" y="502.5619047619047" type="curve" smooth="yes"/>
      <point x="466.8404761904761" y="502.5619047619047"/>
      <point x="537.3785714285715" y="427.29047619047617"/>
      <point x="537.3785714285715" y="290.1404761904762" type="curve"/>
      <point x="612.347619047619" y="299.27619047619044" type="line"/>
      <point x="603.352380952381" y="493.48095238095243"/>
      <point x="476.55714285714294" y="577.0380952380954"/>
      <point x="335.33809523809526" y="577.0380952380954" type="curve" smooth="yes"/>
      <point x="154.8690476190476" y="577.0380952380954"/>
      <point x="46.211904761904755" y="447.31904761904764"/>
      <point x="46.211904761904755" y="260.73809523809524" type="curve" smooth="yes"/>
      <point x="46.211904761904755" y="107.25476190476189"/>
      <point x="129.19761904761904" y="-5.0"/>
    </contour>
  </outline>
</glyph>
<glyph name="ha-tamil" format="2">
  <advance width="1578.754761904762"/>
  <unicode hex="0BB9"/>
  <note>
uni0BB9
</note>
  <anchor x="807.9404761904761" y="0.0" name="bottom"/>
  <anchor x="809.7238095238095" y="-136.39523809523808" name="nukta"/>
  <anchor x="823.0190476190477" y="573.5452380952381" name="top"/>
  <anchor x="809.0" y="572.0666666666666" name="vedic"/>
  <outline>
    <contour>
      <point x="235.13809523809525" y="-297.9380952380952" type="curve"/>
      <point x="235.13809523809525" y="-208.45476190476188"/>
      <point x="255.15238095238098" y="-143.67857142857144"/>
      <point x="367.6976190476191" y="-143.67857142857144" type="curve" smooth="yes"/>
      <point x="1059.3333333333333" y="-143.67857142857144" type="line" smooth="yes"/>
      <point x="1373.7999999999997" y="-143.67857142857144"/>
      <point x="1545.0428571428572" y="-25.111904761904757"/>
      <point x="1545.0428571428572" y="248.76190476190476" type="curve" smooth="yes"/>
      <point x="1545.0428571428572" y="466.74047619047616"/>
      <point x="1445.716666666667" y="577.6714285714285"/>
      <point x="1284.2690476190478" y="577.6714285714285" type="curve" smooth="yes"/>
      <point x="1191.0714285714284" y="577.6714285714285"/>
      <point x="1125.640476190476" y="535.7880952380953"/>
      <point x="1102.2047619047619" y="465.74523809523805" type="curve"/>
      <point x="1083.0809523809523" y="536.8357142857143"/>
      <point x="1031.7642857142857" y="576.9880952380952"/>
      <point x="955.040476190476" y="576.9880952380952" type="curve" smooth="yes"/>
      <point x="865.8809523809525" y="576.9880952380952"/>
      <point x="806.7214285714286" y="518.6714285714286"/>
      <point x="806.7214285714286" y="414.1619047619047" type="curve" smooth="yes"/>
      <point x="806.7214285714286" y="65.60000000000001" type="line"/>
      <point x="617.4809523809524" y="65.60000000000001" type="line"/>
      <point x="677.4047619047619" y="125.49047619047619"/>
      <point x="716.5738095238096" y="194.03571428571428"/>
      <point x="716.5738095238096" y="286.51190476190476" type="curve" smooth="yes"/>
      <point x="716.5738095238096" y="477.78333333333336"/>
      <point x="567.2142857142859" y="577.0666666666666"/>
      <point x="378.997619047619" y="577.0666666666666" type="curve" smooth="yes"/>
      <point x="164.15238095238092" y="577.0666666666666"/>
      <point x="45.095238095238095" y="445.20714285714286"/>
      <point x="45.095238095238095" y="260.7380952380952" type="curve" smooth="yes"/>
      <point x="45.095238095238095" y="107.2547619047619"/>
      <point x="127.8095238095238" y="-5.0"/>
      <point x="258.08333333333337" y="-5.0" type="curve" smooth="yes"/>
      <point x="372.1261904761905" y="-5.0"/>
      <point x="445.49047619047616" y="63.16666666666668"/>
      <point x="445.49047619047616" y="171.78095238095239" type="curve" smooth="yes"/>
      <point x="445.49047619047616" y="263.5952380952381"/>
      <point x="389.98571428571427" y="335.3761904761905"/>
      <point x="292.3547619047619" y="335.3761904761905" type="curve" smooth="yes"/>
      <point x="180.06428571428575" y="335.3761904761905"/>
      <point x="120.91428571428574" y="237.85476190476192"/>
      <point x="116.66666666666667" y="116.98571428571428" type="curve"/>
      <point x="159.1904761904762" y="90.23809523809524" type="line"/>
      <point x="162.7214285714286" y="177.80952380952382"/>
      <point x="190.5690476190476" y="235.4"/>
      <point x="238.35476190476194" y="235.4" type="curve" smooth="yes"/>
      <point x="273.40714285714284" y="235.4"/>
      <point x="296.0928571428571" y="203.06190476190477"/>
      <point x="296.0928571428571" y="158.22619047619048" type="curve" smooth="yes"/>
      <point x="296.0928571428571" y="106.16190476190476"/>
      <point x="273.45714285714286" y="72.20238095238096"/>
      <point x="225.98571428571435" y="72.20238095238096" type="curve" smooth="yes"/>
      <point x="166.36904761904762" y="72.20238095238096"/>
      <point x="114.98333333333335" y="144.93809523809526"/>
      <point x="114.98333333333335" y="259.2857142857143" type="curve" smooth="yes"/>
      <point x="114.98333333333335" y="410.01666666666665"/>
      <point x="203.96904761904764" y="504.4071428571429"/>
      <point x="333.552380952381" y="504.4071428571429" type="curve" smooth="yes"/>
      <point x="468.94047619047626" y="504.4071428571429"/>
      <point x="552.0142857142858" y="412.13571428571424"/>
      <point x="552.0142857142858" y="261.99523809523816" type="curve" smooth="yes"/>
      <point x="552.0142857142858" y="172.42619047619047"/>
      <point x="530.9166666666667" y="102.80714285714285"/>
      <point x="498.8809523809524" y="46.51904761904762" type="curve"/>
      <point x="521.0166666666667" y="0.0" type="line"/>
      <point x="879.0142857142858" y="0.0" type="line"/>
      <point x="879.0142857142858" y="407.43571428571425" type="line" smooth="yes"/>
      <point x="879.0142857142858" y="474.78333333333336"/>
      <point x="900.0857142857143" y="505.3571428571429"/>
      <point x="945.0523809523809" y="505.3571428571429" type="curve" smooth="yes"/>
      <point x="993.1857142857144" y="505.3571428571429"/>
      <point x="1013.0500000000001" y="470.44047619047615"/>
      <point x="1013.0500000000001" y="406.33571428571423" type="curve" smooth="yes"/>
      <point x="1013.0500000000001" y="0.028571428571428692" type="line"/>
      <point x="1189.0261904761903" y="0.028571428571428692" type="line"/>
      <point x="1189.0261904761903" y="394.247619047619" type="line" smooth="yes"/>
      <point x="1189.0261904761903" y="469.5238095238096"/>
      <point x="1214.3238095238096" y="506.0404761904762"/>
      <point x="1265.2761904761905" y="506.0404761904762" type="curve" smooth="yes"/>
      <point x="1330.5452380952381" y="506.0404761904762"/>
      <point x="1365.8857142857144" y="439.1333333333333"/>
      <point x="1365.8857142857144" y="264.94047619047615" type="curve" smooth="yes"/>
      <point x="1365.8857142857144" y="23.692857142857143"/>
      <point x="1299.504761904762" y="-85.65476190476191"/>
      <point x="1019.0238095238096" y="-85.65476190476191" type="curve" smooth="yes"/>
      <point x="309.35238095238094" y="-85.65476190476191" type="line" smooth="yes"/>
      <point x="199.92619047619047" y="-85.65476190476191"/>
      <point x="104.17380952380954" y="-107.51428571428572"/>
      <point x="104.17380952380954" y="-202.82380952380953" type="curve" smooth="yes"/>
      <point x="104.17380952380954" y="-268.83095238095234"/>
      <point x="156.72142857142856" y="-297.9380952380952"/>
    </contour>
  </outline>
</glyph>
<glyph name="aaMatra-tamil" format="2">
  <advance width="585.8238095238096"/>
  <unicode hex="0BBE"/>
  <note>
uni0BBE
</note>
  <anchor x="306.73333333333335" y="0.0" name="bottom"/>
  <anchor x="305.73333333333335" y="0.0" name="nukta"/>
  <anchor x="299.73333333333335" y="572.0666666666666" name="top"/>
  <anchor x="299.73333333333335" y="572.0666666666666" name="vedic"/>
  <outline>
    <contour>
      <point x="66.32380952380953" y="0.0" type="line"/>
      <point x="138.12380952380954" y="0.0" type="line"/>
      <point x="138.12380952380954" y="506.78333333333336" type="line"/>
      <point x="286.6380952380953" y="506.78333333333336" type="line"/>
      <point x="286.6380952380953" y="0.0" type="line"/>
      <point x="458.2452380952381" y="0.0" type="line"/>
      <point x="458.2452380952381" y="506.78333333333336" type="line"/>
      <point x="570.0952380952381" y="506.78333333333336" type="line"/>
      <point x="570.0952380952381" y="572.0666666666666" type="line"/>
      <point x="66.32380952380953" y="572.0666666666666" type="line"/>
    </contour>
  </outline>
</glyph>
<glyph name="iMatra-tamil" format="2">
  <advance width="212.32142857142858"/>
  <unicode hex="0BBF"/>
  <note>
uni0BBF
</note>
  <anchor x="-139.76666666666665" y="854.75" name="top"/>
  <outline>
    <contour>
      <point x="71.8047619047619" y="0.0" type="line"/>
      <point x="144.6452380952381" y="0.0" type="line"/>
      <point x="144.6452380952381" y="564.5404761904762" type="line" smooth="yes"/>
      <point x="144.6452380952381" y="765.9547619047618"/>
      <point x="14.207142857142859" y="854.75"/>
      <point x="-139.76666666666665" y="854.75" type="curve" smooth="yes"/>
      <point x="-278.0571428571428" y="854.75"/>
      <point x="-360.19523809523815" y="775.8380952380952"/>
      <point x="-360.19523809523815" y="668.5500000000001" type="curve" smooth="yes"/>
      <point x="-360.19523809523815" y="570.1452380952381"/>
      <point x="-294.49523809523816" y="512.4095238095239"/>
      <point x="-179.40238095238095" y="512.4095238095239" type="curve" smooth="yes"/>
      <point x="-177.46904761904764" y="512.4095238095239" type="line"/>
      <point x="-177.46904761904764" y="571.902380952381" type="line"/>
      <point x="-179.40238095238095" y="571.902380952381" type="line" smooth="yes"/>
      <point x="-227.9142857142857" y="571.902380952381"/>
      <point x="-267.3309523809524" y="591.9999999999999"/>
      <point x="-267.3309523809524" y="638.6142857142858" type="curve" smooth="yes"/>
      <point x="-267.3309523809524" y="685.3142857142857"/>
      <point x="-223.5952380952381" y="721.747619047619"/>
      <point x="-136.10476190476194" y="721.747619047619" type="curve" smooth="yes"/>
      <point x="-28.51904761904762" y="721.747619047619"/>
      <point x="71.8047619047619" y="665.7071428571428"/>
      <point x="71.8047619047619" y="522.6309523809523" type="curve" smooth="yes"/>
    </contour>
  </outline>
</glyph>
<glyph name="iiMatra-tamil" format="2">
  <unicode hex="0BC0"/>
  <note>
uni0BC0
</note>
  <anchor x="0.0" y="572.0666666666666" name="_imatra"/>
  <anchor x="3.416666666666668" y="920.952380952381" name="top"/>
  <outline>
    <contour>
      <point x="-31.180952380952377" y="507.4166666666667" type="curve" smooth="yes"/>
      <point x="-0.3833333333333334" y="507.4166666666667" type="line"/>
      <point x="-0.3833333333333334" y="572.0666666666666" type="line"/>
      <point x="-26.90238095238095" y="572.0666666666666" type="line" smooth="yes"/>
      <point x="-94.07380952380954" y="572.0666666666666"/>
      <point x="-146.45714285714286" y="616.547619047619"/>
      <point x="-146.45714285714286" y="703.3214285714286" type="curve" smooth="yes"/>
      <point x="-146.45714285714286" y="791.3476190476189"/>
      <point x="-95.07142857142858" y="852.0071428571428"/>
      <point x="-13.314285714285715" y="852.0071428571428" type="curve" smooth="yes"/>
      <point x="42.823809523809516" y="852.0071428571428"/>
      <point x="73.7452380952381" y="814.7714285714285"/>
      <point x="73.7452380952381" y="760.4023809523809" type="curve" smooth="yes"/>
      <point x="73.7452380952381" y="722.145238095238"/>
      <point x="53.57619047619048" y="695.3857142857142"/>
      <point x="20.730952380952377" y="695.3857142857142" type="curve" smooth="yes"/>
      <point x="-37.34047619047619" y="695.3857142857142"/>
      <point x="-51.4" y="787.5333333333333"/>
      <point x="-13.483333333333334" y="875.2523809523809" type="curve"/>
      <point x="-62.35952380952381" y="879.8" type="line"/>
      <point x="-125.34285714285714" y="755.9357142857142"/>
      <point x="-88.03333333333333" y="609.9880952380953"/>
      <point x="54.8452380952381" y="609.9880952380953" type="curve" smooth="yes"/>
      <point x="136.55238095238096" y="609.9880952380953"/>
      <point x="200.04047619047623" y="662.0071428571429"/>
      <point x="200.04047619047623" y="750.9309523809525" type="curve" smooth="yes"/>
      <point x="200.04047619047623" y="853.2357142857143"/>
      <point x="122.49761904761904" y="920.952380952381"/>
      <point x="3.416666666666668" y="920.952380952381" type="curve" smooth="yes"/>
      <point x="-131.3857142857143" y="920.952380952381"/>
      <point x="-215.83095238095234" y="824.8119047619047"/>
      <point x="-215.83095238095234" y="707.1404761904762" type="curve" smooth="yes"/>
      <point x="-215.83095238095234" y="582.3833333333334"/>
      <point x="-146.7952380952381" y="507.4166666666667"/>
    </contour>
  </outline>
</glyph>
<glyph name="uMatra-tamil" format="2">
  <advance width="492.2785714285715"/>
  <unicode hex="0BC1"/>
  <note>
uni0BC1
</note>
  <anchor x="167.52857142857144" y="572.0666666666666" name="top"/>
  <outline>
    <contour>
      <point x="272.0023809523809" y="227.14523809523808" type="curve" smooth="yes"/>
      <point x="381.8714285714285" y="227.14523809523808"/>
      <point x="463.3309523809524" y="287.4428571428572"/>
      <point x="463.3309523809524" y="410.58809523809526" type="curve" smooth="yes"/>
      <point x="463.3309523809524" y="572.0666666666666" type="line"/>
      <point x="-271.00238095238103" y="572.0666666666666" type="line"/>
      <point x="-217.21904761904764" y="506.78333333333336" type="line"/>
      <point x="290.4761904761904" y="506.78333333333336" type="line"/>
      <point x="290.4761904761904" y="390.7952380952381" type="line" smooth="yes"/>
      <point x="290.4761904761904" y="335.5690476190476"/>
      <point x="265.28809523809525" y="309.2071428571429"/>
      <point x="226.79999999999998" y="309.2071428571429" type="curve" smooth="yes"/>
      <point x="186.30238095238096" y="309.2071428571429"/>
      <point x="166.89999999999998" y="339.7738095238096"/>
      <point x="166.89999999999998" y="405.98333333333335" type="curve" smooth="yes"/>
      <point x="166.89999999999998" y="532.4166666666666" type="line"/>
      <point x="97.12619047619049" y="532.4166666666666" type="line"/>
      <point x="97.12619047619049" y="415.75714285714287" type="line" smooth="yes"/>
      <point x="97.12619047619049" y="290.82380952380953"/>
      <point x="159.09761904761905" y="227.14523809523808"/>
    </contour>
  </outline>
</glyph>
<glyph name="uuMatra-tamil" format="2">
  <advance width="819.3333333333334"/>
  <unicode hex="0BC2"/>
  <note>
uni0BC2
</note>
  <anchor x="388.0857142857143" y="790.209523809524" name="top"/>
  <outline>
    <contour>
      <point x="344.15238095238095" y="7.388095238095239" type="curve" smooth="yes"/>
      <point x="571.5071428571428" y="7.388095238095239"/>
      <point x="756.8976190476191" y="141.54999999999998"/>
      <point x="756.8976190476191" y="404.02857142857147" type="curve" smooth="yes"/>
      <point x="756.8976190476191" y="649.6119047619047"/>
      <point x="605.3119047619049" y="790.209523809524"/>
      <point x="388.0857142857143" y="790.209523809524" type="curve" smooth="yes"/>
      <point x="182.21190476190478" y="790.209523809524"/>
      <point x="90.89761904761905" y="657.35"/>
      <point x="90.89761904761905" y="527.8404761904762" type="curve" smooth="yes"/>
      <point x="90.89761904761905" y="416.4142857142857" type="line" smooth="yes"/>
      <point x="90.89761904761905" y="290.82380952380953"/>
      <point x="152.24047619047622" y="227.14523809523808"/>
      <point x="265.3095238095238" y="227.14523809523808" type="curve" smooth="yes"/>
      <point x="375.07142857142856" y="227.14523809523808"/>
      <point x="456.9666666666666" y="287.2285714285714"/>
      <point x="456.9666666666666" y="411.2452380952381" type="curve" smooth="yes"/>
      <point x="456.9666666666666" y="572.0666666666666" type="line"/>
      <point x="-277.8476190476191" y="572.0666666666666" type="line"/>
      <point x="-227.25714285714287" y="506.78333333333336" type="line"/>
      <point x="283.947619047619" y="506.78333333333336" type="line"/>
      <point x="283.947619047619" y="391.45238095238096" type="line" smooth="yes"/>
      <point x="283.947619047619" y="335.5690476190476"/>
      <point x="258.7714285714286" y="309.2071428571429"/>
      <point x="220.6" y="309.2071428571429" type="curve" smooth="yes"/>
      <point x="180.26666666666665" y="309.2071428571429"/>
      <point x="160.53571428571428" y="340.10238095238094"/>
      <point x="160.53571428571428" y="406.64047619047625" type="curve" smooth="yes"/>
      <point x="160.53571428571428" y="527.8404761904762" type="line" smooth="yes"/>
      <point x="160.53571428571428" y="620.0571428571428"/>
      <point x="222.26904761904763" y="712.797619047619"/>
      <point x="351.2833333333333" y="712.797619047619" type="curve" smooth="yes"/>
      <point x="505.25" y="712.797619047619"/>
      <point x="574.2571428571429" y="594.7714285714286"/>
      <point x="574.2571428571429" y="413.0595238095238" type="curve" smooth="yes"/>
      <point x="574.2571428571429" y="201.26428571428568"/>
      <point x="475.01666666666665" y="84.28571428571429"/>
      <point x="318.45714285714286" y="84.28571428571429" type="curve" smooth="yes"/>
      <point x="214.1047619047619" y="84.28571428571429"/>
      <point x="144.5095238095238" y="120.37142857142858"/>
      <point x="77.23095238095239" y="202.55714285714285" type="curve"/>
      <point x="23.833333333333332" y="154.102380952381" type="line"/>
      <point x="100.02857142857142" y="63.721428571428575"/>
      <point x="186.08809523809526" y="7.388095238095239"/>
    </contour>
  </outline>
</glyph>
<glyph name="eMatra-tamil" format="2">
  <advance width="758.1666666666667"/>
  <unicode hex="0BC6"/>
  <note>
uni0BC6
</note>
  <outline>
    <contour>
      <point x="303.97857142857146" y="-5.0" type="curve" smooth="yes"/>
      <point x="417.6928571428571" y="-5.0"/>
      <point x="491.4142857142857" y="62.34523809523809"/>
      <point x="491.4142857142857" y="171.27619047619046" type="curve" smooth="yes"/>
      <point x="491.4142857142857" y="264.3571428571429"/>
      <point x="435.7452380952381" y="337.27619047619055"/>
      <point x="338.11428571428576" y="337.27619047619055" type="curve" smooth="yes"/>
      <point x="225.35476190476192" y="337.27619047619055"/>
      <point x="165.07857142857142" y="237.36190476190478"/>
      <point x="161.4595238095238" y="116.49285714285716" type="curve"/>
      <point x="204.16428571428574" y="89.92142857142856" type="line"/>
      <point x="207.69523809523812" y="178.12619047619046"/>
      <point x="235.8595238095238" y="237.29999999999998"/>
      <point x="284.41428571428565" y="237.29999999999998" type="curve" smooth="yes"/>
      <point x="319.4666666666667" y="237.29999999999998"/>
      <point x="342.152380952381" y="204.64523809523808"/>
      <point x="342.152380952381" y="158.54285714285714" type="curve" smooth="yes"/>
      <point x="342.152380952381" y="106.16190476190476"/>
      <point x="319.51666666666665" y="72.20238095238096"/>
      <point x="272.3619047619047" y="72.20238095238096" type="curve" smooth="yes"/>
      <point x="200.28333333333333" y="72.20238095238096"/>
      <point x="121.66904761904763" y="182.58095238095237"/>
      <point x="121.66904761904763" y="378.7952380952381" type="curve" smooth="yes"/>
      <point x="121.66904761904763" y="592.154761904762"/>
      <point x="240.58809523809524" y="709.4309523809524"/>
      <point x="393.3071428571428" y="709.4309523809524" type="curve" smooth="yes"/>
      <point x="519.5666666666666" y="709.4309523809524"/>
      <point x="618.8976190476192" y="642.202380952381"/>
      <point x="618.8976190476192" y="448.7142857142858" type="curve" smooth="yes"/>
      <point x="618.8976190476192" y="0.0" type="line"/>
      <point x="690.4904761904762" y="0.0" type="line"/>
      <point x="690.4904761904762" y="491.8071428571429" type="line" smooth="yes"/>
      <point x="690.4904761904762" y="731.3119047619048"/>
      <point x="579.895238095238" y="848.3214285714286"/>
      <point x="398.26666666666665" y="848.3214285714286" type="curve" smooth="yes"/>
      <point x="166.64523809523808" y="848.3214285714286"/>
      <point x="51.17857142857143" y="647.647619047619"/>
      <point x="51.17857142857143" y="381.6047619047619" type="curve" smooth="yes"/>
      <point x="51.17857142857143" y="145.5547619047619"/>
      <point x="160.46666666666667" y="-5.0"/>
    </contour>
  </outline>
</glyph>
<glyph name="eeMatra-tamil" format="2">
  <advance width="588.7785714285714"/>
  <unicode hex="0BC7"/>
  <note>
uni0BC7
</note>
  <outline>
    <contour>
      <point x="363.0880952380953" y="-5.0" type="curve" smooth="yes"/>
      <point x="474.60952380952386" y="-5.0"/>
      <point x="551.092857142857" y="59.17857142857144"/>
      <point x="551.092857142857" y="171.27619047619046" type="curve" smooth="yes"/>
      <point x="551.092857142857" y="264.35714285714283"/>
      <point x="494.34047619047624" y="337.27619047619044"/>
      <point x="396.84523809523813" y="337.27619047619044" type="curve" smooth="yes"/>
      <point x="282.23333333333335" y="337.27619047619044"/>
      <point x="222.9738095238095" y="234.22619047619048"/>
      <point x="220.3952380952381" y="108.10952380952381" type="curve"/>
      <point x="265.68095238095236" y="81.85476190476192" type="line"/>
      <point x="268.14285714285717" y="174.70238095238093"/>
      <point x="295.7571428571429" y="237.3"/>
      <point x="343.9285714285714" y="237.3" type="curve" smooth="yes"/>
      <point x="379.145238095238" y="237.3"/>
      <point x="401.66666666666663" y="204.64523809523808"/>
      <point x="401.66666666666663" y="158.54285714285714" type="curve" smooth="yes"/>
      <point x="401.66666666666663" y="103.58333333333333"/>
      <point x="375.7119047619048" y="72.20238095238096"/>
      <point x="329.4785714285714" y="72.20238095238096" type="curve" smooth="yes"/>
      <point x="241.6595238095238" y="72.20238095238096"/>
      <point x="122.25952380952383" y="205.56666666666663"/>
      <point x="122.25952380952383" y="421.52380952380946" type="curve" smooth="yes"/>
      <point x="122.25952380952383" y="636.4809523809524"/>
      <point x="241.6595238095238" y="777.2261904761904"/>
      <point x="329.4785714285714" y="777.2261904761904" type="curve" smooth="yes"/>
      <point x="375.7119047619048" y="777.2261904761904"/>
      <point x="401.66666666666663" y="745.6261904761906"/>
      <point x="401.66666666666663" y="690.7047619047619" type="curve" smooth="yes"/>
      <point x="401.66666666666663" y="644.7833333333334"/>
      <point x="379.145238095238" y="611.745238095238"/>
      <point x="343.9285714285714" y="611.745238095238" type="curve" smooth="yes"/>
      <point x="295.7571428571429" y="611.745238095238"/>
      <point x="268.14285714285717" y="674.5738095238096"/>
      <point x="265.68095238095236" y="768.0261904761905" type="curve"/>
      <point x="220.3952380952381" y="741.4547619047618" type="line"/>
      <point x="222.9738095238095" y="615.3380952380952"/>
      <point x="282.23333333333335" y="512.152380952381"/>
      <point x="396.84523809523813" y="512.152380952381" type="curve" smooth="yes"/>
      <point x="494.34047619047624" y="512.152380952381"/>
      <point x="551.092857142857" y="584.8904761904763"/>
      <point x="551.092857142857" y="678.1523809523809" type="curve" smooth="yes"/>
      <point x="551.092857142857" y="790.25"/>
      <point x="474.60952380952386" y="854.4285714285714"/>
      <point x="363.0880952380953" y="854.4285714285714" type="curve" smooth="yes"/>
      <point x="196.03095238095239" y="854.4285714285714"/>
      <point x="52.261904761904766" y="674.7452380952382"/>
      <point x="52.261904761904766" y="422.0047619047619" type="curve" smooth="yes"/>
      <point x="52.261904761904766" y="168.64761904761906"/>
      <point x="196.03095238095239" y="-5.0"/>
    </contour>
  </outline>
</glyph>
